solid ASCII
  facet normal -0.000000e+00 1.000000e+00 0.000000e+00
    outer loop
      vertex   -2.704402e+01 1.413735e+01 9.574800e+00
      vertex   -2.269750e+01 1.413735e+01 9.574800e+00
      vertex   -2.704402e+01 1.413735e+01 9.174800e+00
    endloop
  endfacet
  facet normal 0.000000e+00 1.000000e+00 0.000000e+00
    outer loop
      vertex   -2.704402e+01 1.413735e+01 9.174800e+00
      vertex   -2.269750e+01 1.413735e+01 9.574800e+00
      vertex   -2.269750e+01 1.413735e+01 9.174800e+00
    endloop
  endfacet
  facet normal -1.000000e+00 0.000000e+00 0.000000e+00
    outer loop
      vertex   -2.704402e+01 1.298728e+01 9.574800e+00
      vertex   -2.704402e+01 1.413735e+01 9.574800e+00
      vertex   -2.704402e+01 1.298728e+01 9.174800e+00
    endloop
  endfacet
  facet normal -1.000000e+00 0.000000e+00 0.000000e+00
    outer loop
      vertex   -2.704402e+01 1.298728e+01 9.174800e+00
      vertex   -2.704402e+01 1.413735e+01 9.574800e+00
      vertex   -2.704402e+01 1.413735e+01 9.174800e+00
    endloop
  endfacet
  facet normal -0.000000e+00 -1.000000e+00 -0.000000e+00
    outer loop
      vertex   -2.269750e+01 1.298728e+01 9.574800e+00
      vertex   -2.704402e+01 1.298728e+01 9.574800e+00
      vertex   -2.269750e+01 1.298728e+01 9.174800e+00
    endloop
  endfacet
  facet normal 0.000000e+00 -1.000000e+00 0.000000e+00
    outer loop
      vertex   -2.269750e+01 1.298728e+01 9.174800e+00
      vertex   -2.704402e+01 1.298728e+01 9.574800e+00
      vertex   -2.704402e+01 1.298728e+01 9.174800e+00
    endloop
  endfacet
  facet normal 1.000000e+00 0.000000e+00 0.000000e+00
    outer loop
      vertex   -2.269750e+01 1.413735e+01 9.574800e+00
      vertex   -2.269750e+01 1.298728e+01 9.574800e+00
      vertex   -2.269750e+01 1.413735e+01 9.174800e+00
    endloop
  endfacet
  facet normal 1.000000e+00 0.000000e+00 0.000000e+00
    outer loop
      vertex   -2.269750e+01 1.413735e+01 9.174800e+00
      vertex   -2.269750e+01 1.298728e+01 9.574800e+00
      vertex   -2.269750e+01 1.298728e+01 9.174800e+00
    endloop
  endfacet
  facet normal 0.000000e+00 0.000000e+00 1.000000e+00
    outer loop
      vertex   -2.269750e+01 1.413735e+01 9.574800e+00
      vertex   -2.704402e+01 1.413735e+01 9.574800e+00
      vertex   -2.269750e+01 1.298728e+01 9.574800e+00
    endloop
  endfacet
  facet normal 0.000000e+00 0.000000e+00 1.000000e+00
    outer loop
      vertex   -2.269750e+01 1.298728e+01 9.574800e+00
      vertex   -2.704402e+01 1.413735e+01 9.574800e+00
      vertex   -2.704402e+01 1.298728e+01 9.574800e+00
    endloop
  endfacet
  facet normal 0.000000e+00 0.000000e+00 -1.000000e+00
    outer loop
      vertex   -2.269750e+01 1.298728e+01 9.174800e+00
      vertex   -2.704402e+01 1.298728e+01 9.174800e+00
      vertex   -2.269750e+01 1.413735e+01 9.174800e+00
    endloop
  endfacet
  facet normal -0.000000e+00 0.000000e+00 -1.000000e+00
    outer loop
      vertex   -2.269750e+01 1.413735e+01 9.174800e+00
      vertex   -2.704402e+01 1.298728e+01 9.174800e+00
      vertex   -2.704402e+01 1.413735e+01 9.174800e+00
    endloop
  endfacet
endsolid
