solid ASCII
  facet normal -1.583349e-01 9.873855e-01 0.000000e+00
    outer loop
      vertex   -2.617226e+01 3.375407e+00 9.574800e+00
      vertex   -2.598022e+01 3.406202e+00 9.574800e+00
      vertex   -2.617226e+01 3.375407e+00 9.174800e+00
    endloop
  endfacet
  facet normal -1.583349e-01 9.873855e-01 0.000000e+00
    outer loop
      vertex   -2.617226e+01 3.375407e+00 9.174800e+00
      vertex   -2.598022e+01 3.406202e+00 9.574800e+00
      vertex   -2.598022e+01 3.406202e+00 9.174800e+00
    endloop
  endfacet
  facet normal -1.289974e-01 9.916449e-01 0.000000e+00
    outer loop
      vertex   -2.598022e+01 3.406202e+00 9.174800e+00
      vertex   -2.598022e+01 3.406202e+00 9.574800e+00
      vertex   -2.588394e+01 3.418726e+00 9.574800e+00
    endloop
  endfacet
  facet normal -1.289974e-01 9.916449e-01 0.000000e+00
    outer loop
      vertex   -2.598022e+01 3.406202e+00 9.174800e+00
      vertex   -2.588394e+01 3.418726e+00 9.574800e+00
      vertex   -2.588394e+01 3.418726e+00 9.174800e+00
    endloop
  endfacet
  facet normal -9.424416e-02 9.955491e-01 0.000000e+00
    outer loop
      vertex   -2.588394e+01 3.418726e+00 9.174800e+00
      vertex   -2.588394e+01 3.418726e+00 9.574800e+00
      vertex   -2.578736e+01 3.427869e+00 9.574800e+00
    endloop
  endfacet
  facet normal -9.424416e-02 9.955491e-01 0.000000e+00
    outer loop
      vertex   -2.588394e+01 3.418726e+00 9.174800e+00
      vertex   -2.578736e+01 3.427869e+00 9.574800e+00
      vertex   -2.578736e+01 3.427869e+00 9.174800e+00
    endloop
  endfacet
  facet normal -4.589643e-02 9.989462e-01 0.000000e+00
    outer loop
      vertex   -2.578736e+01 3.427869e+00 9.174800e+00
      vertex   -2.578736e+01 3.427869e+00 9.574800e+00
      vertex   -2.559335e+01 3.436783e+00 9.574800e+00
    endloop
  endfacet
  facet normal -4.589643e-02 9.989462e-01 0.000000e+00
    outer loop
      vertex   -2.578736e+01 3.427869e+00 9.174800e+00
      vertex   -2.559335e+01 3.436783e+00 9.574800e+00
      vertex   -2.559335e+01 3.436783e+00 9.174800e+00
    endloop
  endfacet
  facet normal -1.059635e-02 9.999439e-01 0.000000e+00
    outer loop
      vertex   -2.559335e+01 3.436783e+00 9.174800e+00
      vertex   -2.559335e+01 3.436783e+00 9.574800e+00
      vertex   -2.539872e+01 3.438845e+00 9.574800e+00
    endloop
  endfacet
  facet normal -1.059635e-02 9.999439e-01 0.000000e+00
    outer loop
      vertex   -2.559335e+01 3.436783e+00 9.174800e+00
      vertex   -2.539872e+01 3.438845e+00 9.574800e+00
      vertex   -2.539872e+01 3.438845e+00 9.174800e+00
    endloop
  endfacet
  facet normal -5.494068e-01 8.355550e-01 0.000000e+00
    outer loop
      vertex   -2.665520e+01 3.150306e+00 9.574800e+00
      vertex   -2.654273e+01 3.224262e+00 9.574800e+00
      vertex   -2.665520e+01 3.150306e+00 9.174800e+00
    endloop
  endfacet
  facet normal -5.494068e-01 8.355550e-01 0.000000e+00
    outer loop
      vertex   -2.665520e+01 3.150306e+00 9.174800e+00
      vertex   -2.654273e+01 3.224262e+00 9.574800e+00
      vertex   -2.654273e+01 3.224262e+00 9.174800e+00
    endloop
  endfacet
  facet normal -5.073268e-01 8.617537e-01 0.000000e+00
    outer loop
      vertex   -2.654273e+01 3.224262e+00 9.174800e+00
      vertex   -2.654273e+01 3.224262e+00 9.574800e+00
      vertex   -2.648507e+01 3.258204e+00 9.574800e+00
    endloop
  endfacet
  facet normal -5.073268e-01 8.617537e-01 0.000000e+00
    outer loop
      vertex   -2.654273e+01 3.224262e+00 9.174800e+00
      vertex   -2.648507e+01 3.258204e+00 9.574800e+00
      vertex   -2.648507e+01 3.258204e+00 9.174800e+00
    endloop
  endfacet
  facet normal -4.546595e-01 8.906653e-01 0.000000e+00
    outer loop
      vertex   -2.648507e+01 3.258204e+00 9.174800e+00
      vertex   -2.648507e+01 3.258204e+00 9.574800e+00
      vertex   -2.642572e+01 3.288505e+00 9.574800e+00
    endloop
  endfacet
  facet normal -4.546595e-01 8.906653e-01 0.000000e+00
    outer loop
      vertex   -2.648507e+01 3.258204e+00 9.174800e+00
      vertex   -2.642572e+01 3.288505e+00 9.574800e+00
      vertex   -2.642572e+01 3.288505e+00 9.174800e+00
    endloop
  endfacet
  facet normal -3.884820e-01 9.214563e-01 0.000000e+00
    outer loop
      vertex   -2.642572e+01 3.288505e+00 9.174800e+00
      vertex   -2.642572e+01 3.288505e+00 9.574800e+00
      vertex   -2.636430e+01 3.314398e+00 9.574800e+00
    endloop
  endfacet
  facet normal -3.884820e-01 9.214563e-01 0.000000e+00
    outer loop
      vertex   -2.642572e+01 3.288505e+00 9.174800e+00
      vertex   -2.636430e+01 3.314398e+00 9.574800e+00
      vertex   -2.636430e+01 3.314398e+00 9.174800e+00
    endloop
  endfacet
  facet normal -3.335504e-01 9.427323e-01 0.000000e+00
    outer loop
      vertex   -2.636430e+01 3.314398e+00 9.174800e+00
      vertex   -2.636430e+01 3.314398e+00 9.574800e+00
      vertex   -2.630121e+01 3.336719e+00 9.574800e+00
    endloop
  endfacet
  facet normal -3.335504e-01 9.427323e-01 0.000000e+00
    outer loop
      vertex   -2.636430e+01 3.314398e+00 9.174800e+00
      vertex   -2.630121e+01 3.336719e+00 9.574800e+00
      vertex   -2.630121e+01 3.336719e+00 9.174800e+00
    endloop
  endfacet
  facet normal -2.873548e-01 9.578242e-01 0.000000e+00
    outer loop
      vertex   -2.630121e+01 3.336719e+00 9.174800e+00
      vertex   -2.630121e+01 3.336719e+00 9.574800e+00
      vertex   -2.617226e+01 3.375407e+00 9.574800e+00
    endloop
  endfacet
  facet normal -2.873548e-01 9.578242e-01 0.000000e+00
    outer loop
      vertex   -2.630121e+01 3.336719e+00 9.174800e+00
      vertex   -2.617226e+01 3.375407e+00 9.574800e+00
      vertex   -2.617226e+01 3.375407e+00 9.174800e+00
    endloop
  endfacet
  facet normal -8.955847e-01 4.448910e-01 0.000000e+00
    outer loop
      vertex   -2.700514e+01 2.673498e+00 9.574800e+00
      vertex   -2.693827e+01 2.808101e+00 9.574800e+00
      vertex   -2.700514e+01 2.673498e+00 9.174800e+00
    endloop
  endfacet
  facet normal -8.955847e-01 4.448910e-01 0.000000e+00
    outer loop
      vertex   -2.700514e+01 2.673498e+00 9.174800e+00
      vertex   -2.693827e+01 2.808101e+00 9.574800e+00
      vertex   -2.693827e+01 2.808101e+00 9.174800e+00
    endloop
  endfacet
  facet normal -8.695824e-01 4.937878e-01 0.000000e+00
    outer loop
      vertex   -2.693827e+01 2.808101e+00 9.174800e+00
      vertex   -2.693827e+01 2.808101e+00 9.574800e+00
      vertex   -2.690148e+01 2.872894e+00 9.574800e+00
    endloop
  endfacet
  facet normal -8.695824e-01 4.937878e-01 0.000000e+00
    outer loop
      vertex   -2.693827e+01 2.808101e+00 9.174800e+00
      vertex   -2.690148e+01 2.872894e+00 9.574800e+00
      vertex   -2.690148e+01 2.872894e+00 9.174800e+00
    endloop
  endfacet
  facet normal -8.343146e-01 5.512886e-01 0.000000e+00
    outer loop
      vertex   -2.690148e+01 2.872894e+00 9.174800e+00
      vertex   -2.690148e+01 2.872894e+00 9.574800e+00
      vertex   -2.686065e+01 2.934675e+00 9.574800e+00
    endloop
  endfacet
  facet normal -8.343146e-01 5.512886e-01 0.000000e+00
    outer loop
      vertex   -2.690148e+01 2.872894e+00 9.174800e+00
      vertex   -2.686065e+01 2.934675e+00 9.574800e+00
      vertex   -2.686065e+01 2.934675e+00 9.174800e+00
    endloop
  endfacet
  facet normal -7.829902e-01 6.220340e-01 0.000000e+00
    outer loop
      vertex   -2.686065e+01 2.934675e+00 9.174800e+00
      vertex   -2.686065e+01 2.934675e+00 9.574800e+00
      vertex   -2.681465e+01 2.992585e+00 9.574800e+00
    endloop
  endfacet
  facet normal -7.829902e-01 6.220340e-01 0.000000e+00
    outer loop
      vertex   -2.686065e+01 2.934675e+00 9.174800e+00
      vertex   -2.681465e+01 2.992585e+00 9.574800e+00
      vertex   -2.681465e+01 2.992585e+00 9.174800e+00
    endloop
  endfacet
  facet normal -7.327672e-01 6.804794e-01 0.000000e+00
    outer loop
      vertex   -2.681465e+01 2.992585e+00 9.174800e+00
      vertex   -2.681465e+01 2.992585e+00 9.574800e+00
      vertex   -2.676405e+01 3.047066e+00 9.574800e+00
    endloop
  endfacet
  facet normal -7.327672e-01 6.804794e-01 0.000000e+00
    outer loop
      vertex   -2.681465e+01 2.992585e+00 9.174800e+00
      vertex   -2.676405e+01 3.047066e+00 9.574800e+00
      vertex   -2.676405e+01 3.047066e+00 9.174800e+00
    endloop
  endfacet
  facet normal -6.881589e-01 7.255600e-01 0.000000e+00
    outer loop
      vertex   -2.676405e+01 3.047066e+00 9.174800e+00
      vertex   -2.676405e+01 3.047066e+00 9.574800e+00
      vertex   -2.665520e+01 3.150306e+00 9.574800e+00
    endloop
  endfacet
  facet normal -6.881589e-01 7.255600e-01 0.000000e+00
    outer loop
      vertex   -2.676405e+01 3.047066e+00 9.174800e+00
      vertex   -2.665520e+01 3.150306e+00 9.574800e+00
      vertex   -2.665520e+01 3.150306e+00 9.174800e+00
    endloop
  endfacet
  facet normal -9.985529e-01 5.377788e-02 0.000000e+00
    outer loop
      vertex   -2.714224e+01 1.977726e+00 9.574800e+00
      vertex   -2.713261e+01 2.156595e+00 9.574800e+00
      vertex   -2.714224e+01 1.977726e+00 9.174800e+00
    endloop
  endfacet
  facet normal -9.985529e-01 5.377788e-02 0.000000e+00
    outer loop
      vertex   -2.714224e+01 1.977726e+00 9.174800e+00
      vertex   -2.713261e+01 2.156595e+00 9.574800e+00
      vertex   -2.713261e+01 2.156595e+00 9.174800e+00
    endloop
  endfacet
  facet normal -9.949498e-01 1.003737e-01 0.000000e+00
    outer loop
      vertex   -2.713261e+01 2.156595e+00 9.174800e+00
      vertex   -2.713261e+01 2.156595e+00 9.574800e+00
      vertex   -2.712367e+01 2.245206e+00 9.574800e+00
    endloop
  endfacet
  facet normal -9.949498e-01 1.003737e-01 0.000000e+00
    outer loop
      vertex   -2.713261e+01 2.156595e+00 9.174800e+00
      vertex   -2.712367e+01 2.245206e+00 9.574800e+00
      vertex   -2.712367e+01 2.245206e+00 9.174800e+00
    endloop
  endfacet
  facet normal -9.876732e-01 1.565302e-01 0.000000e+00
    outer loop
      vertex   -2.712367e+01 2.245206e+00 9.174800e+00
      vertex   -2.712367e+01 2.245206e+00 9.574800e+00
      vertex   -2.710978e+01 2.332827e+00 9.574800e+00
    endloop
  endfacet
  facet normal -9.876732e-01 1.565302e-01 0.000000e+00
    outer loop
      vertex   -2.712367e+01 2.245206e+00 9.174800e+00
      vertex   -2.710978e+01 2.332827e+00 9.574800e+00
      vertex   -2.710978e+01 2.332827e+00 9.174800e+00
    endloop
  endfacet
  facet normal -9.740344e-01 2.264002e-01 0.000000e+00
    outer loop
      vertex   -2.710978e+01 2.332827e+00 9.174800e+00
      vertex   -2.710978e+01 2.332827e+00 9.574800e+00
      vertex   -2.708971e+01 2.419211e+00 9.574800e+00
    endloop
  endfacet
  facet normal -9.740344e-01 2.264002e-01 0.000000e+00
    outer loop
      vertex   -2.710978e+01 2.332827e+00 9.174800e+00
      vertex   -2.708971e+01 2.419211e+00 9.574800e+00
      vertex   -2.708971e+01 2.419211e+00 9.174800e+00
    endloop
  endfacet
  facet normal -9.587783e-01 2.841553e-01 0.000000e+00
    outer loop
      vertex   -2.708971e+01 2.419211e+00 9.174800e+00
      vertex   -2.708971e+01 2.419211e+00 9.574800e+00
      vertex   -2.706441e+01 2.504552e+00 9.574800e+00
    endloop
  endfacet
  facet normal -9.587783e-01 2.841553e-01 0.000000e+00
    outer loop
      vertex   -2.708971e+01 2.419211e+00 9.174800e+00
      vertex   -2.706441e+01 2.504552e+00 9.574800e+00
      vertex   -2.706441e+01 2.504552e+00 9.174800e+00
    endloop
  endfacet
  facet normal -9.436035e-01 3.310776e-01 0.000000e+00
    outer loop
      vertex   -2.706441e+01 2.504552e+00 9.174800e+00
      vertex   -2.706441e+01 2.504552e+00 9.574800e+00
      vertex   -2.700514e+01 2.673498e+00 9.574800e+00
    endloop
  endfacet
  facet normal -9.436035e-01 3.310776e-01 0.000000e+00
    outer loop
      vertex   -2.706441e+01 2.504552e+00 9.174800e+00
      vertex   -2.700514e+01 2.673498e+00 9.574800e+00
      vertex   -2.700514e+01 2.673498e+00 9.174800e+00
    endloop
  endfacet
  facet normal -6.836937e-01 -7.297691e-01 -0.000000e+00
    outer loop
      vertex   -2.640554e+01 5.452580e-01 9.574800e+00
      vertex   -2.656187e+01 6.917147e-01 9.574800e+00
      vertex   -2.640554e+01 5.452580e-01 9.174800e+00
    endloop
  endfacet
  facet normal -6.836937e-01 -7.297691e-01 0.000000e+00
    outer loop
      vertex   -2.640554e+01 5.452580e-01 9.174800e+00
      vertex   -2.656187e+01 6.917147e-01 9.574800e+00
      vertex   -2.656187e+01 6.917147e-01 9.174800e+00
    endloop
  endfacet
  facet normal -7.017754e-01 -7.123982e-01 0.000000e+00
    outer loop
      vertex   -2.656187e+01 6.917147e-01 9.174800e+00
      vertex   -2.656187e+01 6.917147e-01 9.574800e+00
      vertex   -2.663751e+01 7.662247e-01 9.574800e+00
    endloop
  endfacet
  facet normal -7.017754e-01 -7.123982e-01 0.000000e+00
    outer loop
      vertex   -2.656187e+01 6.917147e-01 9.174800e+00
      vertex   -2.663751e+01 7.662247e-01 9.574800e+00
      vertex   -2.663751e+01 7.662247e-01 9.174800e+00
    endloop
  endfacet
  facet normal -7.232794e-01 -6.905555e-01 0.000000e+00
    outer loop
      vertex   -2.663751e+01 7.662247e-01 9.174800e+00
      vertex   -2.663751e+01 7.662247e-01 9.574800e+00
      vertex   -2.671012e+01 8.422727e-01 9.574800e+00
    endloop
  endfacet
  facet normal -7.232794e-01 -6.905555e-01 0.000000e+00
    outer loop
      vertex   -2.663751e+01 7.662247e-01 9.174800e+00
      vertex   -2.671012e+01 8.422727e-01 9.574800e+00
      vertex   -2.671012e+01 8.422727e-01 9.174800e+00
    endloop
  endfacet
  facet normal -7.514779e-01 -6.597583e-01 0.000000e+00
    outer loop
      vertex   -2.671012e+01 8.422727e-01 9.174800e+00
      vertex   -2.671012e+01 8.422727e-01 9.574800e+00
      vertex   -2.677868e+01 9.203715e-01 9.574800e+00
    endloop
  endfacet
  facet normal -7.514779e-01 -6.597583e-01 0.000000e+00
    outer loop
      vertex   -2.671012e+01 8.422727e-01 9.174800e+00
      vertex   -2.677868e+01 9.203715e-01 9.574800e+00
      vertex   -2.677868e+01 9.203715e-01 9.174800e+00
    endloop
  endfacet
  facet normal -7.856634e-01 -6.186542e-01 0.000000e+00
    outer loop
      vertex   -2.677868e+01 9.203715e-01 9.174800e+00
      vertex   -2.677868e+01 9.203715e-01 9.574800e+00
      vertex   -2.684220e+01 1.001034e+00 9.574800e+00
    endloop
  endfacet
  facet normal -7.856634e-01 -6.186542e-01 0.000000e+00
    outer loop
      vertex   -2.677868e+01 9.203715e-01 9.174800e+00
      vertex   -2.684220e+01 1.001034e+00 9.574800e+00
      vertex   -2.684220e+01 1.001034e+00 9.174800e+00
    endloop
  endfacet
  facet normal -8.245720e-01 -5.657570e-01 0.000000e+00
    outer loop
      vertex   -2.684220e+01 1.001034e+00 9.174800e+00
      vertex   -2.684220e+01 1.001034e+00 9.574800e+00
      vertex   -2.689965e+01 1.084772e+00 9.574800e+00
    endloop
  endfacet
  facet normal -8.245720e-01 -5.657570e-01 0.000000e+00
    outer loop
      vertex   -2.684220e+01 1.001034e+00 9.174800e+00
      vertex   -2.689965e+01 1.084772e+00 9.574800e+00
      vertex   -2.689965e+01 1.084772e+00 9.174800e+00
    endloop
  endfacet
  facet normal -8.661752e-01 -4.997405e-01 0.000000e+00
    outer loop
      vertex   -2.689965e+01 1.084772e+00 9.174800e+00
      vertex   -2.689965e+01 1.084772e+00 9.574800e+00
      vertex   -2.695004e+01 1.172099e+00 9.574800e+00
    endloop
  endfacet
  facet normal -8.661752e-01 -4.997405e-01 0.000000e+00
    outer loop
      vertex   -2.689965e+01 1.084772e+00 9.174800e+00
      vertex   -2.695004e+01 1.172099e+00 9.574800e+00
      vertex   -2.695004e+01 1.172099e+00 9.174800e+00
    endloop
  endfacet
  facet normal -9.066616e-01 -4.218588e-01 0.000000e+00
    outer loop
      vertex   -2.695004e+01 1.172099e+00 9.174800e+00
      vertex   -2.695004e+01 1.172099e+00 9.574800e+00
      vertex   -2.699253e+01 1.263429e+00 9.574800e+00
    endloop
  endfacet
  facet normal -9.066616e-01 -4.218588e-01 0.000000e+00
    outer loop
      vertex   -2.695004e+01 1.172099e+00 9.174800e+00
      vertex   -2.699253e+01 1.263429e+00 9.574800e+00
      vertex   -2.699253e+01 1.263429e+00 9.174800e+00
    endloop
  endfacet
  facet normal -9.380888e-01 -3.463949e-01 0.000000e+00
    outer loop
      vertex   -2.699253e+01 1.263429e+00 9.174800e+00
      vertex   -2.699253e+01 1.263429e+00 9.574800e+00
      vertex   -2.702764e+01 1.358508e+00 9.574800e+00
    endloop
  endfacet
  facet normal -9.380888e-01 -3.463949e-01 0.000000e+00
    outer loop
      vertex   -2.699253e+01 1.263429e+00 9.174800e+00
      vertex   -2.702764e+01 1.358508e+00 9.574800e+00
      vertex   -2.702764e+01 1.358508e+00 9.174800e+00
    endloop
  endfacet
  facet normal -9.597189e-01 -2.809618e-01 0.000000e+00
    outer loop
      vertex   -2.702764e+01 1.358508e+00 9.174800e+00
      vertex   -2.702764e+01 1.358508e+00 9.574800e+00
      vertex   -2.705642e+01 1.456801e+00 9.574800e+00
    endloop
  endfacet
  facet normal -9.597189e-01 -2.809618e-01 0.000000e+00
    outer loop
      vertex   -2.702764e+01 1.358508e+00 9.174800e+00
      vertex   -2.705642e+01 1.456801e+00 9.574800e+00
      vertex   -2.705642e+01 1.456801e+00 9.174800e+00
    endloop
  endfacet
  facet normal -9.739726e-01 -2.266659e-01 0.000000e+00
    outer loop
      vertex   -2.705642e+01 1.456801e+00 9.174800e+00
      vertex   -2.705642e+01 1.456801e+00 9.574800e+00
      vertex   -2.707991e+01 1.557772e+00 9.574800e+00
    endloop
  endfacet
  facet normal -9.739726e-01 -2.266659e-01 0.000000e+00
    outer loop
      vertex   -2.705642e+01 1.456801e+00 9.174800e+00
      vertex   -2.707991e+01 1.557772e+00 9.574800e+00
      vertex   -2.707991e+01 1.557772e+00 9.174800e+00
    endloop
  endfacet
  facet normal -9.829711e-01 -1.837600e-01 0.000000e+00
    outer loop
      vertex   -2.707991e+01 1.557772e+00 9.174800e+00
      vertex   -2.707991e+01 1.557772e+00 9.574800e+00
      vertex   -2.709919e+01 1.660885e+00 9.574800e+00
    endloop
  endfacet
  facet normal -9.829711e-01 -1.837600e-01 0.000000e+00
    outer loop
      vertex   -2.707991e+01 1.557772e+00 9.174800e+00
      vertex   -2.709919e+01 1.660885e+00 9.574800e+00
      vertex   -2.709919e+01 1.660885e+00 9.174800e+00
    endloop
  endfacet
  facet normal -9.883729e-01 -1.520494e-01 0.000000e+00
    outer loop
      vertex   -2.709919e+01 1.660885e+00 9.174800e+00
      vertex   -2.709919e+01 1.660885e+00 9.574800e+00
      vertex   -2.711530e+01 1.765606e+00 9.574800e+00
    endloop
  endfacet
  facet normal -9.883729e-01 -1.520494e-01 0.000000e+00
    outer loop
      vertex   -2.709919e+01 1.660885e+00 9.174800e+00
      vertex   -2.711530e+01 1.765606e+00 9.574800e+00
      vertex   -2.711530e+01 1.765606e+00 9.174800e+00
    endloop
  endfacet
  facet normal -9.920297e-01 -1.260042e-01 0.000000e+00
    outer loop
      vertex   -2.711530e+01 1.765606e+00 9.174800e+00
      vertex   -2.711530e+01 1.765606e+00 9.574800e+00
      vertex   -2.714224e+01 1.977726e+00 9.574800e+00
    endloop
  endfacet
  facet normal -9.920297e-01 -1.260042e-01 0.000000e+00
    outer loop
      vertex   -2.711530e+01 1.765606e+00 9.174800e+00
      vertex   -2.714224e+01 1.977726e+00 9.574800e+00
      vertex   -2.714224e+01 1.977726e+00 9.174800e+00
    endloop
  endfacet
  facet normal -0.000000e+00 1.000000e+00 0.000000e+00
    outer loop
      vertex   -2.704402e+01 5.452580e-01 9.574800e+00
      vertex   -2.640554e+01 5.452580e-01 9.574800e+00
      vertex   -2.704402e+01 5.452580e-01 9.174800e+00
    endloop
  endfacet
  facet normal 0.000000e+00 1.000000e+00 0.000000e+00
    outer loop
      vertex   -2.704402e+01 5.452580e-01 9.174800e+00
      vertex   -2.640554e+01 5.452580e-01 9.574800e+00
      vertex   -2.640554e+01 5.452580e-01 9.174800e+00
    endloop
  endfacet
  facet normal -1.000000e+00 0.000000e+00 0.000000e+00
    outer loop
      vertex   -2.704402e+01 -5.229550e-01 9.574800e+00
      vertex   -2.704402e+01 5.452580e-01 9.574800e+00
      vertex   -2.704402e+01 -5.229550e-01 9.174800e+00
    endloop
  endfacet
  facet normal -1.000000e+00 0.000000e+00 0.000000e+00
    outer loop
      vertex   -2.704402e+01 -5.229550e-01 9.174800e+00
      vertex   -2.704402e+01 5.452580e-01 9.574800e+00
      vertex   -2.704402e+01 5.452580e-01 9.174800e+00
    endloop
  endfacet
  facet normal -0.000000e+00 -1.000000e+00 -0.000000e+00
    outer loop
      vertex   -2.269750e+01 -5.229550e-01 9.574800e+00
      vertex   -2.704402e+01 -5.229550e-01 9.574800e+00
      vertex   -2.269750e+01 -5.229550e-01 9.174800e+00
    endloop
  endfacet
  facet normal 0.000000e+00 -1.000000e+00 0.000000e+00
    outer loop
      vertex   -2.269750e+01 -5.229550e-01 9.174800e+00
      vertex   -2.704402e+01 -5.229550e-01 9.574800e+00
      vertex   -2.704402e+01 -5.229550e-01 9.174800e+00
    endloop
  endfacet
  facet normal 1.000000e+00 0.000000e+00 0.000000e+00
    outer loop
      vertex   -2.269750e+01 6.271130e-01 9.574800e+00
      vertex   -2.269750e+01 -5.229550e-01 9.574800e+00
      vertex   -2.269750e+01 6.271130e-01 9.174800e+00
    endloop
  endfacet
  facet normal 1.000000e+00 0.000000e+00 0.000000e+00
    outer loop
      vertex   -2.269750e+01 6.271130e-01 9.174800e+00
      vertex   -2.269750e+01 -5.229550e-01 9.574800e+00
      vertex   -2.269750e+01 -5.229550e-01 9.174800e+00
    endloop
  endfacet
  facet normal -0.000000e+00 1.000000e+00 0.000000e+00
    outer loop
      vertex   -2.466612e+01 6.271130e-01 9.574800e+00
      vertex   -2.269750e+01 6.271130e-01 9.574800e+00
      vertex   -2.466612e+01 6.271130e-01 9.174800e+00
    endloop
  endfacet
  facet normal 0.000000e+00 1.000000e+00 0.000000e+00
    outer loop
      vertex   -2.466612e+01 6.271130e-01 9.174800e+00
      vertex   -2.269750e+01 6.271130e-01 9.574800e+00
      vertex   -2.269750e+01 6.271130e-01 9.174800e+00
    endloop
  endfacet
  facet normal 1.840324e-01 9.829202e-01 0.000000e+00
    outer loop
      vertex   -2.566475e+01 7.151074e-01 9.574800e+00
      vertex   -2.541760e+01 6.688328e-01 9.574800e+00
      vertex   -2.566475e+01 7.151074e-01 9.174800e+00
    endloop
  endfacet
  facet normal 1.840324e-01 9.829202e-01 0.000000e+00
    outer loop
      vertex   -2.566475e+01 7.151074e-01 9.174800e+00
      vertex   -2.541760e+01 6.688328e-01 9.574800e+00
      vertex   -2.541760e+01 6.688328e-01 9.174800e+00
    endloop
  endfacet
  facet normal 1.442457e-01 9.895419e-01 -0.000000e+00
    outer loop
      vertex   -2.541760e+01 6.688328e-01 9.174800e+00
      vertex   -2.541760e+01 6.688328e-01 9.574800e+00
      vertex   -2.529350e+01 6.507431e-01 9.574800e+00
    endloop
  endfacet
  facet normal 1.442457e-01 9.895419e-01 0.000000e+00
    outer loop
      vertex   -2.541760e+01 6.688328e-01 9.174800e+00
      vertex   -2.529350e+01 6.507431e-01 9.574800e+00
      vertex   -2.529350e+01 6.507431e-01 9.174800e+00
    endloop
  endfacet
  facet normal 9.914540e-02 9.950730e-01 -0.000000e+00
    outer loop
      vertex   -2.529350e+01 6.507431e-01 9.174800e+00
      vertex   -2.529350e+01 6.507431e-01 9.574800e+00
      vertex   -2.516882e+01 6.383202e-01 9.574800e+00
    endloop
  endfacet
  facet normal 9.914540e-02 9.950730e-01 0.000000e+00
    outer loop
      vertex   -2.529350e+01 6.507431e-01 9.174800e+00
      vertex   -2.516882e+01 6.383202e-01 9.574800e+00
      vertex   -2.516882e+01 6.383202e-01 9.174800e+00
    endloop
  endfacet
  facet normal 5.813840e-02 9.983085e-01 -0.000000e+00
    outer loop
      vertex   -2.516882e+01 6.383202e-01 9.174800e+00
      vertex   -2.516882e+01 6.383202e-01 9.574800e+00
      vertex   -2.504361e+01 6.310282e-01 9.574800e+00
    endloop
  endfacet
  facet normal 5.813840e-02 9.983085e-01 0.000000e+00
    outer loop
      vertex   -2.516882e+01 6.383202e-01 9.174800e+00
      vertex   -2.504361e+01 6.310282e-01 9.574800e+00
      vertex   -2.504361e+01 6.310282e-01 9.174800e+00
    endloop
  endfacet
  facet normal 2.740197e-02 9.996245e-01 -0.000000e+00
    outer loop
      vertex   -2.504361e+01 6.310282e-01 9.174800e+00
      vertex   -2.504361e+01 6.310282e-01 9.574800e+00
      vertex   -2.491800e+01 6.275850e-01 9.574800e+00
    endloop
  endfacet
  facet normal 2.740197e-02 9.996245e-01 0.000000e+00
    outer loop
      vertex   -2.504361e+01 6.310282e-01 9.174800e+00
      vertex   -2.491800e+01 6.275850e-01 9.574800e+00
      vertex   -2.491800e+01 6.275850e-01 9.174800e+00
    endloop
  endfacet
  facet normal 1.873611e-03 9.999982e-01 -0.000000e+00
    outer loop
      vertex   -2.491800e+01 6.275850e-01 9.174800e+00
      vertex   -2.491800e+01 6.275850e-01 9.574800e+00
      vertex   -2.466612e+01 6.271130e-01 9.574800e+00
    endloop
  endfacet
  facet normal 1.873611e-03 9.999982e-01 0.000000e+00
    outer loop
      vertex   -2.491800e+01 6.275850e-01 9.174800e+00
      vertex   -2.466612e+01 6.271130e-01 9.574800e+00
      vertex   -2.466612e+01 6.271130e-01 9.174800e+00
    endloop
  endfacet
  facet normal 7.653746e-01 6.435850e-01 0.000000e+00
    outer loop
      vertex   -2.609859e+01 1.040483e+00 9.574800e+00
      vertex   -2.600900e+01 9.339424e-01 9.574800e+00
      vertex   -2.609859e+01 1.040483e+00 9.174800e+00
    endloop
  endfacet
  facet normal 7.653746e-01 6.435850e-01 0.000000e+00
    outer loop
      vertex   -2.609859e+01 1.040483e+00 9.174800e+00
      vertex   -2.600900e+01 9.339424e-01 9.574800e+00
      vertex   -2.600900e+01 9.339424e-01 9.174800e+00
    endloop
  endfacet
  facet normal 7.142657e-01 6.998746e-01 -0.000000e+00
    outer loop
      vertex   -2.600900e+01 9.339424e-01 9.174800e+00
      vertex   -2.600900e+01 9.339424e-01 9.574800e+00
      vertex   -2.596100e+01 8.849543e-01 9.574800e+00
    endloop
  endfacet
  facet normal 7.142657e-01 6.998746e-01 0.000000e+00
    outer loop
      vertex   -2.600900e+01 9.339424e-01 9.174800e+00
      vertex   -2.596100e+01 8.849543e-01 9.574800e+00
      vertex   -2.596100e+01 8.849543e-01 9.174800e+00
    endloop
  endfacet
  facet normal 6.457395e-01 7.635578e-01 -0.000000e+00
    outer loop
      vertex   -2.596100e+01 8.849543e-01 9.174800e+00
      vertex   -2.596100e+01 8.849543e-01 9.574800e+00
      vertex   -2.590915e+01 8.411052e-01 9.574800e+00
    endloop
  endfacet
  facet normal 6.457395e-01 7.635578e-01 0.000000e+00
    outer loop
      vertex   -2.596100e+01 8.849543e-01 9.174800e+00
      vertex   -2.590915e+01 8.411052e-01 9.574800e+00
      vertex   -2.590915e+01 8.411052e-01 9.174800e+00
    endloop
  endfacet
  facet normal 5.529500e-01 8.332144e-01 -0.000000e+00
    outer loop
      vertex   -2.590915e+01 8.411052e-01 9.174800e+00
      vertex   -2.590915e+01 8.411052e-01 9.574800e+00
      vertex   -2.585258e+01 8.035618e-01 9.574800e+00
    endloop
  endfacet
  facet normal 5.529500e-01 8.332144e-01 0.000000e+00
    outer loop
      vertex   -2.590915e+01 8.411052e-01 9.174800e+00
      vertex   -2.585258e+01 8.035618e-01 9.574800e+00
      vertex   -2.585258e+01 8.035618e-01 9.174800e+00
    endloop
  endfacet
  facet normal 4.719694e-01 8.816149e-01 -0.000000e+00
    outer loop
      vertex   -2.585258e+01 8.035618e-01 9.174800e+00
      vertex   -2.585258e+01 8.035618e-01 9.574800e+00
      vertex   -2.579212e+01 7.711989e-01 9.574800e+00
    endloop
  endfacet
  facet normal 4.719694e-01 8.816149e-01 0.000000e+00
    outer loop
      vertex   -2.585258e+01 8.035618e-01 9.174800e+00
      vertex   -2.579212e+01 7.711989e-01 9.574800e+00
      vertex   -2.579212e+01 7.711989e-01 9.174800e+00
    endloop
  endfacet
  facet normal 4.030300e-01 9.151868e-01 -0.000000e+00
    outer loop
      vertex   -2.579212e+01 7.711989e-01 9.174800e+00
      vertex   -2.579212e+01 7.711989e-01 9.574800e+00
      vertex   -2.566475e+01 7.151074e-01 9.574800e+00
    endloop
  endfacet
  facet normal 4.030300e-01 9.151868e-01 0.000000e+00
    outer loop
      vertex   -2.579212e+01 7.711989e-01 9.174800e+00
      vertex   -2.566475e+01 7.151074e-01 9.574800e+00
      vertex   -2.566475e+01 7.151074e-01 9.174800e+00
    endloop
  endfacet
  facet normal 9.962955e-01 8.599572e-02 0.000000e+00
    outer loop
      vertex   -2.626230e+01 1.576635e+00 9.574800e+00
      vertex   -2.624997e+01 1.433818e+00 9.574800e+00
      vertex   -2.626230e+01 1.576635e+00 9.174800e+00
    endloop
  endfacet
  facet normal 9.962955e-01 8.599572e-02 0.000000e+00
    outer loop
      vertex   -2.626230e+01 1.576635e+00 9.174800e+00
      vertex   -2.624997e+01 1.433818e+00 9.574800e+00
      vertex   -2.624997e+01 1.433818e+00 9.174800e+00
    endloop
  endfacet
  facet normal 9.878389e-01 1.554807e-01 -0.000000e+00
    outer loop
      vertex   -2.624997e+01 1.433818e+00 9.174800e+00
      vertex   -2.624997e+01 1.433818e+00 9.574800e+00
      vertex   -2.623896e+01 1.363896e+00 9.574800e+00
    endloop
  endfacet
  facet normal 9.878389e-01 1.554807e-01 0.000000e+00
    outer loop
      vertex   -2.624997e+01 1.433818e+00 9.174800e+00
      vertex   -2.623896e+01 1.363896e+00 9.574800e+00
      vertex   -2.623896e+01 1.363896e+00 9.174800e+00
    endloop
  endfacet
  facet normal 9.708729e-01 2.395950e-01 -0.000000e+00
    outer loop
      vertex   -2.623896e+01 1.363896e+00 9.174800e+00
      vertex   -2.623896e+01 1.363896e+00 9.574800e+00
      vertex   -2.622215e+01 1.295757e+00 9.574800e+00
    endloop
  endfacet
  facet normal 9.708729e-01 2.395950e-01 0.000000e+00
    outer loop
      vertex   -2.623896e+01 1.363896e+00 9.174800e+00
      vertex   -2.622215e+01 1.295757e+00 9.574800e+00
      vertex   -2.622215e+01 1.295757e+00 9.174800e+00
    endloop
  endfacet
  facet normal 9.397741e-01 3.417962e-01 -0.000000e+00
    outer loop
      vertex   -2.622215e+01 1.295757e+00 9.174800e+00
      vertex   -2.622215e+01 1.295757e+00 9.574800e+00
      vertex   -2.619817e+01 1.229818e+00 9.574800e+00
    endloop
  endfacet
  facet normal 9.397741e-01 3.417962e-01 0.000000e+00
    outer loop
      vertex   -2.622215e+01 1.295757e+00 9.174800e+00
      vertex   -2.619817e+01 1.229818e+00 9.574800e+00
      vertex   -2.619817e+01 1.229818e+00 9.174800e+00
    endloop
  endfacet
  facet normal 9.062902e-01 4.226559e-01 -0.000000e+00
    outer loop
      vertex   -2.619817e+01 1.229818e+00 9.174800e+00
      vertex   -2.619817e+01 1.229818e+00 9.574800e+00
      vertex   -2.616826e+01 1.165697e+00 9.574800e+00
    endloop
  endfacet
  facet normal 9.062902e-01 4.226559e-01 0.000000e+00
    outer loop
      vertex   -2.619817e+01 1.229818e+00 9.174800e+00
      vertex   -2.616826e+01 1.165697e+00 9.574800e+00
      vertex   -2.616826e+01 1.165697e+00 9.174800e+00
    endloop
  endfacet
  facet normal 8.738214e-01 4.862470e-01 -0.000000e+00
    outer loop
      vertex   -2.616826e+01 1.165697e+00 9.174800e+00
      vertex   -2.616826e+01 1.165697e+00 9.574800e+00
      vertex   -2.609859e+01 1.040483e+00 9.574800e+00
    endloop
  endfacet
  facet normal 8.738214e-01 4.862470e-01 0.000000e+00
    outer loop
      vertex   -2.616826e+01 1.165697e+00 9.174800e+00
      vertex   -2.609859e+01 1.040483e+00 9.574800e+00
      vertex   -2.609859e+01 1.040483e+00 9.174800e+00
    endloop
  endfacet
  facet normal 8.811550e-01 -4.728276e-01 0.000000e+00
    outer loop
      vertex   -2.614770e+01 1.975680e+00 9.574800e+00
      vertex   -2.619784e+01 1.882233e+00 9.574800e+00
      vertex   -2.614770e+01 1.975680e+00 9.174800e+00
    endloop
  endfacet
  facet normal 8.811550e-01 -4.728276e-01 0.000000e+00
    outer loop
      vertex   -2.614770e+01 1.975680e+00 9.174800e+00
      vertex   -2.619784e+01 1.882233e+00 9.574800e+00
      vertex   -2.619784e+01 1.882233e+00 9.174800e+00
    endloop
  endfacet
  facet normal 9.135288e-01 -4.067741e-01 0.000000e+00
    outer loop
      vertex   -2.619784e+01 1.882233e+00 9.174800e+00
      vertex   -2.619784e+01 1.882233e+00 9.574800e+00
      vertex   -2.621914e+01 1.834401e+00 9.574800e+00
    endloop
  endfacet
  facet normal 9.135288e-01 -4.067741e-01 0.000000e+00
    outer loop
      vertex   -2.619784e+01 1.882233e+00 9.174800e+00
      vertex   -2.621914e+01 1.834401e+00 9.574800e+00
      vertex   -2.621914e+01 1.834401e+00 9.174800e+00
    endloop
  endfacet
  facet normal 9.464350e-01 -3.228944e-01 0.000000e+00
    outer loop
      vertex   -2.621914e+01 1.834401e+00 9.174800e+00
      vertex   -2.621914e+01 1.834401e+00 9.574800e+00
      vertex   -2.623591e+01 1.785240e+00 9.574800e+00
    endloop
  endfacet
  facet normal 9.464350e-01 -3.228944e-01 0.000000e+00
    outer loop
      vertex   -2.621914e+01 1.834401e+00 9.174800e+00
      vertex   -2.623591e+01 1.785240e+00 9.574800e+00
      vertex   -2.623591e+01 1.785240e+00 9.174800e+00
    endloop
  endfacet
  facet normal 9.753237e-01 -2.207796e-01 0.000000e+00
    outer loop
      vertex   -2.623591e+01 1.785240e+00 9.174800e+00
      vertex   -2.623591e+01 1.785240e+00 9.574800e+00
      vertex   -2.624739e+01 1.734524e+00 9.574800e+00
    endloop
  endfacet
  facet normal 9.753237e-01 -2.207796e-01 0.000000e+00
    outer loop
      vertex   -2.623591e+01 1.785240e+00 9.174800e+00
      vertex   -2.624739e+01 1.734524e+00 9.574800e+00
      vertex   -2.624739e+01 1.734524e+00 9.174800e+00
    endloop
  endfacet
  facet normal 9.902866e-01 -1.390410e-01 0.000000e+00
    outer loop
      vertex   -2.624739e+01 1.734524e+00 9.174800e+00
      vertex   -2.624739e+01 1.734524e+00 9.574800e+00
      vertex   -2.625469e+01 1.682578e+00 9.574800e+00
    endloop
  endfacet
  facet normal 9.902866e-01 -1.390410e-01 0.000000e+00
    outer loop
      vertex   -2.624739e+01 1.734524e+00 9.174800e+00
      vertex   -2.625469e+01 1.682578e+00 9.574800e+00
      vertex   -2.625469e+01 1.682578e+00 9.174800e+00
    endloop
  endfacet
  facet normal 9.974309e-01 -7.163578e-02 0.000000e+00
    outer loop
      vertex   -2.625469e+01 1.682578e+00 9.174800e+00
      vertex   -2.625469e+01 1.682578e+00 9.574800e+00
      vertex   -2.626230e+01 1.576635e+00 9.574800e+00
    endloop
  endfacet
  facet normal 9.974309e-01 -7.163578e-02 0.000000e+00
    outer loop
      vertex   -2.625469e+01 1.682578e+00 9.174800e+00
      vertex   -2.626230e+01 1.576635e+00 9.574800e+00
      vertex   -2.626230e+01 1.576635e+00 9.174800e+00
    endloop
  endfacet
  facet normal 4.116007e-01 -9.113643e-01 0.000000e+00
    outer loop
      vertex   -2.582642e+01 2.215107e+00 9.574800e+00
      vertex   -2.591996e+01 2.172860e+00 9.574800e+00
      vertex   -2.582642e+01 2.215107e+00 9.174800e+00
    endloop
  endfacet
  facet normal 4.116007e-01 -9.113643e-01 0.000000e+00
    outer loop
      vertex   -2.582642e+01 2.215107e+00 9.174800e+00
      vertex   -2.591996e+01 2.172860e+00 9.574800e+00
      vertex   -2.591996e+01 2.172860e+00 9.174800e+00
    endloop
  endfacet
  facet normal 4.754133e-01 -8.797626e-01 0.000000e+00
    outer loop
      vertex   -2.591996e+01 2.172860e+00 9.174800e+00
      vertex   -2.591996e+01 2.172860e+00 9.574800e+00
      vertex   -2.596452e+01 2.148783e+00 9.574800e+00
    endloop
  endfacet
  facet normal 4.754133e-01 -8.797626e-01 0.000000e+00
    outer loop
      vertex   -2.591996e+01 2.172860e+00 9.174800e+00
      vertex   -2.596452e+01 2.148783e+00 9.574800e+00
      vertex   -2.596452e+01 2.148783e+00 9.174800e+00
    endloop
  endfacet
  facet normal 5.504349e-01 -8.348781e-01 0.000000e+00
    outer loop
      vertex   -2.596452e+01 2.148783e+00 9.174800e+00
      vertex   -2.596452e+01 2.148783e+00 9.574800e+00
      vertex   -2.600641e+01 2.121162e+00 9.574800e+00
    endloop
  endfacet
  facet normal 5.504349e-01 -8.348781e-01 0.000000e+00
    outer loop
      vertex   -2.596452e+01 2.148783e+00 9.174800e+00
      vertex   -2.600641e+01 2.121162e+00 9.574800e+00
      vertex   -2.600641e+01 2.121162e+00 9.174800e+00
    endloop
  endfacet
  facet normal 6.390006e-01 -7.692062e-01 0.000000e+00
    outer loop
      vertex   -2.600641e+01 2.121162e+00 9.174800e+00
      vertex   -2.600641e+01 2.121162e+00 9.574800e+00
      vertex   -2.604498e+01 2.089119e+00 9.574800e+00
    endloop
  endfacet
  facet normal 6.390006e-01 -7.692062e-01 0.000000e+00
    outer loop
      vertex   -2.600641e+01 2.121162e+00 9.174800e+00
      vertex   -2.604498e+01 2.089119e+00 9.574800e+00
      vertex   -2.604498e+01 2.089119e+00 9.174800e+00
    endloop
  endfacet
  facet normal 7.067657e-01 -7.074477e-01 0.000000e+00
    outer loop
      vertex   -2.604498e+01 2.089119e+00 9.174800e+00
      vertex   -2.604498e+01 2.089119e+00 9.574800e+00
      vertex   -2.608077e+01 2.053367e+00 9.574800e+00
    endloop
  endfacet
  facet normal 7.067657e-01 -7.074477e-01 0.000000e+00
    outer loop
      vertex   -2.604498e+01 2.089119e+00 9.174800e+00
      vertex   -2.608077e+01 2.053367e+00 9.574800e+00
      vertex   -2.608077e+01 2.053367e+00 9.174800e+00
    endloop
  endfacet
  facet normal 7.576076e-01 -6.527102e-01 0.000000e+00
    outer loop
      vertex   -2.608077e+01 2.053367e+00 9.174800e+00
      vertex   -2.608077e+01 2.053367e+00 9.574800e+00
      vertex   -2.614770e+01 1.975680e+00 9.574800e+00
    endloop
  endfacet
  facet normal 7.576076e-01 -6.527102e-01 0.000000e+00
    outer loop
      vertex   -2.608077e+01 2.053367e+00 9.174800e+00
      vertex   -2.614770e+01 1.975680e+00 9.574800e+00
      vertex   -2.614770e+01 1.975680e+00 9.174800e+00
    endloop
  endfacet
  facet normal -3.762095e-03 -9.999929e-01 -0.000000e+00
    outer loop
      vertex   -2.491578e+01 2.288776e+00 9.574800e+00
      vertex   -2.514534e+01 2.289640e+00 9.574800e+00
      vertex   -2.491578e+01 2.288776e+00 9.174800e+00
    endloop
  endfacet
  facet normal -3.762095e-03 -9.999929e-01 0.000000e+00
    outer loop
      vertex   -2.491578e+01 2.288776e+00 9.174800e+00
      vertex   -2.514534e+01 2.289640e+00 9.574800e+00
      vertex   -2.514534e+01 2.289640e+00 9.174800e+00
    endloop
  endfacet
  facet normal 2.079344e-02 -9.997838e-01 0.000000e+00
    outer loop
      vertex   -2.514534e+01 2.289640e+00 9.174800e+00
      vertex   -2.514534e+01 2.289640e+00 9.574800e+00
      vertex   -2.525985e+01 2.287258e+00 9.574800e+00
    endloop
  endfacet
  facet normal 2.079344e-02 -9.997838e-01 0.000000e+00
    outer loop
      vertex   -2.514534e+01 2.289640e+00 9.174800e+00
      vertex   -2.525985e+01 2.287258e+00 9.574800e+00
      vertex   -2.525985e+01 2.287258e+00 9.174800e+00
    endloop
  endfacet
  facet normal 5.036402e-02 -9.987309e-01 0.000000e+00
    outer loop
      vertex   -2.525985e+01 2.287258e+00 9.174800e+00
      vertex   -2.525985e+01 2.287258e+00 9.574800e+00
      vertex   -2.537402e+01 2.281501e+00 9.574800e+00
    endloop
  endfacet
  facet normal 5.036402e-02 -9.987309e-01 0.000000e+00
    outer loop
      vertex   -2.525985e+01 2.287258e+00 9.174800e+00
      vertex   -2.537402e+01 2.281501e+00 9.574800e+00
      vertex   -2.537402e+01 2.281501e+00 9.174800e+00
    endloop
  endfacet
  facet normal 8.984065e-02 -9.959562e-01 0.000000e+00
    outer loop
      vertex   -2.537402e+01 2.281501e+00 9.174800e+00
      vertex   -2.537402e+01 2.281501e+00 9.574800e+00
      vertex   -2.548775e+01 2.271242e+00 9.574800e+00
    endloop
  endfacet
  facet normal 8.984065e-02 -9.959562e-01 0.000000e+00
    outer loop
      vertex   -2.537402e+01 2.281501e+00 9.174800e+00
      vertex   -2.548775e+01 2.271242e+00 9.574800e+00
      vertex   -2.548775e+01 2.271242e+00 9.174800e+00
    endloop
  endfacet
  facet normal 1.353944e-01 -9.907918e-01 0.000000e+00
    outer loop
      vertex   -2.548775e+01 2.271242e+00 9.174800e+00
      vertex   -2.548775e+01 2.271242e+00 9.574800e+00
      vertex   -2.560096e+01 2.255772e+00 9.574800e+00
    endloop
  endfacet
  facet normal 1.353944e-01 -9.907918e-01 0.000000e+00
    outer loop
      vertex   -2.548775e+01 2.271242e+00 9.174800e+00
      vertex   -2.560096e+01 2.255772e+00 9.574800e+00
      vertex   -2.560096e+01 2.255772e+00 9.174800e+00
    endloop
  endfacet
  facet normal 1.774978e-01 -9.841212e-01 0.000000e+00
    outer loop
      vertex   -2.560096e+01 2.255772e+00 9.174800e+00
      vertex   -2.560096e+01 2.255772e+00 9.574800e+00
      vertex   -2.582642e+01 2.215107e+00 9.574800e+00
    endloop
  endfacet
  facet normal 1.774978e-01 -9.841212e-01 0.000000e+00
    outer loop
      vertex   -2.560096e+01 2.255772e+00 9.174800e+00
      vertex   -2.582642e+01 2.215107e+00 9.574800e+00
      vertex   -2.582642e+01 2.215107e+00 9.174800e+00
    endloop
  endfacet
  facet normal -0.000000e+00 -1.000000e+00 -0.000000e+00
    outer loop
      vertex   -2.269750e+01 2.288776e+00 9.574800e+00
      vertex   -2.491578e+01 2.288776e+00 9.574800e+00
      vertex   -2.269750e+01 2.288776e+00 9.174800e+00
    endloop
  endfacet
  facet normal 0.000000e+00 -1.000000e+00 0.000000e+00
    outer loop
      vertex   -2.269750e+01 2.288776e+00 9.174800e+00
      vertex   -2.491578e+01 2.288776e+00 9.574800e+00
      vertex   -2.491578e+01 2.288776e+00 9.174800e+00
    endloop
  endfacet
  facet normal 1.000000e+00 0.000000e+00 0.000000e+00
    outer loop
      vertex   -2.269750e+01 3.438845e+00 9.574800e+00
      vertex   -2.269750e+01 2.288776e+00 9.574800e+00
      vertex   -2.269750e+01 3.438845e+00 9.174800e+00
    endloop
  endfacet
  facet normal 1.000000e+00 0.000000e+00 0.000000e+00
    outer loop
      vertex   -2.269750e+01 3.438845e+00 9.174800e+00
      vertex   -2.269750e+01 2.288776e+00 9.574800e+00
      vertex   -2.269750e+01 2.288776e+00 9.174800e+00
    endloop
  endfacet
  facet normal -0.000000e+00 1.000000e+00 0.000000e+00
    outer loop
      vertex   -2.539872e+01 3.438845e+00 9.574800e+00
      vertex   -2.269750e+01 3.438845e+00 9.574800e+00
      vertex   -2.539872e+01 3.438845e+00 9.174800e+00
    endloop
  endfacet
  facet normal 0.000000e+00 1.000000e+00 0.000000e+00
    outer loop
      vertex   -2.539872e+01 3.438845e+00 9.174800e+00
      vertex   -2.269750e+01 3.438845e+00 9.574800e+00
      vertex   -2.269750e+01 3.438845e+00 9.174800e+00
    endloop
  endfacet
  facet normal 0.000000e+00 -0.000000e+00 1.000000e+00
    outer loop
      vertex   -2.269750e+01 2.288776e+00 9.574800e+00
      vertex   -2.269750e+01 3.438845e+00 9.574800e+00
      vertex   -2.491578e+01 2.288776e+00 9.574800e+00
    endloop
  endfacet
  facet normal 0.000000e+00 -0.000000e+00 1.000000e+00
    outer loop
      vertex   -2.491578e+01 2.288776e+00 9.574800e+00
      vertex   -2.269750e+01 3.438845e+00 9.574800e+00
      vertex   -2.539872e+01 3.438845e+00 9.574800e+00
    endloop
  endfacet
  facet normal 0.000000e+00 0.000000e+00 1.000000e+00
    outer loop
      vertex   -2.491578e+01 2.288776e+00 9.574800e+00
      vertex   -2.539872e+01 3.438845e+00 9.574800e+00
      vertex   -2.514534e+01 2.289640e+00 9.574800e+00
    endloop
  endfacet
  facet normal 0.000000e+00 0.000000e+00 1.000000e+00
    outer loop
      vertex   -2.514534e+01 2.289640e+00 9.574800e+00
      vertex   -2.539872e+01 3.438845e+00 9.574800e+00
      vertex   -2.525985e+01 2.287258e+00 9.574800e+00
    endloop
  endfacet
  facet normal 0.000000e+00 0.000000e+00 1.000000e+00
    outer loop
      vertex   -2.525985e+01 2.287258e+00 9.574800e+00
      vertex   -2.539872e+01 3.438845e+00 9.574800e+00
      vertex   -2.537402e+01 2.281501e+00 9.574800e+00
    endloop
  endfacet
  facet normal 0.000000e+00 0.000000e+00 1.000000e+00
    outer loop
      vertex   -2.537402e+01 2.281501e+00 9.574800e+00
      vertex   -2.539872e+01 3.438845e+00 9.574800e+00
      vertex   -2.559335e+01 3.436783e+00 9.574800e+00
    endloop
  endfacet
  facet normal 0.000000e+00 0.000000e+00 1.000000e+00
    outer loop
      vertex   -2.537402e+01 2.281501e+00 9.574800e+00
      vertex   -2.559335e+01 3.436783e+00 9.574800e+00
      vertex   -2.548775e+01 2.271242e+00 9.574800e+00
    endloop
  endfacet
  facet normal -1.549880e-14 -1.404237e-15 1.000000e+00
    outer loop
      vertex   -2.548775e+01 2.271242e+00 9.574800e+00
      vertex   -2.559335e+01 3.436783e+00 9.574800e+00
      vertex   -2.560096e+01 2.255772e+00 9.574800e+00
    endloop
  endfacet
  facet normal 6.912601e-17 -1.504543e-15 1.000000e+00
    outer loop
      vertex   -2.560096e+01 2.255772e+00 9.574800e+00
      vertex   -2.559335e+01 3.436783e+00 9.574800e+00
      vertex   -2.578736e+01 3.427869e+00 9.574800e+00
    endloop
  endfacet
  facet normal 1.413412e-16 -1.493059e-15 1.000000e+00
    outer loop
      vertex   -2.560096e+01 2.255772e+00 9.574800e+00
      vertex   -2.578736e+01 3.427869e+00 9.574800e+00
      vertex   -2.588394e+01 3.418726e+00 9.574800e+00
    endloop
  endfacet
  facet normal 1.926009e-16 -1.480586e-15 1.000000e+00
    outer loop
      vertex   -2.588394e+01 3.418726e+00 9.574800e+00
      vertex   -2.598022e+01 3.406202e+00 9.574800e+00
      vertex   -2.560096e+01 2.255772e+00 9.574800e+00
    endloop
  endfacet
  facet normal 7.699493e-15 9.941918e-16 1.000000e+00
    outer loop
      vertex   -2.560096e+01 2.255772e+00 9.574800e+00
      vertex   -2.598022e+01 3.406202e+00 9.574800e+00
      vertex   -2.582642e+01 2.215107e+00 9.574800e+00
    endloop
  endfacet
  facet normal 0.000000e+00 0.000000e+00 1.000000e+00
    outer loop
      vertex   -2.582642e+01 2.215107e+00 9.574800e+00
      vertex   -2.598022e+01 3.406202e+00 9.574800e+00
      vertex   -2.617226e+01 3.375407e+00 9.574800e+00
    endloop
  endfacet
  facet normal 0.000000e+00 0.000000e+00 1.000000e+00
    outer loop
      vertex   -2.582642e+01 2.215107e+00 9.574800e+00
      vertex   -2.617226e+01 3.375407e+00 9.574800e+00
      vertex   -2.630121e+01 3.336719e+00 9.574800e+00
    endloop
  endfacet
  facet normal 0.000000e+00 0.000000e+00 1.000000e+00
    outer loop
      vertex   -2.630121e+01 3.336719e+00 9.574800e+00
      vertex   -2.636430e+01 3.314398e+00 9.574800e+00
      vertex   -2.582642e+01 2.215107e+00 9.574800e+00
    endloop
  endfacet
  facet normal 0.000000e+00 0.000000e+00 1.000000e+00
    outer loop
      vertex   -2.582642e+01 2.215107e+00 9.574800e+00
      vertex   -2.636430e+01 3.314398e+00 9.574800e+00
      vertex   -2.642572e+01 3.288505e+00 9.574800e+00
    endloop
  endfacet
  facet normal 0.000000e+00 0.000000e+00 1.000000e+00
    outer loop
      vertex   -2.582642e+01 2.215107e+00 9.574800e+00
      vertex   -2.642572e+01 3.288505e+00 9.574800e+00
      vertex   -2.648507e+01 3.258204e+00 9.574800e+00
    endloop
  endfacet
  facet normal 0.000000e+00 0.000000e+00 1.000000e+00
    outer loop
      vertex   -2.648507e+01 3.258204e+00 9.574800e+00
      vertex   -2.654273e+01 3.224262e+00 9.574800e+00
      vertex   -2.582642e+01 2.215107e+00 9.574800e+00
    endloop
  endfacet
  facet normal 0.000000e+00 0.000000e+00 1.000000e+00
    outer loop
      vertex   -2.582642e+01 2.215107e+00 9.574800e+00
      vertex   -2.654273e+01 3.224262e+00 9.574800e+00
      vertex   -2.591996e+01 2.172860e+00 9.574800e+00
    endloop
  endfacet
  facet normal 0.000000e+00 0.000000e+00 1.000000e+00
    outer loop
      vertex   -2.591996e+01 2.172860e+00 9.574800e+00
      vertex   -2.654273e+01 3.224262e+00 9.574800e+00
      vertex   -2.665520e+01 3.150306e+00 9.574800e+00
    endloop
  endfacet
  facet normal 0.000000e+00 0.000000e+00 1.000000e+00
    outer loop
      vertex   -2.591996e+01 2.172860e+00 9.574800e+00
      vertex   -2.665520e+01 3.150306e+00 9.574800e+00
      vertex   -2.676405e+01 3.047066e+00 9.574800e+00
    endloop
  endfacet
  facet normal 0.000000e+00 0.000000e+00 1.000000e+00
    outer loop
      vertex   -2.591996e+01 2.172860e+00 9.574800e+00
      vertex   -2.676405e+01 3.047066e+00 9.574800e+00
      vertex   -2.596452e+01 2.148783e+00 9.574800e+00
    endloop
  endfacet
  facet normal -1.792722e-14 -1.595653e-14 1.000000e+00
    outer loop
      vertex   -2.596452e+01 2.148783e+00 9.574800e+00
      vertex   -2.676405e+01 3.047066e+00 9.574800e+00
      vertex   -2.681465e+01 2.992585e+00 9.574800e+00
    endloop
  endfacet
  facet normal 1.585482e-14 1.807895e-14 1.000000e+00
    outer loop
      vertex   -2.596452e+01 2.148783e+00 9.574800e+00
      vertex   -2.681465e+01 2.992585e+00 9.574800e+00
      vertex   -2.686065e+01 2.934675e+00 9.574800e+00
    endloop
  endfacet
  facet normal 0.000000e+00 0.000000e+00 1.000000e+00
    outer loop
      vertex   -2.686065e+01 2.934675e+00 9.574800e+00
      vertex   -2.690148e+01 2.872894e+00 9.574800e+00
      vertex   -2.596452e+01 2.148783e+00 9.574800e+00
    endloop
  endfacet
  facet normal 0.000000e+00 0.000000e+00 1.000000e+00
    outer loop
      vertex   -2.596452e+01 2.148783e+00 9.574800e+00
      vertex   -2.690148e+01 2.872894e+00 9.574800e+00
      vertex   -2.693827e+01 2.808101e+00 9.574800e+00
    endloop
  endfacet
  facet normal 0.000000e+00 0.000000e+00 1.000000e+00
    outer loop
      vertex   -2.596452e+01 2.148783e+00 9.574800e+00
      vertex   -2.693827e+01 2.808101e+00 9.574800e+00
      vertex   -2.600641e+01 2.121162e+00 9.574800e+00
    endloop
  endfacet
  facet normal 0.000000e+00 0.000000e+00 1.000000e+00
    outer loop
      vertex   -2.600641e+01 2.121162e+00 9.574800e+00
      vertex   -2.693827e+01 2.808101e+00 9.574800e+00
      vertex   -2.700514e+01 2.673498e+00 9.574800e+00
    endloop
  endfacet
  facet normal -1.840556e-14 -3.328066e-14 1.000000e+00
    outer loop
      vertex   -2.600641e+01 2.121162e+00 9.574800e+00
      vertex   -2.700514e+01 2.673498e+00 9.574800e+00
      vertex   -2.604498e+01 2.089119e+00 9.574800e+00
    endloop
  endfacet
  facet normal 1.524520e-15 -5.349011e-16 1.000000e+00
    outer loop
      vertex   -2.604498e+01 2.089119e+00 9.574800e+00
      vertex   -2.700514e+01 2.673498e+00 9.574800e+00
      vertex   -2.706441e+01 2.504552e+00 9.574800e+00
    endloop
  endfacet
  facet normal 1.561889e-14 3.405122e-14 1.000000e+00
    outer loop
      vertex   -2.604498e+01 2.089119e+00 9.574800e+00
      vertex   -2.706441e+01 2.504552e+00 9.574800e+00
      vertex   -2.608077e+01 2.053367e+00 9.574800e+00
    endloop
  endfacet
  facet normal 0.000000e+00 0.000000e+00 1.000000e+00
    outer loop
      vertex   -2.608077e+01 2.053367e+00 9.574800e+00
      vertex   -2.706441e+01 2.504552e+00 9.574800e+00
      vertex   -2.708971e+01 2.419211e+00 9.574800e+00
    endloop
  endfacet
  facet normal 0.000000e+00 0.000000e+00 1.000000e+00
    outer loop
      vertex   -2.608077e+01 2.053367e+00 9.574800e+00
      vertex   -2.708971e+01 2.419211e+00 9.574800e+00
      vertex   -2.614770e+01 1.975680e+00 9.574800e+00
    endloop
  endfacet
  facet normal 0.000000e+00 0.000000e+00 1.000000e+00
    outer loop
      vertex   -2.614770e+01 1.975680e+00 9.574800e+00
      vertex   -2.708971e+01 2.419211e+00 9.574800e+00
      vertex   -2.710978e+01 2.332827e+00 9.574800e+00
    endloop
  endfacet
  facet normal -7.107650e-15 -1.914661e-14 1.000000e+00
    outer loop
      vertex   -2.614770e+01 1.975680e+00 9.574800e+00
      vertex   -2.710978e+01 2.332827e+00 9.574800e+00
      vertex   -2.712367e+01 2.245206e+00 9.574800e+00
    endloop
  endfacet
  facet normal 3.615337e-15 1.968206e-14 1.000000e+00
    outer loop
      vertex   -2.712367e+01 2.245206e+00 9.574800e+00
      vertex   -2.713261e+01 2.156595e+00 9.574800e+00
      vertex   -2.614770e+01 1.975680e+00 9.574800e+00
    endloop
  endfacet
  facet normal 0.000000e+00 0.000000e+00 1.000000e+00
    outer loop
      vertex   -2.614770e+01 1.975680e+00 9.574800e+00
      vertex   -2.713261e+01 2.156595e+00 9.574800e+00
      vertex   -2.619784e+01 1.882233e+00 9.574800e+00
    endloop
  endfacet
  facet normal 0.000000e+00 0.000000e+00 1.000000e+00
    outer loop
      vertex   -2.619784e+01 1.882233e+00 9.574800e+00
      vertex   -2.713261e+01 2.156595e+00 9.574800e+00
      vertex   -2.714224e+01 1.977726e+00 9.574800e+00
    endloop
  endfacet
  facet normal 0.000000e+00 0.000000e+00 1.000000e+00
    outer loop
      vertex   -2.619784e+01 1.882233e+00 9.574800e+00
      vertex   -2.714224e+01 1.977726e+00 9.574800e+00
      vertex   -2.621914e+01 1.834401e+00 9.574800e+00
    endloop
  endfacet
  facet normal 0.000000e+00 0.000000e+00 1.000000e+00
    outer loop
      vertex   -2.621914e+01 1.834401e+00 9.574800e+00
      vertex   -2.714224e+01 1.977726e+00 9.574800e+00
      vertex   -2.623591e+01 1.785240e+00 9.574800e+00
    endloop
  endfacet
  facet normal 0.000000e+00 0.000000e+00 1.000000e+00
    outer loop
      vertex   -2.623591e+01 1.785240e+00 9.574800e+00
      vertex   -2.714224e+01 1.977726e+00 9.574800e+00
      vertex   -2.711530e+01 1.765606e+00 9.574800e+00
    endloop
  endfacet
  facet normal 0.000000e+00 0.000000e+00 1.000000e+00
    outer loop
      vertex   -2.623591e+01 1.785240e+00 9.574800e+00
      vertex   -2.711530e+01 1.765606e+00 9.574800e+00
      vertex   -2.624739e+01 1.734524e+00 9.574800e+00
    endloop
  endfacet
  facet normal 0.000000e+00 0.000000e+00 1.000000e+00
    outer loop
      vertex   -2.624739e+01 1.734524e+00 9.574800e+00
      vertex   -2.711530e+01 1.765606e+00 9.574800e+00
      vertex   -2.709919e+01 1.660885e+00 9.574800e+00
    endloop
  endfacet
  facet normal 0.000000e+00 0.000000e+00 1.000000e+00
    outer loop
      vertex   -2.624739e+01 1.734524e+00 9.574800e+00
      vertex   -2.709919e+01 1.660885e+00 9.574800e+00
      vertex   -2.625469e+01 1.682578e+00 9.574800e+00
    endloop
  endfacet
  facet normal 0.000000e+00 0.000000e+00 1.000000e+00
    outer loop
      vertex   -2.625469e+01 1.682578e+00 9.574800e+00
      vertex   -2.709919e+01 1.660885e+00 9.574800e+00
      vertex   -2.707991e+01 1.557772e+00 9.574800e+00
    endloop
  endfacet
  facet normal 0.000000e+00 0.000000e+00 1.000000e+00
    outer loop
      vertex   -2.625469e+01 1.682578e+00 9.574800e+00
      vertex   -2.707991e+01 1.557772e+00 9.574800e+00
      vertex   -2.626230e+01 1.576635e+00 9.574800e+00
    endloop
  endfacet
  facet normal 0.000000e+00 0.000000e+00 1.000000e+00
    outer loop
      vertex   -2.626230e+01 1.576635e+00 9.574800e+00
      vertex   -2.707991e+01 1.557772e+00 9.574800e+00
      vertex   -2.705642e+01 1.456801e+00 9.574800e+00
    endloop
  endfacet
  facet normal 0.000000e+00 0.000000e+00 1.000000e+00
    outer loop
      vertex   -2.626230e+01 1.576635e+00 9.574800e+00
      vertex   -2.705642e+01 1.456801e+00 9.574800e+00
      vertex   -2.702764e+01 1.358508e+00 9.574800e+00
    endloop
  endfacet
  facet normal 0.000000e+00 0.000000e+00 1.000000e+00
    outer loop
      vertex   -2.626230e+01 1.576635e+00 9.574800e+00
      vertex   -2.702764e+01 1.358508e+00 9.574800e+00
      vertex   -2.624997e+01 1.433818e+00 9.574800e+00
    endloop
  endfacet
  facet normal 0.000000e+00 0.000000e+00 1.000000e+00
    outer loop
      vertex   -2.624997e+01 1.433818e+00 9.574800e+00
      vertex   -2.702764e+01 1.358508e+00 9.574800e+00
      vertex   -2.699253e+01 1.263429e+00 9.574800e+00
    endloop
  endfacet
  facet normal 0.000000e+00 0.000000e+00 1.000000e+00
    outer loop
      vertex   -2.624997e+01 1.433818e+00 9.574800e+00
      vertex   -2.699253e+01 1.263429e+00 9.574800e+00
      vertex   -2.623896e+01 1.363896e+00 9.574800e+00
    endloop
  endfacet
  facet normal 0.000000e+00 0.000000e+00 1.000000e+00
    outer loop
      vertex   -2.623896e+01 1.363896e+00 9.574800e+00
      vertex   -2.699253e+01 1.263429e+00 9.574800e+00
      vertex   -2.695004e+01 1.172099e+00 9.574800e+00
    endloop
  endfacet
  facet normal 0.000000e+00 0.000000e+00 1.000000e+00
    outer loop
      vertex   -2.623896e+01 1.363896e+00 9.574800e+00
      vertex   -2.695004e+01 1.172099e+00 9.574800e+00
      vertex   -2.689965e+01 1.084772e+00 9.574800e+00
    endloop
  endfacet
  facet normal 0.000000e+00 0.000000e+00 1.000000e+00
    outer loop
      vertex   -2.623896e+01 1.363896e+00 9.574800e+00
      vertex   -2.689965e+01 1.084772e+00 9.574800e+00
      vertex   -2.622215e+01 1.295757e+00 9.574800e+00
    endloop
  endfacet
  facet normal 0.000000e+00 0.000000e+00 1.000000e+00
    outer loop
      vertex   -2.622215e+01 1.295757e+00 9.574800e+00
      vertex   -2.689965e+01 1.084772e+00 9.574800e+00
      vertex   -2.684220e+01 1.001034e+00 9.574800e+00
    endloop
  endfacet
  facet normal 0.000000e+00 0.000000e+00 1.000000e+00
    outer loop
      vertex   -2.622215e+01 1.295757e+00 9.574800e+00
      vertex   -2.684220e+01 1.001034e+00 9.574800e+00
      vertex   -2.619817e+01 1.229818e+00 9.574800e+00
    endloop
  endfacet
  facet normal 0.000000e+00 0.000000e+00 1.000000e+00
    outer loop
      vertex   -2.619817e+01 1.229818e+00 9.574800e+00
      vertex   -2.684220e+01 1.001034e+00 9.574800e+00
      vertex   -2.677868e+01 9.203715e-01 9.574800e+00
    endloop
  endfacet
  facet normal 0.000000e+00 0.000000e+00 1.000000e+00
    outer loop
      vertex   -2.619817e+01 1.229818e+00 9.574800e+00
      vertex   -2.677868e+01 9.203715e-01 9.574800e+00
      vertex   -2.616826e+01 1.165697e+00 9.574800e+00
    endloop
  endfacet
  facet normal 0.000000e+00 0.000000e+00 1.000000e+00
    outer loop
      vertex   -2.616826e+01 1.165697e+00 9.574800e+00
      vertex   -2.677868e+01 9.203715e-01 9.574800e+00
      vertex   -2.671012e+01 8.422727e-01 9.574800e+00
    endloop
  endfacet
  facet normal 0.000000e+00 0.000000e+00 1.000000e+00
    outer loop
      vertex   -2.616826e+01 1.165697e+00 9.574800e+00
      vertex   -2.671012e+01 8.422727e-01 9.574800e+00
      vertex   -2.663751e+01 7.662247e-01 9.574800e+00
    endloop
  endfacet
  facet normal 0.000000e+00 0.000000e+00 1.000000e+00
    outer loop
      vertex   -2.616826e+01 1.165697e+00 9.574800e+00
      vertex   -2.663751e+01 7.662247e-01 9.574800e+00
      vertex   -2.609859e+01 1.040483e+00 9.574800e+00
    endloop
  endfacet
  facet normal 0.000000e+00 0.000000e+00 1.000000e+00
    outer loop
      vertex   -2.609859e+01 1.040483e+00 9.574800e+00
      vertex   -2.663751e+01 7.662247e-01 9.574800e+00
      vertex   -2.656187e+01 6.917147e-01 9.574800e+00
    endloop
  endfacet
  facet normal 0.000000e+00 0.000000e+00 1.000000e+00
    outer loop
      vertex   -2.609859e+01 1.040483e+00 9.574800e+00
      vertex   -2.656187e+01 6.917147e-01 9.574800e+00
      vertex   -2.600900e+01 9.339424e-01 9.574800e+00
    endloop
  endfacet
  facet normal 0.000000e+00 0.000000e+00 1.000000e+00
    outer loop
      vertex   -2.600900e+01 9.339424e-01 9.574800e+00
      vertex   -2.656187e+01 6.917147e-01 9.574800e+00
      vertex   -2.640554e+01 5.452580e-01 9.574800e+00
    endloop
  endfacet
  facet normal 0.000000e+00 0.000000e+00 1.000000e+00
    outer loop
      vertex   -2.600900e+01 9.339424e-01 9.574800e+00
      vertex   -2.640554e+01 5.452580e-01 9.574800e+00
      vertex   -2.596100e+01 8.849543e-01 9.574800e+00
    endloop
  endfacet
  facet normal 0.000000e+00 0.000000e+00 1.000000e+00
    outer loop
      vertex   -2.596100e+01 8.849543e-01 9.574800e+00
      vertex   -2.640554e+01 5.452580e-01 9.574800e+00
      vertex   -2.590915e+01 8.411052e-01 9.574800e+00
    endloop
  endfacet
  facet normal 0.000000e+00 0.000000e+00 1.000000e+00
    outer loop
      vertex   -2.590915e+01 8.411052e-01 9.574800e+00
      vertex   -2.640554e+01 5.452580e-01 9.574800e+00
      vertex   -2.585258e+01 8.035618e-01 9.574800e+00
    endloop
  endfacet
  facet normal 0.000000e+00 0.000000e+00 1.000000e+00
    outer loop
      vertex   -2.585258e+01 8.035618e-01 9.574800e+00
      vertex   -2.640554e+01 5.452580e-01 9.574800e+00
      vertex   -2.579212e+01 7.711989e-01 9.574800e+00
    endloop
  endfacet
  facet normal 0.000000e+00 0.000000e+00 1.000000e+00
    outer loop
      vertex   -2.579212e+01 7.711989e-01 9.574800e+00
      vertex   -2.640554e+01 5.452580e-01 9.574800e+00
      vertex   -2.566475e+01 7.151074e-01 9.574800e+00
    endloop
  endfacet
  facet normal 0.000000e+00 0.000000e+00 1.000000e+00
    outer loop
      vertex   -2.566475e+01 7.151074e-01 9.574800e+00
      vertex   -2.640554e+01 5.452580e-01 9.574800e+00
      vertex   -2.541760e+01 6.688328e-01 9.574800e+00
    endloop
  endfacet
  facet normal 0.000000e+00 0.000000e+00 1.000000e+00
    outer loop
      vertex   -2.541760e+01 6.688328e-01 9.574800e+00
      vertex   -2.640554e+01 5.452580e-01 9.574800e+00
      vertex   -2.704402e+01 -5.229550e-01 9.574800e+00
    endloop
  endfacet
  facet normal 0.000000e+00 0.000000e+00 1.000000e+00
    outer loop
      vertex   -2.541760e+01 6.688328e-01 9.574800e+00
      vertex   -2.704402e+01 -5.229550e-01 9.574800e+00
      vertex   -2.529350e+01 6.507431e-01 9.574800e+00
    endloop
  endfacet
  facet normal 0.000000e+00 0.000000e+00 1.000000e+00
    outer loop
      vertex   -2.529350e+01 6.507431e-01 9.574800e+00
      vertex   -2.704402e+01 -5.229550e-01 9.574800e+00
      vertex   -2.516882e+01 6.383202e-01 9.574800e+00
    endloop
  endfacet
  facet normal 0.000000e+00 0.000000e+00 1.000000e+00
    outer loop
      vertex   -2.516882e+01 6.383202e-01 9.574800e+00
      vertex   -2.704402e+01 -5.229550e-01 9.574800e+00
      vertex   -2.504361e+01 6.310282e-01 9.574800e+00
    endloop
  endfacet
  facet normal 0.000000e+00 0.000000e+00 1.000000e+00
    outer loop
      vertex   -2.504361e+01 6.310282e-01 9.574800e+00
      vertex   -2.704402e+01 -5.229550e-01 9.574800e+00
      vertex   -2.491800e+01 6.275850e-01 9.574800e+00
    endloop
  endfacet
  facet normal 0.000000e+00 0.000000e+00 1.000000e+00
    outer loop
      vertex   -2.491800e+01 6.275850e-01 9.574800e+00
      vertex   -2.704402e+01 -5.229550e-01 9.574800e+00
      vertex   -2.269750e+01 -5.229550e-01 9.574800e+00
    endloop
  endfacet
  facet normal 0.000000e+00 0.000000e+00 1.000000e+00
    outer loop
      vertex   -2.491800e+01 6.275850e-01 9.574800e+00
      vertex   -2.269750e+01 -5.229550e-01 9.574800e+00
      vertex   -2.466612e+01 6.271130e-01 9.574800e+00
    endloop
  endfacet
  facet normal -0.000000e+00 0.000000e+00 1.000000e+00
    outer loop
      vertex   -2.466612e+01 6.271130e-01 9.574800e+00
      vertex   -2.269750e+01 -5.229550e-01 9.574800e+00
      vertex   -2.269750e+01 6.271130e-01 9.574800e+00
    endloop
  endfacet
  facet normal 0.000000e+00 0.000000e+00 1.000000e+00
    outer loop
      vertex   -2.640554e+01 5.452580e-01 9.574800e+00
      vertex   -2.704402e+01 5.452580e-01 9.574800e+00
      vertex   -2.704402e+01 -5.229550e-01 9.574800e+00
    endloop
  endfacet
  facet normal -0.000000e+00 0.000000e+00 -1.000000e+00
    outer loop
      vertex   -2.269750e+01 3.438845e+00 9.174800e+00
      vertex   -2.491578e+01 2.288776e+00 9.174800e+00
      vertex   -2.539872e+01 3.438845e+00 9.174800e+00
    endloop
  endfacet
  facet normal 0.000000e+00 0.000000e+00 -1.000000e+00
    outer loop
      vertex   -2.539872e+01 3.438845e+00 9.174800e+00
      vertex   -2.491578e+01 2.288776e+00 9.174800e+00
      vertex   -2.514534e+01 2.289640e+00 9.174800e+00
    endloop
  endfacet
  facet normal 0.000000e+00 0.000000e+00 -1.000000e+00
    outer loop
      vertex   -2.539872e+01 3.438845e+00 9.174800e+00
      vertex   -2.514534e+01 2.289640e+00 9.174800e+00
      vertex   -2.525985e+01 2.287258e+00 9.174800e+00
    endloop
  endfacet
  facet normal 0.000000e+00 -0.000000e+00 -1.000000e+00
    outer loop
      vertex   -2.269750e+01 3.438845e+00 9.174800e+00
      vertex   -2.269750e+01 2.288776e+00 9.174800e+00
      vertex   -2.491578e+01 2.288776e+00 9.174800e+00
    endloop
  endfacet
  facet normal -0.000000e+00 0.000000e+00 -1.000000e+00
    outer loop
      vertex   -2.525985e+01 2.287258e+00 9.174800e+00
      vertex   -2.537402e+01 2.281501e+00 9.174800e+00
      vertex   -2.539872e+01 3.438845e+00 9.174800e+00
    endloop
  endfacet
  facet normal 0.000000e+00 -0.000000e+00 -1.000000e+00
    outer loop
      vertex   -2.539872e+01 3.438845e+00 9.174800e+00
      vertex   -2.537402e+01 2.281501e+00 9.174800e+00
      vertex   -2.559335e+01 3.436783e+00 9.174800e+00
    endloop
  endfacet
  facet normal 1.535659e-14 2.915414e-15 -1.000000e+00
    outer loop
      vertex   -2.559335e+01 3.436783e+00 9.174800e+00
      vertex   -2.537402e+01 2.281501e+00 9.174800e+00
      vertex   -2.548775e+01 2.271242e+00 9.174800e+00
    endloop
  endfacet
  facet normal -1.570452e-14 1.011869e-16 -1.000000e+00
    outer loop
      vertex   -2.559335e+01 3.436783e+00 9.174800e+00
      vertex   -2.548775e+01 2.271242e+00 9.174800e+00
      vertex   -2.560096e+01 2.255772e+00 9.174800e+00
    endloop
  endfacet
  facet normal 0.000000e+00 0.000000e+00 -1.000000e+00
    outer loop
      vertex   -2.582642e+01 2.215107e+00 9.174800e+00
      vertex   -2.598022e+01 3.406202e+00 9.174800e+00
      vertex   -2.560096e+01 2.255772e+00 9.174800e+00
    endloop
  endfacet
  facet normal 0.000000e+00 0.000000e+00 -1.000000e+00
    outer loop
      vertex   -2.560096e+01 2.255772e+00 9.174800e+00
      vertex   -2.598022e+01 3.406202e+00 9.174800e+00
      vertex   -2.588394e+01 3.418726e+00 9.174800e+00
    endloop
  endfacet
  facet normal 0.000000e+00 0.000000e+00 -1.000000e+00
    outer loop
      vertex   -2.560096e+01 2.255772e+00 9.174800e+00
      vertex   -2.588394e+01 3.418726e+00 9.174800e+00
      vertex   -2.578736e+01 3.427869e+00 9.174800e+00
    endloop
  endfacet
  facet normal 0.000000e+00 0.000000e+00 -1.000000e+00
    outer loop
      vertex   -2.591996e+01 2.172860e+00 9.174800e+00
      vertex   -2.654273e+01 3.224262e+00 9.174800e+00
      vertex   -2.582642e+01 2.215107e+00 9.174800e+00
    endloop
  endfacet
  facet normal 0.000000e+00 0.000000e+00 -1.000000e+00
    outer loop
      vertex   -2.582642e+01 2.215107e+00 9.174800e+00
      vertex   -2.654273e+01 3.224262e+00 9.174800e+00
      vertex   -2.648507e+01 3.258204e+00 9.174800e+00
    endloop
  endfacet
  facet normal 0.000000e+00 0.000000e+00 -1.000000e+00
    outer loop
      vertex   -2.582642e+01 2.215107e+00 9.174800e+00
      vertex   -2.648507e+01 3.258204e+00 9.174800e+00
      vertex   -2.642572e+01 3.288505e+00 9.174800e+00
    endloop
  endfacet
  facet normal 0.000000e+00 0.000000e+00 -1.000000e+00
    outer loop
      vertex   -2.596452e+01 2.148783e+00 9.174800e+00
      vertex   -2.676405e+01 3.047066e+00 9.174800e+00
      vertex   -2.591996e+01 2.172860e+00 9.174800e+00
    endloop
  endfacet
  facet normal 0.000000e+00 0.000000e+00 -1.000000e+00
    outer loop
      vertex   -2.591996e+01 2.172860e+00 9.174800e+00
      vertex   -2.676405e+01 3.047066e+00 9.174800e+00
      vertex   -2.665520e+01 3.150306e+00 9.174800e+00
    endloop
  endfacet
  facet normal 0.000000e+00 0.000000e+00 -1.000000e+00
    outer loop
      vertex   -2.591996e+01 2.172860e+00 9.174800e+00
      vertex   -2.665520e+01 3.150306e+00 9.174800e+00
      vertex   -2.654273e+01 3.224262e+00 9.174800e+00
    endloop
  endfacet
  facet normal 0.000000e+00 0.000000e+00 -1.000000e+00
    outer loop
      vertex   -2.600641e+01 2.121162e+00 9.174800e+00
      vertex   -2.693827e+01 2.808101e+00 9.174800e+00
      vertex   -2.596452e+01 2.148783e+00 9.174800e+00
    endloop
  endfacet
  facet normal 0.000000e+00 0.000000e+00 -1.000000e+00
    outer loop
      vertex   -2.596452e+01 2.148783e+00 9.174800e+00
      vertex   -2.693827e+01 2.808101e+00 9.174800e+00
      vertex   -2.690148e+01 2.872894e+00 9.174800e+00
    endloop
  endfacet
  facet normal 0.000000e+00 0.000000e+00 -1.000000e+00
    outer loop
      vertex   -2.596452e+01 2.148783e+00 9.174800e+00
      vertex   -2.690148e+01 2.872894e+00 9.174800e+00
      vertex   -2.686065e+01 2.934675e+00 9.174800e+00
    endloop
  endfacet
  facet normal 0.000000e+00 -0.000000e+00 -1.000000e+00
    outer loop
      vertex   -2.693827e+01 2.808101e+00 9.174800e+00
      vertex   -2.600641e+01 2.121162e+00 9.174800e+00
      vertex   -2.700514e+01 2.673498e+00 9.174800e+00
    endloop
  endfacet
  facet normal 0.000000e+00 0.000000e+00 -1.000000e+00
    outer loop
      vertex   -2.700514e+01 2.673498e+00 9.174800e+00
      vertex   -2.600641e+01 2.121162e+00 9.174800e+00
      vertex   -2.604498e+01 2.089119e+00 9.174800e+00
    endloop
  endfacet
  facet normal 0.000000e+00 -0.000000e+00 -1.000000e+00
    outer loop
      vertex   -2.700514e+01 2.673498e+00 9.174800e+00
      vertex   -2.604498e+01 2.089119e+00 9.174800e+00
      vertex   -2.706441e+01 2.504552e+00 9.174800e+00
    endloop
  endfacet
  facet normal 0.000000e+00 0.000000e+00 -1.000000e+00
    outer loop
      vertex   -2.706441e+01 2.504552e+00 9.174800e+00
      vertex   -2.604498e+01 2.089119e+00 9.174800e+00
      vertex   -2.608077e+01 2.053367e+00 9.174800e+00
    endloop
  endfacet
  facet normal -8.404875e-15 -1.832373e-14 -1.000000e+00
    outer loop
      vertex   -2.706441e+01 2.504552e+00 9.174800e+00
      vertex   -2.608077e+01 2.053367e+00 9.174800e+00
      vertex   -2.708971e+01 2.419211e+00 9.174800e+00
    endloop
  endfacet
  facet normal -1.341532e-15 1.155785e-15 -1.000000e+00
    outer loop
      vertex   -2.708971e+01 2.419211e+00 9.174800e+00
      vertex   -2.608077e+01 2.053367e+00 9.174800e+00
      vertex   -2.614770e+01 1.975680e+00 9.174800e+00
    endloop
  endfacet
  facet normal 7.027297e-15 1.893015e-14 -1.000000e+00
    outer loop
      vertex   -2.708971e+01 2.419211e+00 9.174800e+00
      vertex   -2.614770e+01 1.975680e+00 9.174800e+00
      vertex   -2.710978e+01 2.332827e+00 9.174800e+00
    endloop
  endfacet
  facet normal 0.000000e+00 -0.000000e+00 -1.000000e+00
    outer loop
      vertex   -2.710978e+01 2.332827e+00 9.174800e+00
      vertex   -2.614770e+01 1.975680e+00 9.174800e+00
      vertex   -2.712367e+01 2.245206e+00 9.174800e+00
    endloop
  endfacet
  facet normal 0.000000e+00 -0.000000e+00 -1.000000e+00
    outer loop
      vertex   -2.712367e+01 2.245206e+00 9.174800e+00
      vertex   -2.614770e+01 1.975680e+00 9.174800e+00
      vertex   -2.713261e+01 2.156595e+00 9.174800e+00
    endloop
  endfacet
  facet normal 0.000000e+00 0.000000e+00 -1.000000e+00
    outer loop
      vertex   -2.713261e+01 2.156595e+00 9.174800e+00
      vertex   -2.614770e+01 1.975680e+00 9.174800e+00
      vertex   -2.619784e+01 1.882233e+00 9.174800e+00
    endloop
  endfacet
  facet normal 0.000000e+00 -0.000000e+00 -1.000000e+00
    outer loop
      vertex   -2.713261e+01 2.156595e+00 9.174800e+00
      vertex   -2.619784e+01 1.882233e+00 9.174800e+00
      vertex   -2.714224e+01 1.977726e+00 9.174800e+00
    endloop
  endfacet
  facet normal 0.000000e+00 0.000000e+00 -1.000000e+00
    outer loop
      vertex   -2.714224e+01 1.977726e+00 9.174800e+00
      vertex   -2.619784e+01 1.882233e+00 9.174800e+00
      vertex   -2.621914e+01 1.834401e+00 9.174800e+00
    endloop
  endfacet
  facet normal 0.000000e+00 0.000000e+00 -1.000000e+00
    outer loop
      vertex   -2.714224e+01 1.977726e+00 9.174800e+00
      vertex   -2.621914e+01 1.834401e+00 9.174800e+00
      vertex   -2.623591e+01 1.785240e+00 9.174800e+00
    endloop
  endfacet
  facet normal 0.000000e+00 0.000000e+00 -1.000000e+00
    outer loop
      vertex   -2.714224e+01 1.977726e+00 9.174800e+00
      vertex   -2.623591e+01 1.785240e+00 9.174800e+00
      vertex   -2.711530e+01 1.765606e+00 9.174800e+00
    endloop
  endfacet
  facet normal 0.000000e+00 0.000000e+00 -1.000000e+00
    outer loop
      vertex   -2.711530e+01 1.765606e+00 9.174800e+00
      vertex   -2.623591e+01 1.785240e+00 9.174800e+00
      vertex   -2.624739e+01 1.734524e+00 9.174800e+00
    endloop
  endfacet
  facet normal -6.108554e-16 -1.705678e-14 -1.000000e+00
    outer loop
      vertex   -2.711530e+01 1.765606e+00 9.174800e+00
      vertex   -2.624739e+01 1.734524e+00 9.174800e+00
      vertex   -2.709919e+01 1.660885e+00 9.174800e+00
    endloop
  endfacet
  facet normal -2.111051e-15 2.964016e-16 -1.000000e+00
    outer loop
      vertex   -2.709919e+01 1.660885e+00 9.174800e+00
      vertex   -2.624739e+01 1.734524e+00 9.174800e+00
      vertex   -2.625469e+01 1.682578e+00 9.174800e+00
    endloop
  endfacet
  facet normal -2.533774e-15 1.675349e-14 -1.000000e+00
    outer loop
      vertex   -2.709919e+01 1.660885e+00 9.174800e+00
      vertex   -2.625469e+01 1.682578e+00 9.174800e+00
      vertex   -2.707991e+01 1.557772e+00 9.174800e+00
    endloop
  endfacet
  facet normal 0.000000e+00 0.000000e+00 -1.000000e+00
    outer loop
      vertex   -2.707991e+01 1.557772e+00 9.174800e+00
      vertex   -2.625469e+01 1.682578e+00 9.174800e+00
      vertex   -2.626230e+01 1.576635e+00 9.174800e+00
    endloop
  endfacet
  facet normal 0.000000e+00 0.000000e+00 -1.000000e+00
    outer loop
      vertex   -2.707991e+01 1.557772e+00 9.174800e+00
      vertex   -2.626230e+01 1.576635e+00 9.174800e+00
      vertex   -2.705642e+01 1.456801e+00 9.174800e+00
    endloop
  endfacet
  facet normal 0.000000e+00 0.000000e+00 -1.000000e+00
    outer loop
      vertex   -2.705642e+01 1.456801e+00 9.174800e+00
      vertex   -2.626230e+01 1.576635e+00 9.174800e+00
      vertex   -2.702764e+01 1.358508e+00 9.174800e+00
    endloop
  endfacet
  facet normal 0.000000e+00 0.000000e+00 -1.000000e+00
    outer loop
      vertex   -2.702764e+01 1.358508e+00 9.174800e+00
      vertex   -2.626230e+01 1.576635e+00 9.174800e+00
      vertex   -2.624997e+01 1.433818e+00 9.174800e+00
    endloop
  endfacet
  facet normal 0.000000e+00 0.000000e+00 -1.000000e+00
    outer loop
      vertex   -2.702764e+01 1.358508e+00 9.174800e+00
      vertex   -2.624997e+01 1.433818e+00 9.174800e+00
      vertex   -2.699253e+01 1.263429e+00 9.174800e+00
    endloop
  endfacet
  facet normal 0.000000e+00 0.000000e+00 -1.000000e+00
    outer loop
      vertex   -2.699253e+01 1.263429e+00 9.174800e+00
      vertex   -2.624997e+01 1.433818e+00 9.174800e+00
      vertex   -2.623896e+01 1.363896e+00 9.174800e+00
    endloop
  endfacet
  facet normal 2.441626e-15 -1.831376e-14 -1.000000e+00
    outer loop
      vertex   -2.699253e+01 1.263429e+00 9.174800e+00
      vertex   -2.623896e+01 1.363896e+00 9.174800e+00
      vertex   -2.695004e+01 1.172099e+00 9.174800e+00
    endloop
  endfacet
  facet normal -6.909567e-15 1.635499e-14 -1.000000e+00
    outer loop
      vertex   -2.695004e+01 1.172099e+00 9.174800e+00
      vertex   -2.623896e+01 1.363896e+00 9.174800e+00
      vertex   -2.689965e+01 1.084772e+00 9.174800e+00
    endloop
  endfacet
  facet normal 0.000000e+00 0.000000e+00 -1.000000e+00
    outer loop
      vertex   -2.689965e+01 1.084772e+00 9.174800e+00
      vertex   -2.623896e+01 1.363896e+00 9.174800e+00
      vertex   -2.622215e+01 1.295757e+00 9.174800e+00
    endloop
  endfacet
  facet normal 0.000000e+00 0.000000e+00 -1.000000e+00
    outer loop
      vertex   -2.689965e+01 1.084772e+00 9.174800e+00
      vertex   -2.622215e+01 1.295757e+00 9.174800e+00
      vertex   -2.684220e+01 1.001034e+00 9.174800e+00
    endloop
  endfacet
  facet normal 0.000000e+00 0.000000e+00 -1.000000e+00
    outer loop
      vertex   -2.684220e+01 1.001034e+00 9.174800e+00
      vertex   -2.622215e+01 1.295757e+00 9.174800e+00
      vertex   -2.619817e+01 1.229818e+00 9.174800e+00
    endloop
  endfacet
  facet normal 0.000000e+00 0.000000e+00 -1.000000e+00
    outer loop
      vertex   -2.684220e+01 1.001034e+00 9.174800e+00
      vertex   -2.619817e+01 1.229818e+00 9.174800e+00
      vertex   -2.677868e+01 9.203715e-01 9.174800e+00
    endloop
  endfacet
  facet normal 0.000000e+00 0.000000e+00 -1.000000e+00
    outer loop
      vertex   -2.677868e+01 9.203715e-01 9.174800e+00
      vertex   -2.619817e+01 1.229818e+00 9.174800e+00
      vertex   -2.616826e+01 1.165697e+00 9.174800e+00
    endloop
  endfacet
  facet normal 0.000000e+00 0.000000e+00 -1.000000e+00
    outer loop
      vertex   -2.677868e+01 9.203715e-01 9.174800e+00
      vertex   -2.616826e+01 1.165697e+00 9.174800e+00
      vertex   -2.671012e+01 8.422727e-01 9.174800e+00
    endloop
  endfacet
  facet normal 0.000000e+00 0.000000e+00 -1.000000e+00
    outer loop
      vertex   -2.671012e+01 8.422727e-01 9.174800e+00
      vertex   -2.616826e+01 1.165697e+00 9.174800e+00
      vertex   -2.663751e+01 7.662247e-01 9.174800e+00
    endloop
  endfacet
  facet normal 0.000000e+00 0.000000e+00 -1.000000e+00
    outer loop
      vertex   -2.663751e+01 7.662247e-01 9.174800e+00
      vertex   -2.616826e+01 1.165697e+00 9.174800e+00
      vertex   -2.609859e+01 1.040483e+00 9.174800e+00
    endloop
  endfacet
  facet normal 7.999763e-15 -1.571965e-14 -1.000000e+00
    outer loop
      vertex   -2.663751e+01 7.662247e-01 9.174800e+00
      vertex   -2.609859e+01 1.040483e+00 9.174800e+00
      vertex   -2.656187e+01 6.917147e-01 9.174800e+00
    endloop
  endfacet
  facet normal -2.347955e-15 -1.974338e-15 -1.000000e+00
    outer loop
      vertex   -2.656187e+01 6.917147e-01 9.174800e+00
      vertex   -2.609859e+01 1.040483e+00 9.174800e+00
      vertex   -2.600900e+01 9.339424e-01 9.174800e+00
    endloop
  endfacet
  facet normal -5.809925e-15 5.927422e-15 -1.000000e+00
    outer loop
      vertex   -2.656187e+01 6.917147e-01 9.174800e+00
      vertex   -2.600900e+01 9.339424e-01 9.174800e+00
      vertex   -2.640554e+01 5.452580e-01 9.174800e+00
    endloop
  endfacet
  facet normal 0.000000e+00 0.000000e+00 -1.000000e+00
    outer loop
      vertex   -2.640554e+01 5.452580e-01 9.174800e+00
      vertex   -2.600900e+01 9.339424e-01 9.174800e+00
      vertex   -2.596100e+01 8.849543e-01 9.174800e+00
    endloop
  endfacet
  facet normal 0.000000e+00 0.000000e+00 -1.000000e+00
    outer loop
      vertex   -2.640554e+01 5.452580e-01 9.174800e+00
      vertex   -2.596100e+01 8.849543e-01 9.174800e+00
      vertex   -2.590915e+01 8.411052e-01 9.174800e+00
    endloop
  endfacet
  facet normal 0.000000e+00 -0.000000e+00 -1.000000e+00
    outer loop
      vertex   -2.590915e+01 8.411052e-01 9.174800e+00
      vertex   -2.585258e+01 8.035618e-01 9.174800e+00
      vertex   -2.640554e+01 5.452580e-01 9.174800e+00
    endloop
  endfacet
  facet normal 0.000000e+00 0.000000e+00 -1.000000e+00
    outer loop
      vertex   -2.640554e+01 5.452580e-01 9.174800e+00
      vertex   -2.585258e+01 8.035618e-01 9.174800e+00
      vertex   -2.579212e+01 7.711989e-01 9.174800e+00
    endloop
  endfacet
  facet normal 0.000000e+00 0.000000e+00 -1.000000e+00
    outer loop
      vertex   -2.640554e+01 5.452580e-01 9.174800e+00
      vertex   -2.579212e+01 7.711989e-01 9.174800e+00
      vertex   -2.566475e+01 7.151074e-01 9.174800e+00
    endloop
  endfacet
  facet normal 0.000000e+00 -0.000000e+00 -1.000000e+00
    outer loop
      vertex   -2.566475e+01 7.151074e-01 9.174800e+00
      vertex   -2.541760e+01 6.688328e-01 9.174800e+00
      vertex   -2.640554e+01 5.452580e-01 9.174800e+00
    endloop
  endfacet
  facet normal 0.000000e+00 -0.000000e+00 -1.000000e+00
    outer loop
      vertex   -2.640554e+01 5.452580e-01 9.174800e+00
      vertex   -2.541760e+01 6.688328e-01 9.174800e+00
      vertex   -2.704402e+01 -5.229550e-01 9.174800e+00
    endloop
  endfacet
  facet normal -0.000000e+00 0.000000e+00 -1.000000e+00
    outer loop
      vertex   -2.640554e+01 5.452580e-01 9.174800e+00
      vertex   -2.704402e+01 -5.229550e-01 9.174800e+00
      vertex   -2.704402e+01 5.452580e-01 9.174800e+00
    endloop
  endfacet
  facet normal 0.000000e+00 -0.000000e+00 -1.000000e+00
    outer loop
      vertex   -2.541760e+01 6.688328e-01 9.174800e+00
      vertex   -2.529350e+01 6.507431e-01 9.174800e+00
      vertex   -2.704402e+01 -5.229550e-01 9.174800e+00
    endloop
  endfacet
  facet normal 0.000000e+00 0.000000e+00 -1.000000e+00
    outer loop
      vertex   -2.704402e+01 -5.229550e-01 9.174800e+00
      vertex   -2.529350e+01 6.507431e-01 9.174800e+00
      vertex   -2.516882e+01 6.383202e-01 9.174800e+00
    endloop
  endfacet
  facet normal 0.000000e+00 0.000000e+00 -1.000000e+00
    outer loop
      vertex   -2.704402e+01 -5.229550e-01 9.174800e+00
      vertex   -2.516882e+01 6.383202e-01 9.174800e+00
      vertex   -2.504361e+01 6.310282e-01 9.174800e+00
    endloop
  endfacet
  facet normal 0.000000e+00 -0.000000e+00 -1.000000e+00
    outer loop
      vertex   -2.504361e+01 6.310282e-01 9.174800e+00
      vertex   -2.491800e+01 6.275850e-01 9.174800e+00
      vertex   -2.704402e+01 -5.229550e-01 9.174800e+00
    endloop
  endfacet
  facet normal 0.000000e+00 0.000000e+00 -1.000000e+00
    outer loop
      vertex   -2.704402e+01 -5.229550e-01 9.174800e+00
      vertex   -2.491800e+01 6.275850e-01 9.174800e+00
      vertex   -2.269750e+01 -5.229550e-01 9.174800e+00
    endloop
  endfacet
  facet normal 0.000000e+00 0.000000e+00 -1.000000e+00
    outer loop
      vertex   -2.269750e+01 -5.229550e-01 9.174800e+00
      vertex   -2.491800e+01 6.275850e-01 9.174800e+00
      vertex   -2.466612e+01 6.271130e-01 9.174800e+00
    endloop
  endfacet
  facet normal 0.000000e+00 0.000000e+00 -1.000000e+00
    outer loop
      vertex   -2.269750e+01 -5.229550e-01 9.174800e+00
      vertex   -2.466612e+01 6.271130e-01 9.174800e+00
      vertex   -2.269750e+01 6.271130e-01 9.174800e+00
    endloop
  endfacet
  facet normal 0.000000e+00 0.000000e+00 -1.000000e+00
    outer loop
      vertex   -2.686065e+01 2.934675e+00 9.174800e+00
      vertex   -2.681465e+01 2.992585e+00 9.174800e+00
      vertex   -2.596452e+01 2.148783e+00 9.174800e+00
    endloop
  endfacet
  facet normal 0.000000e+00 0.000000e+00 -1.000000e+00
    outer loop
      vertex   -2.596452e+01 2.148783e+00 9.174800e+00
      vertex   -2.681465e+01 2.992585e+00 9.174800e+00
      vertex   -2.676405e+01 3.047066e+00 9.174800e+00
    endloop
  endfacet
  facet normal 2.341193e-14 1.307134e-14 -1.000000e+00
    outer loop
      vertex   -2.642572e+01 3.288505e+00 9.174800e+00
      vertex   -2.636430e+01 3.314398e+00 9.174800e+00
      vertex   -2.582642e+01 2.215107e+00 9.174800e+00
    endloop
  endfacet
  facet normal -2.448945e-14 -1.036675e-14 -1.000000e+00
    outer loop
      vertex   -2.582642e+01 2.215107e+00 9.174800e+00
      vertex   -2.636430e+01 3.314398e+00 9.174800e+00
      vertex   -2.630121e+01 3.336719e+00 9.174800e+00
    endloop
  endfacet
  facet normal 0.000000e+00 0.000000e+00 -1.000000e+00
    outer loop
      vertex   -2.582642e+01 2.215107e+00 9.174800e+00
      vertex   -2.630121e+01 3.336719e+00 9.174800e+00
      vertex   -2.617226e+01 3.375407e+00 9.174800e+00
    endloop
  endfacet
  facet normal 0.000000e+00 0.000000e+00 -1.000000e+00
    outer loop
      vertex   -2.617226e+01 3.375407e+00 9.174800e+00
      vertex   -2.598022e+01 3.406202e+00 9.174800e+00
      vertex   -2.582642e+01 2.215107e+00 9.174800e+00
    endloop
  endfacet
  facet normal 0.000000e+00 0.000000e+00 -1.000000e+00
    outer loop
      vertex   -2.578736e+01 3.427869e+00 9.174800e+00
      vertex   -2.559335e+01 3.436783e+00 9.174800e+00
      vertex   -2.560096e+01 2.255772e+00 9.174800e+00
    endloop
  endfacet
endsolid
