solid ASCII
  facet normal -0.000000e+00 1.000000e+00 0.000000e+00
    outer loop
      vertex   -2.704402e+01 -6.367430e+00 9.574800e+00
      vertex   -2.269750e+01 -6.367430e+00 9.574800e+00
      vertex   -2.704402e+01 -6.367430e+00 9.174800e+00
    endloop
  endfacet
  facet normal 0.000000e+00 1.000000e+00 0.000000e+00
    outer loop
      vertex   -2.704402e+01 -6.367430e+00 9.174800e+00
      vertex   -2.269750e+01 -6.367430e+00 9.574800e+00
      vertex   -2.269750e+01 -6.367430e+00 9.174800e+00
    endloop
  endfacet
  facet normal -1.000000e+00 0.000000e+00 0.000000e+00
    outer loop
      vertex   -2.704402e+01 -7.517498e+00 9.574800e+00
      vertex   -2.704402e+01 -6.367430e+00 9.574800e+00
      vertex   -2.704402e+01 -7.517498e+00 9.174800e+00
    endloop
  endfacet
  facet normal -1.000000e+00 0.000000e+00 0.000000e+00
    outer loop
      vertex   -2.704402e+01 -7.517498e+00 9.174800e+00
      vertex   -2.704402e+01 -6.367430e+00 9.574800e+00
      vertex   -2.704402e+01 -6.367430e+00 9.174800e+00
    endloop
  endfacet
  facet normal -0.000000e+00 -1.000000e+00 -0.000000e+00
    outer loop
      vertex   -2.521046e+01 -7.517498e+00 9.574800e+00
      vertex   -2.704402e+01 -7.517498e+00 9.574800e+00
      vertex   -2.521046e+01 -7.517498e+00 9.174800e+00
    endloop
  endfacet
  facet normal 0.000000e+00 -1.000000e+00 0.000000e+00
    outer loop
      vertex   -2.521046e+01 -7.517498e+00 9.174800e+00
      vertex   -2.704402e+01 -7.517498e+00 9.574800e+00
      vertex   -2.704402e+01 -7.517498e+00 9.174800e+00
    endloop
  endfacet
  facet normal -1.653831e-01 -9.862294e-01 -0.000000e+00
    outer loop
      vertex   -2.403788e+01 -7.603446e+00 9.574800e+00
      vertex   -2.432852e+01 -7.554707e+00 9.574800e+00
      vertex   -2.403788e+01 -7.603446e+00 9.174800e+00
    endloop
  endfacet
  facet normal -1.653831e-01 -9.862294e-01 0.000000e+00
    outer loop
      vertex   -2.403788e+01 -7.603446e+00 9.174800e+00
      vertex   -2.432852e+01 -7.554707e+00 9.574800e+00
      vertex   -2.432852e+01 -7.554707e+00 9.174800e+00
    endloop
  endfacet
  facet normal -1.240929e-01 -9.922706e-01 0.000000e+00
    outer loop
      vertex   -2.432852e+01 -7.554707e+00 9.174800e+00
      vertex   -2.432852e+01 -7.554707e+00 9.574800e+00
      vertex   -2.447440e+01 -7.536463e+00 9.574800e+00
    endloop
  endfacet
  facet normal -1.240929e-01 -9.922706e-01 0.000000e+00
    outer loop
      vertex   -2.432852e+01 -7.554707e+00 9.174800e+00
      vertex   -2.447440e+01 -7.536463e+00 9.574800e+00
      vertex   -2.447440e+01 -7.536463e+00 9.174800e+00
    endloop
  endfacet
  facet normal -8.083540e-02 -9.967275e-01 0.000000e+00
    outer loop
      vertex   -2.447440e+01 -7.536463e+00 9.174800e+00
      vertex   -2.447440e+01 -7.536463e+00 9.574800e+00
      vertex   -2.462087e+01 -7.524584e+00 9.574800e+00
    endloop
  endfacet
  facet normal -8.083540e-02 -9.967275e-01 0.000000e+00
    outer loop
      vertex   -2.447440e+01 -7.536463e+00 9.174800e+00
      vertex   -2.462087e+01 -7.524584e+00 9.574800e+00
      vertex   -2.462087e+01 -7.524584e+00 9.174800e+00
    endloop
  endfacet
  facet normal -4.410566e-02 -9.990269e-01 0.000000e+00
    outer loop
      vertex   -2.462087e+01 -7.524584e+00 9.174800e+00
      vertex   -2.462087e+01 -7.524584e+00 9.574800e+00
      vertex   -2.476783e+01 -7.518096e+00 9.574800e+00
    endloop
  endfacet
  facet normal -4.410566e-02 -9.990269e-01 0.000000e+00
    outer loop
      vertex   -2.462087e+01 -7.524584e+00 9.174800e+00
      vertex   -2.476783e+01 -7.518096e+00 9.574800e+00
      vertex   -2.476783e+01 -7.518096e+00 9.174800e+00
    endloop
  endfacet
  facet normal -1.659516e-02 -9.998623e-01 0.000000e+00
    outer loop
      vertex   -2.476783e+01 -7.518096e+00 9.174800e+00
      vertex   -2.476783e+01 -7.518096e+00 9.574800e+00
      vertex   -2.491517e+01 -7.515651e+00 9.574800e+00
    endloop
  endfacet
  facet normal -1.659516e-02 -9.998623e-01 0.000000e+00
    outer loop
      vertex   -2.476783e+01 -7.518096e+00 9.174800e+00
      vertex   -2.491517e+01 -7.515651e+00 9.574800e+00
      vertex   -2.491517e+01 -7.515651e+00 9.174800e+00
    endloop
  endfacet
  facet normal 6.255908e-03 -9.999804e-01 0.000000e+00
    outer loop
      vertex   -2.491517e+01 -7.515651e+00 9.174800e+00
      vertex   -2.491517e+01 -7.515651e+00 9.574800e+00
      vertex   -2.521046e+01 -7.517498e+00 9.574800e+00
    endloop
  endfacet
  facet normal 6.255908e-03 -9.999804e-01 0.000000e+00
    outer loop
      vertex   -2.491517e+01 -7.515651e+00 9.174800e+00
      vertex   -2.521046e+01 -7.517498e+00 9.574800e+00
      vertex   -2.521046e+01 -7.517498e+00 9.174800e+00
    endloop
  endfacet
  facet normal -7.749554e-01 -6.320159e-01 -0.000000e+00
    outer loop
      vertex   -2.363679e+01 -7.922682e+00 9.574800e+00
      vertex   -2.371977e+01 -7.820935e+00 9.574800e+00
      vertex   -2.363679e+01 -7.922682e+00 9.174800e+00
    endloop
  endfacet
  facet normal -7.749554e-01 -6.320159e-01 0.000000e+00
    outer loop
      vertex   -2.363679e+01 -7.922682e+00 9.174800e+00
      vertex   -2.371977e+01 -7.820935e+00 9.574800e+00
      vertex   -2.371977e+01 -7.820935e+00 9.174800e+00
    endloop
  endfacet
  facet normal -7.286413e-01 -6.848955e-01 0.000000e+00
    outer loop
      vertex   -2.371977e+01 -7.820935e+00 9.174800e+00
      vertex   -2.371977e+01 -7.820935e+00 9.574800e+00
      vertex   -2.376414e+01 -7.773724e+00 9.574800e+00
    endloop
  endfacet
  facet normal -7.286413e-01 -6.848955e-01 0.000000e+00
    outer loop
      vertex   -2.371977e+01 -7.820935e+00 9.174800e+00
      vertex   -2.376414e+01 -7.773724e+00 9.574800e+00
      vertex   -2.376414e+01 -7.773724e+00 9.174800e+00
    endloop
  endfacet
  facet normal -6.668936e-01 -7.451529e-01 0.000000e+00
    outer loop
      vertex   -2.376414e+01 -7.773724e+00 9.174800e+00
      vertex   -2.376414e+01 -7.773724e+00 9.574800e+00
      vertex   -2.381198e+01 -7.730907e+00 9.574800e+00
    endloop
  endfacet
  facet normal -6.668936e-01 -7.451529e-01 0.000000e+00
    outer loop
      vertex   -2.376414e+01 -7.773724e+00 9.174800e+00
      vertex   -2.381198e+01 -7.730907e+00 9.574800e+00
      vertex   -2.381198e+01 -7.730907e+00 9.174800e+00
    endloop
  endfacet
  facet normal -5.815044e-01 -8.135432e-01 0.000000e+00
    outer loop
      vertex   -2.381198e+01 -7.730907e+00 9.174800e+00
      vertex   -2.381198e+01 -7.730907e+00 9.574800e+00
      vertex   -2.386417e+01 -7.693605e+00 9.574800e+00
    endloop
  endfacet
  facet normal -5.815044e-01 -8.135432e-01 0.000000e+00
    outer loop
      vertex   -2.381198e+01 -7.730907e+00 9.174800e+00
      vertex   -2.386417e+01 -7.693605e+00 9.574800e+00
      vertex   -2.386417e+01 -7.693605e+00 9.174800e+00
    endloop
  endfacet
  facet normal -5.045271e-01 -8.633958e-01 0.000000e+00
    outer loop
      vertex   -2.386417e+01 -7.693605e+00 9.174800e+00
      vertex   -2.386417e+01 -7.693605e+00 9.574800e+00
      vertex   -2.392003e+01 -7.660962e+00 9.574800e+00
    endloop
  endfacet
  facet normal -5.045271e-01 -8.633958e-01 0.000000e+00
    outer loop
      vertex   -2.386417e+01 -7.693605e+00 9.174800e+00
      vertex   -2.392003e+01 -7.660962e+00 9.574800e+00
      vertex   -2.392003e+01 -7.660962e+00 9.174800e+00
    endloop
  endfacet
  facet normal -4.386154e-01 -8.986749e-01 0.000000e+00
    outer loop
      vertex   -2.392003e+01 -7.660962e+00 9.174800e+00
      vertex   -2.392003e+01 -7.660962e+00 9.574800e+00
      vertex   -2.403788e+01 -7.603446e+00 9.574800e+00
    endloop
  endfacet
  facet normal -4.386154e-01 -8.986749e-01 0.000000e+00
    outer loop
      vertex   -2.392003e+01 -7.660962e+00 9.174800e+00
      vertex   -2.403788e+01 -7.603446e+00 9.574800e+00
      vertex   -2.403788e+01 -7.603446e+00 9.174800e+00
    endloop
  endfacet
  facet normal -9.962940e-01 -8.601279e-02 -0.000000e+00
    outer loop
      vertex   -2.347512e+01 -8.450649e+00 9.574800e+00
      vertex   -2.348727e+01 -8.309953e+00 9.574800e+00
      vertex   -2.347512e+01 -8.450649e+00 9.174800e+00
    endloop
  endfacet
  facet normal -9.962940e-01 -8.601279e-02 0.000000e+00
    outer loop
      vertex   -2.347512e+01 -8.450649e+00 9.174800e+00
      vertex   -2.348727e+01 -8.309953e+00 9.574800e+00
      vertex   -2.348727e+01 -8.309953e+00 9.174800e+00
    endloop
  endfacet
  facet normal -9.878023e-01 -1.557133e-01 0.000000e+00
    outer loop
      vertex   -2.348727e+01 -8.309953e+00 9.174800e+00
      vertex   -2.348727e+01 -8.309953e+00 9.574800e+00
      vertex   -2.349813e+01 -8.241078e+00 9.574800e+00
    endloop
  endfacet
  facet normal -9.878023e-01 -1.557133e-01 0.000000e+00
    outer loop
      vertex   -2.348727e+01 -8.309953e+00 9.174800e+00
      vertex   -2.349813e+01 -8.241078e+00 9.574800e+00
      vertex   -2.349813e+01 -8.241078e+00 9.174800e+00
    endloop
  endfacet
  facet normal -9.707488e-01 -2.400975e-01 0.000000e+00
    outer loop
      vertex   -2.349813e+01 -8.241078e+00 9.174800e+00
      vertex   -2.349813e+01 -8.241078e+00 9.574800e+00
      vertex   -2.351472e+01 -8.173970e+00 9.574800e+00
    endloop
  endfacet
  facet normal -9.707488e-01 -2.400975e-01 0.000000e+00
    outer loop
      vertex   -2.349813e+01 -8.241078e+00 9.174800e+00
      vertex   -2.351472e+01 -8.173970e+00 9.574800e+00
      vertex   -2.351472e+01 -8.173970e+00 9.174800e+00
    endloop
  endfacet
  facet normal -9.394545e-01 -3.426738e-01 0.000000e+00
    outer loop
      vertex   -2.351472e+01 -8.173970e+00 9.174800e+00
      vertex   -2.351472e+01 -8.173970e+00 9.574800e+00
      vertex   -2.353841e+01 -8.109044e+00 9.574800e+00
    endloop
  endfacet
  facet normal -9.394545e-01 -3.426738e-01 0.000000e+00
    outer loop
      vertex   -2.351472e+01 -8.173970e+00 9.174800e+00
      vertex   -2.353841e+01 -8.109044e+00 9.574800e+00
      vertex   -2.353841e+01 -8.109044e+00 9.174800e+00
    endloop
  endfacet
  facet normal -9.057303e-01 -4.238545e-01 0.000000e+00
    outer loop
      vertex   -2.353841e+01 -8.109044e+00 9.174800e+00
      vertex   -2.353841e+01 -8.109044e+00 9.574800e+00
      vertex   -2.356794e+01 -8.045921e+00 9.574800e+00
    endloop
  endfacet
  facet normal -9.057303e-01 -4.238545e-01 0.000000e+00
    outer loop
      vertex   -2.353841e+01 -8.109044e+00 9.174800e+00
      vertex   -2.356794e+01 -8.045921e+00 9.574800e+00
      vertex   -2.356794e+01 -8.045921e+00 9.174800e+00
    endloop
  endfacet
  facet normal -8.730282e-01 -4.876697e-01 0.000000e+00
    outer loop
      vertex   -2.356794e+01 -8.045921e+00 9.174800e+00
      vertex   -2.356794e+01 -8.045921e+00 9.574800e+00
      vertex   -2.363679e+01 -7.922682e+00 9.574800e+00
    endloop
  endfacet
  facet normal -8.730282e-01 -4.876697e-01 0.000000e+00
    outer loop
      vertex   -2.356794e+01 -8.045921e+00 9.174800e+00
      vertex   -2.363679e+01 -7.922682e+00 9.574800e+00
      vertex   -2.363679e+01 -7.922682e+00 9.174800e+00
    endloop
  endfacet
  facet normal -8.794165e-01 4.760533e-01 0.000000e+00
    outer loop
      vertex   -2.359586e+01 -8.876297e+00 9.574800e+00
      vertex   -2.354202e+01 -8.776838e+00 9.574800e+00
      vertex   -2.359586e+01 -8.876297e+00 9.174800e+00
    endloop
  endfacet
  facet normal -8.794165e-01 4.760533e-01 0.000000e+00
    outer loop
      vertex   -2.359586e+01 -8.876297e+00 9.174800e+00
      vertex   -2.354202e+01 -8.776838e+00 9.574800e+00
      vertex   -2.354202e+01 -8.776838e+00 9.174800e+00
    endloop
  endfacet
  facet normal -9.134937e-01 4.068528e-01 0.000000e+00
    outer loop
      vertex   -2.354202e+01 -8.776838e+00 9.174800e+00
      vertex   -2.354202e+01 -8.776838e+00 9.574800e+00
      vertex   -2.351932e+01 -8.725868e+00 9.574800e+00
    endloop
  endfacet
  facet normal -9.134937e-01 4.068528e-01 0.000000e+00
    outer loop
      vertex   -2.354202e+01 -8.776838e+00 9.174800e+00
      vertex   -2.351932e+01 -8.725868e+00 9.574800e+00
      vertex   -2.351932e+01 -8.725868e+00 9.174800e+00
    endloop
  endfacet
  facet normal -9.478138e-01 3.188245e-01 0.000000e+00
    outer loop
      vertex   -2.351932e+01 -8.725868e+00 9.174800e+00
      vertex   -2.351932e+01 -8.725868e+00 9.574800e+00
      vertex   -2.350167e+01 -8.673412e+00 9.574800e+00
    endloop
  endfacet
  facet normal -9.478138e-01 3.188245e-01 0.000000e+00
    outer loop
      vertex   -2.351932e+01 -8.725868e+00 9.174800e+00
      vertex   -2.350167e+01 -8.673412e+00 9.574800e+00
      vertex   -2.350167e+01 -8.673412e+00 9.174800e+00
    endloop
  endfacet
  facet normal -9.767505e-01 2.143793e-01 0.000000e+00
    outer loop
      vertex   -2.350167e+01 -8.673412e+00 9.174800e+00
      vertex   -2.350167e+01 -8.673412e+00 9.574800e+00
      vertex   -2.348979e+01 -8.619263e+00 9.574800e+00
    endloop
  endfacet
  facet normal -9.767505e-01 2.143793e-01 0.000000e+00
    outer loop
      vertex   -2.350167e+01 -8.673412e+00 9.174800e+00
      vertex   -2.348979e+01 -8.619263e+00 9.574800e+00
      vertex   -2.348979e+01 -8.619263e+00 9.174800e+00
    endloop
  endfacet
  facet normal -9.912486e-01 1.320083e-01 0.000000e+00
    outer loop
      vertex   -2.348979e+01 -8.619263e+00 9.174800e+00
      vertex   -2.348979e+01 -8.619263e+00 9.574800e+00
      vertex   -2.348240e+01 -8.563793e+00 9.574800e+00
    endloop
  endfacet
  facet normal -9.912486e-01 1.320083e-01 0.000000e+00
    outer loop
      vertex   -2.348979e+01 -8.619263e+00 9.174800e+00
      vertex   -2.348240e+01 -8.563793e+00 9.574800e+00
      vertex   -2.348240e+01 -8.563793e+00 9.174800e+00
    endloop
  endfacet
  facet normal -9.979372e-01 6.419810e-02 0.000000e+00
    outer loop
      vertex   -2.348240e+01 -8.563793e+00 9.174800e+00
      vertex   -2.348240e+01 -8.563793e+00 9.574800e+00
      vertex   -2.347512e+01 -8.450649e+00 9.574800e+00
    endloop
  endfacet
  facet normal -9.979372e-01 6.419810e-02 0.000000e+00
    outer loop
      vertex   -2.348240e+01 -8.563793e+00 9.174800e+00
      vertex   -2.347512e+01 -8.450649e+00 9.574800e+00
      vertex   -2.347512e+01 -8.450649e+00 9.174800e+00
    endloop
  endfacet
  facet normal -3.787567e-01 9.254963e-01 0.000000e+00
    outer loop
      vertex   -2.392328e+01 -9.107539e+00 9.574800e+00
      vertex   -2.382806e+01 -9.068570e+00 9.574800e+00
      vertex   -2.392328e+01 -9.107539e+00 9.174800e+00
    endloop
  endfacet
  facet normal -3.787567e-01 9.254963e-01 0.000000e+00
    outer loop
      vertex   -2.392328e+01 -9.107539e+00 9.174800e+00
      vertex   -2.382806e+01 -9.068570e+00 9.574800e+00
      vertex   -2.382806e+01 -9.068570e+00 9.174800e+00
    endloop
  endfacet
  facet normal -4.470898e-01 8.944891e-01 0.000000e+00
    outer loop
      vertex   -2.382806e+01 -9.068570e+00 9.174800e+00
      vertex   -2.382806e+01 -9.068570e+00 9.574800e+00
      vertex   -2.378271e+01 -9.045902e+00 9.574800e+00
    endloop
  endfacet
  facet normal -4.470898e-01 8.944891e-01 0.000000e+00
    outer loop
      vertex   -2.382806e+01 -9.068570e+00 9.174800e+00
      vertex   -2.378271e+01 -9.045902e+00 9.574800e+00
      vertex   -2.378271e+01 -9.045902e+00 9.174800e+00
    endloop
  endfacet
  facet normal -5.276677e-01 8.494509e-01 0.000000e+00
    outer loop
      vertex   -2.378271e+01 -9.045902e+00 9.174800e+00
      vertex   -2.378271e+01 -9.045902e+00 9.574800e+00
      vertex   -2.374007e+01 -9.019414e+00 9.574800e+00
    endloop
  endfacet
  facet normal -5.276677e-01 8.494509e-01 0.000000e+00
    outer loop
      vertex   -2.378271e+01 -9.045902e+00 9.174800e+00
      vertex   -2.374007e+01 -9.019414e+00 9.574800e+00
      vertex   -2.374007e+01 -9.019414e+00 9.174800e+00
    endloop
  endfacet
  facet normal -6.220120e-01 7.830077e-01 0.000000e+00
    outer loop
      vertex   -2.374007e+01 -9.019414e+00 9.174800e+00
      vertex   -2.374007e+01 -9.019414e+00 9.574800e+00
      vertex   -2.370077e+01 -8.988201e+00 9.574800e+00
    endloop
  endfacet
  facet normal -6.220120e-01 7.830077e-01 0.000000e+00
    outer loop
      vertex   -2.374007e+01 -9.019414e+00 9.174800e+00
      vertex   -2.370077e+01 -8.988201e+00 9.574800e+00
      vertex   -2.370077e+01 -8.988201e+00 9.174800e+00
    endloop
  endfacet
  facet normal -6.932772e-01 7.206710e-01 0.000000e+00
    outer loop
      vertex   -2.370077e+01 -8.988201e+00 9.174800e+00
      vertex   -2.370077e+01 -8.988201e+00 9.574800e+00
      vertex   -2.366426e+01 -8.953075e+00 9.574800e+00
    endloop
  endfacet
  facet normal -6.932772e-01 7.206710e-01 0.000000e+00
    outer loop
      vertex   -2.370077e+01 -8.988201e+00 9.174800e+00
      vertex   -2.366426e+01 -8.953075e+00 9.574800e+00
      vertex   -2.366426e+01 -8.953075e+00 9.174800e+00
    endloop
  endfacet
  facet normal -7.466585e-01 6.652075e-01 0.000000e+00
    outer loop
      vertex   -2.366426e+01 -8.953075e+00 9.174800e+00
      vertex   -2.366426e+01 -8.953075e+00 9.574800e+00
      vertex   -2.359586e+01 -8.876297e+00 9.574800e+00
    endloop
  endfacet
  facet normal -7.466585e-01 6.652075e-01 0.000000e+00
    outer loop
      vertex   -2.366426e+01 -8.953075e+00 9.174800e+00
      vertex   -2.359586e+01 -8.876297e+00 9.574800e+00
      vertex   -2.359586e+01 -8.876297e+00 9.174800e+00
    endloop
  endfacet
  facet normal 7.000848e-03 9.999755e-01 0.000000e+00
    outer loop
      vertex   -2.504674e+01 -9.170977e+00 9.574800e+00
      vertex   -2.476459e+01 -9.172952e+00 9.574800e+00
      vertex   -2.504674e+01 -9.170977e+00 9.174800e+00
    endloop
  endfacet
  facet normal 7.000848e-03 9.999755e-01 0.000000e+00
    outer loop
      vertex   -2.504674e+01 -9.170977e+00 9.174800e+00
      vertex   -2.476459e+01 -9.172952e+00 9.574800e+00
      vertex   -2.476459e+01 -9.172952e+00 9.174800e+00
    endloop
  endfacet
  facet normal -2.196707e-02 9.997587e-01 0.000000e+00
    outer loop
      vertex   -2.476459e+01 -9.172952e+00 9.174800e+00
      vertex   -2.476459e+01 -9.172952e+00 9.574800e+00
      vertex   -2.448302e+01 -9.166766e+00 9.574800e+00
    endloop
  endfacet
  facet normal -2.196707e-02 9.997587e-01 0.000000e+00
    outer loop
      vertex   -2.476459e+01 -9.172952e+00 9.174800e+00
      vertex   -2.448302e+01 -9.166766e+00 9.574800e+00
      vertex   -2.448302e+01 -9.166766e+00 9.174800e+00
    endloop
  endfacet
  facet normal -6.189121e-02 9.980829e-01 0.000000e+00
    outer loop
      vertex   -2.448302e+01 -9.166766e+00 9.174800e+00
      vertex   -2.448302e+01 -9.166766e+00 9.574800e+00
      vertex   -2.434264e+01 -9.158061e+00 9.574800e+00
    endloop
  endfacet
  facet normal -6.189121e-02 9.980829e-01 0.000000e+00
    outer loop
      vertex   -2.448302e+01 -9.166766e+00 9.174800e+00
      vertex   -2.434264e+01 -9.158061e+00 9.574800e+00
      vertex   -2.434264e+01 -9.158061e+00 9.174800e+00
    endloop
  endfacet
  facet normal -9.665846e-02 9.953176e-01 0.000000e+00
    outer loop
      vertex   -2.434264e+01 -9.158061e+00 9.174800e+00
      vertex   -2.434264e+01 -9.158061e+00 9.574800e+00
      vertex   -2.420262e+01 -9.144463e+00 9.574800e+00
    endloop
  endfacet
  facet normal -9.665846e-02 9.953176e-01 0.000000e+00
    outer loop
      vertex   -2.434264e+01 -9.158061e+00 9.174800e+00
      vertex   -2.420262e+01 -9.144463e+00 9.574800e+00
      vertex   -2.420262e+01 -9.144463e+00 9.174800e+00
    endloop
  endfacet
  facet normal -1.310420e-01 9.913768e-01 0.000000e+00
    outer loop
      vertex   -2.420262e+01 -9.144463e+00 9.174800e+00
      vertex   -2.420262e+01 -9.144463e+00 9.574800e+00
      vertex   -2.392328e+01 -9.107539e+00 9.574800e+00
    endloop
  endfacet
  facet normal -1.310420e-01 9.913768e-01 0.000000e+00
    outer loop
      vertex   -2.420262e+01 -9.144463e+00 9.174800e+00
      vertex   -2.392328e+01 -9.107539e+00 9.574800e+00
      vertex   -2.392328e+01 -9.107539e+00 9.174800e+00
    endloop
  endfacet
  facet normal -0.000000e+00 1.000000e+00 0.000000e+00
    outer loop
      vertex   -2.704402e+01 -9.170977e+00 9.574800e+00
      vertex   -2.504674e+01 -9.170977e+00 9.574800e+00
      vertex   -2.704402e+01 -9.170977e+00 9.174800e+00
    endloop
  endfacet
  facet normal 0.000000e+00 1.000000e+00 0.000000e+00
    outer loop
      vertex   -2.704402e+01 -9.170977e+00 9.174800e+00
      vertex   -2.504674e+01 -9.170977e+00 9.574800e+00
      vertex   -2.504674e+01 -9.170977e+00 9.174800e+00
    endloop
  endfacet
  facet normal -1.000000e+00 0.000000e+00 0.000000e+00
    outer loop
      vertex   -2.704402e+01 -1.032104e+01 9.574800e+00
      vertex   -2.704402e+01 -9.170977e+00 9.574800e+00
      vertex   -2.704402e+01 -1.032104e+01 9.174800e+00
    endloop
  endfacet
  facet normal -1.000000e+00 0.000000e+00 0.000000e+00
    outer loop
      vertex   -2.704402e+01 -1.032104e+01 9.174800e+00
      vertex   -2.704402e+01 -9.170977e+00 9.574800e+00
      vertex   -2.704402e+01 -9.170977e+00 9.174800e+00
    endloop
  endfacet
  facet normal -0.000000e+00 -1.000000e+00 -0.000000e+00
    outer loop
      vertex   -2.429368e+01 -1.032104e+01 9.574800e+00
      vertex   -2.704402e+01 -1.032104e+01 9.574800e+00
      vertex   -2.429368e+01 -1.032104e+01 9.174800e+00
    endloop
  endfacet
  facet normal 0.000000e+00 -1.000000e+00 0.000000e+00
    outer loop
      vertex   -2.429368e+01 -1.032104e+01 9.174800e+00
      vertex   -2.704402e+01 -1.032104e+01 9.574800e+00
      vertex   -2.704402e+01 -1.032104e+01 9.174800e+00
    endloop
  endfacet
  facet normal 2.996561e-01 -9.540473e-01 0.000000e+00
    outer loop
      vertex   -2.333187e+01 -1.016552e+01 9.574800e+00
      vertex   -2.356627e+01 -1.023914e+01 9.574800e+00
      vertex   -2.333187e+01 -1.016552e+01 9.174800e+00
    endloop
  endfacet
  facet normal 2.996561e-01 -9.540473e-01 0.000000e+00
    outer loop
      vertex   -2.333187e+01 -1.016552e+01 9.174800e+00
      vertex   -2.356627e+01 -1.023914e+01 9.574800e+00
      vertex   -2.356627e+01 -1.023914e+01 9.174800e+00
    endloop
  endfacet
  facet normal 2.479001e-01 -9.687856e-01 0.000000e+00
    outer loop
      vertex   -2.356627e+01 -1.023914e+01 9.174800e+00
      vertex   -2.356627e+01 -1.023914e+01 9.574800e+00
      vertex   -2.368460e+01 -1.026942e+01 9.574800e+00
    endloop
  endfacet
  facet normal 2.479001e-01 -9.687856e-01 0.000000e+00
    outer loop
      vertex   -2.356627e+01 -1.023914e+01 9.174800e+00
      vertex   -2.368460e+01 -1.026942e+01 9.574800e+00
      vertex   -2.368460e+01 -1.026942e+01 9.174800e+00
    endloop
  endfacet
  facet normal 1.850128e-01 -9.827361e-01 0.000000e+00
    outer loop
      vertex   -2.368460e+01 -1.026942e+01 9.174800e+00
      vertex   -2.368460e+01 -1.026942e+01 9.574800e+00
      vertex   -2.380429e+01 -1.029195e+01 9.574800e+00
    endloop
  endfacet
  facet normal 1.850128e-01 -9.827361e-01 0.000000e+00
    outer loop
      vertex   -2.368460e+01 -1.026942e+01 9.174800e+00
      vertex   -2.380429e+01 -1.029195e+01 9.574800e+00
      vertex   -2.380429e+01 -1.029195e+01 9.174800e+00
    endloop
  endfacet
  facet normal 1.184385e-01 -9.929614e-01 0.000000e+00
    outer loop
      vertex   -2.380429e+01 -1.029195e+01 9.174800e+00
      vertex   -2.380429e+01 -1.029195e+01 9.574800e+00
      vertex   -2.392538e+01 -1.030640e+01 9.574800e+00
    endloop
  endfacet
  facet normal 1.184385e-01 -9.929614e-01 0.000000e+00
    outer loop
      vertex   -2.380429e+01 -1.029195e+01 9.174800e+00
      vertex   -2.392538e+01 -1.030640e+01 9.574800e+00
      vertex   -2.392538e+01 -1.030640e+01 9.174800e+00
    endloop
  endfacet
  facet normal 6.776249e-02 -9.977015e-01 0.000000e+00
    outer loop
      vertex   -2.392538e+01 -1.030640e+01 9.174800e+00
      vertex   -2.392538e+01 -1.030640e+01 9.574800e+00
      vertex   -2.404755e+01 -1.031469e+01 9.574800e+00
    endloop
  endfacet
  facet normal 6.776249e-02 -9.977015e-01 0.000000e+00
    outer loop
      vertex   -2.392538e+01 -1.030640e+01 9.174800e+00
      vertex   -2.404755e+01 -1.031469e+01 9.574800e+00
      vertex   -2.404755e+01 -1.031469e+01 9.174800e+00
    endloop
  endfacet
  facet normal 2.579391e-02 -9.996673e-01 0.000000e+00
    outer loop
      vertex   -2.404755e+01 -1.031469e+01 9.174800e+00
      vertex   -2.404755e+01 -1.031469e+01 9.574800e+00
      vertex   -2.429368e+01 -1.032104e+01 9.574800e+00
    endloop
  endfacet
  facet normal 2.579391e-02 -9.996673e-01 0.000000e+00
    outer loop
      vertex   -2.404755e+01 -1.031469e+01 9.174800e+00
      vertex   -2.429368e+01 -1.032104e+01 9.574800e+00
      vertex   -2.429368e+01 -1.032104e+01 9.174800e+00
    endloop
  endfacet
  facet normal 8.278068e-01 -5.610133e-01 0.000000e+00
    outer loop
      vertex   -2.279163e+01 -9.662109e+00 9.574800e+00
      vertex   -2.289792e+01 -9.818952e+00 9.574800e+00
      vertex   -2.279163e+01 -9.662109e+00 9.174800e+00
    endloop
  endfacet
  facet normal 8.278068e-01 -5.610133e-01 0.000000e+00
    outer loop
      vertex   -2.279163e+01 -9.662109e+00 9.174800e+00
      vertex   -2.289792e+01 -9.818952e+00 9.574800e+00
      vertex   -2.289792e+01 -9.818952e+00 9.174800e+00
    endloop
  endfacet
  facet normal 7.836583e-01 -6.211922e-01 0.000000e+00
    outer loop
      vertex   -2.289792e+01 -9.818952e+00 9.174800e+00
      vertex   -2.289792e+01 -9.818952e+00 9.574800e+00
      vertex   -2.295593e+01 -9.892135e+00 9.574800e+00
    endloop
  endfacet
  facet normal 7.836583e-01 -6.211922e-01 0.000000e+00
    outer loop
      vertex   -2.289792e+01 -9.818952e+00 9.174800e+00
      vertex   -2.295593e+01 -9.892135e+00 9.574800e+00
      vertex   -2.295593e+01 -9.892135e+00 9.174800e+00
    endloop
  endfacet
  facet normal 7.234006e-01 -6.904286e-01 0.000000e+00
    outer loop
      vertex   -2.295593e+01 -9.892135e+00 9.174800e+00
      vertex   -2.295593e+01 -9.892135e+00 9.574800e+00
      vertex   -2.301978e+01 -9.959030e+00 9.574800e+00
    endloop
  endfacet
  facet normal 7.234006e-01 -6.904286e-01 0.000000e+00
    outer loop
      vertex   -2.295593e+01 -9.892135e+00 9.174800e+00
      vertex   -2.301978e+01 -9.959030e+00 9.574800e+00
      vertex   -2.301978e+01 -9.959030e+00 9.174800e+00
    endloop
  endfacet
  facet normal 6.396231e-01 -7.686886e-01 0.000000e+00
    outer loop
      vertex   -2.301978e+01 -9.959030e+00 9.174800e+00
      vertex   -2.301978e+01 -9.959030e+00 9.574800e+00
      vertex   -2.309084e+01 -1.001816e+01 9.574800e+00
    endloop
  endfacet
  facet normal 6.396231e-01 -7.686886e-01 0.000000e+00
    outer loop
      vertex   -2.301978e+01 -9.959030e+00 9.174800e+00
      vertex   -2.309084e+01 -1.001816e+01 9.574800e+00
      vertex   -2.309084e+01 -1.001816e+01 9.174800e+00
    endloop
  endfacet
  facet normal 5.646166e-01 -8.253533e-01 0.000000e+00
    outer loop
      vertex   -2.309084e+01 -1.001816e+01 9.174800e+00
      vertex   -2.309084e+01 -1.001816e+01 9.574800e+00
      vertex   -2.316787e+01 -1.007085e+01 9.574800e+00
    endloop
  endfacet
  facet normal 5.646166e-01 -8.253533e-01 0.000000e+00
    outer loop
      vertex   -2.309084e+01 -1.001816e+01 9.174800e+00
      vertex   -2.316787e+01 -1.007085e+01 9.574800e+00
      vertex   -2.316787e+01 -1.007085e+01 9.174800e+00
    endloop
  endfacet
  facet normal 4.999126e-01 -8.660758e-01 0.000000e+00
    outer loop
      vertex   -2.316787e+01 -1.007085e+01 9.174800e+00
      vertex   -2.316787e+01 -1.007085e+01 9.574800e+00
      vertex   -2.333187e+01 -1.016552e+01 9.574800e+00
    endloop
  endfacet
  facet normal 4.999126e-01 -8.660758e-01 0.000000e+00
    outer loop
      vertex   -2.316787e+01 -1.007085e+01 9.174800e+00
      vertex   -2.333187e+01 -1.016552e+01 9.574800e+00
      vertex   -2.333187e+01 -1.016552e+01 9.174800e+00
    endloop
  endfacet
  facet normal 9.978164e-01 -6.604858e-02 0.000000e+00
    outer loop
      vertex   -2.259927e+01 -8.876297e+00 9.574800e+00
      vertex   -2.261284e+01 -9.081320e+00 9.574800e+00
      vertex   -2.259927e+01 -8.876297e+00 9.174800e+00
    endloop
  endfacet
  facet normal 9.978164e-01 -6.604858e-02 0.000000e+00
    outer loop
      vertex   -2.259927e+01 -8.876297e+00 9.174800e+00
      vertex   -2.261284e+01 -9.081320e+00 9.574800e+00
      vertex   -2.261284e+01 -9.081320e+00 9.174800e+00
    endloop
  endfacet
  facet normal 9.923627e-01 -1.233544e-01 0.000000e+00
    outer loop
      vertex   -2.261284e+01 -9.081320e+00 9.174800e+00
      vertex   -2.261284e+01 -9.081320e+00 9.574800e+00
      vertex   -2.262540e+01 -9.182397e+00 9.574800e+00
    endloop
  endfacet
  facet normal 9.923627e-01 -1.233544e-01 0.000000e+00
    outer loop
      vertex   -2.261284e+01 -9.081320e+00 9.174800e+00
      vertex   -2.262540e+01 -9.182397e+00 9.574800e+00
      vertex   -2.262540e+01 -9.182397e+00 9.174800e+00
    endloop
  endfacet
  facet normal 9.812816e-01 -1.925782e-01 0.000000e+00
    outer loop
      vertex   -2.262540e+01 -9.182397e+00 9.174800e+00
      vertex   -2.262540e+01 -9.182397e+00 9.574800e+00
      vertex   -2.264490e+01 -9.281752e+00 9.574800e+00
    endloop
  endfacet
  facet normal 9.812816e-01 -1.925782e-01 0.000000e+00
    outer loop
      vertex   -2.262540e+01 -9.182397e+00 9.174800e+00
      vertex   -2.264490e+01 -9.281752e+00 9.574800e+00
      vertex   -2.264490e+01 -9.281752e+00 9.174800e+00
    endloop
  endfacet
  facet normal 9.604758e-01 -2.783636e-01 0.000000e+00
    outer loop
      vertex   -2.264490e+01 -9.281752e+00 9.174800e+00
      vertex   -2.264490e+01 -9.281752e+00 9.574800e+00
      vertex   -2.267307e+01 -9.378954e+00 9.574800e+00
    endloop
  endfacet
  facet normal 9.604758e-01 -2.783636e-01 0.000000e+00
    outer loop
      vertex   -2.264490e+01 -9.281752e+00 9.174800e+00
      vertex   -2.267307e+01 -9.378954e+00 9.574800e+00
      vertex   -2.267307e+01 -9.378954e+00 9.174800e+00
    endloop
  endfacet
  facet normal 9.373147e-01 -3.484842e-01 0.000000e+00
    outer loop
      vertex   -2.267307e+01 -9.378954e+00 9.174800e+00
      vertex   -2.267307e+01 -9.378954e+00 9.574800e+00
      vertex   -2.270854e+01 -9.474345e+00 9.574800e+00
    endloop
  endfacet
  facet normal 9.373147e-01 -3.484842e-01 0.000000e+00
    outer loop
      vertex   -2.267307e+01 -9.378954e+00 9.174800e+00
      vertex   -2.270854e+01 -9.474345e+00 9.574800e+00
      vertex   -2.270854e+01 -9.474345e+00 9.174800e+00
    endloop
  endfacet
  facet normal 9.144624e-01 -4.046709e-01 0.000000e+00
    outer loop
      vertex   -2.270854e+01 -9.474345e+00 9.174800e+00
      vertex   -2.270854e+01 -9.474345e+00 9.574800e+00
      vertex   -2.279163e+01 -9.662109e+00 9.574800e+00
    endloop
  endfacet
  facet normal 9.144624e-01 -4.046709e-01 0.000000e+00
    outer loop
      vertex   -2.270854e+01 -9.474345e+00 9.174800e+00
      vertex   -2.279163e+01 -9.662109e+00 9.574800e+00
      vertex   -2.279163e+01 -9.662109e+00 9.174800e+00
    endloop
  endfacet
  facet normal 9.184044e-01 3.956430e-01 0.000000e+00
    outer loop
      vertex   -2.279981e+01 -8.059789e+00 9.574800e+00
      vertex   -2.271549e+01 -8.255535e+00 9.574800e+00
      vertex   -2.279981e+01 -8.059789e+00 9.174800e+00
    endloop
  endfacet
  facet normal 9.184044e-01 3.956430e-01 0.000000e+00
    outer loop
      vertex   -2.279981e+01 -8.059789e+00 9.174800e+00
      vertex   -2.271549e+01 -8.255535e+00 9.574800e+00
      vertex   -2.271549e+01 -8.255535e+00 9.174800e+00
    endloop
  endfacet
  facet normal 9.390561e-01 3.437639e-01 -0.000000e+00
    outer loop
      vertex   -2.271549e+01 -8.255535e+00 9.174800e+00
      vertex   -2.271549e+01 -8.255535e+00 9.574800e+00
      vertex   -2.267914e+01 -8.354833e+00 9.574800e+00
    endloop
  endfacet
  facet normal 9.390561e-01 3.437639e-01 0.000000e+00
    outer loop
      vertex   -2.271549e+01 -8.255535e+00 9.174800e+00
      vertex   -2.267914e+01 -8.354833e+00 9.574800e+00
      vertex   -2.267914e+01 -8.354833e+00 9.174800e+00
    endloop
  endfacet
  facet normal 9.602181e-01 2.792510e-01 -0.000000e+00
    outer loop
      vertex   -2.267914e+01 -8.354833e+00 9.174800e+00
      vertex   -2.267914e+01 -8.354833e+00 9.574800e+00
      vertex   -2.264976e+01 -8.455840e+00 9.574800e+00
    endloop
  endfacet
  facet normal 9.602181e-01 2.792510e-01 0.000000e+00
    outer loop
      vertex   -2.267914e+01 -8.354833e+00 9.174800e+00
      vertex   -2.264976e+01 -8.455840e+00 9.574800e+00
      vertex   -2.264976e+01 -8.455840e+00 9.174800e+00
    endloop
  endfacet
  facet normal 9.802157e-01 1.979325e-01 -0.000000e+00
    outer loop
      vertex   -2.264976e+01 -8.455840e+00 9.174800e+00
      vertex   -2.264976e+01 -8.455840e+00 9.574800e+00
      vertex   -2.262894e+01 -8.558945e+00 9.574800e+00
    endloop
  endfacet
  facet normal 9.802157e-01 1.979325e-01 0.000000e+00
    outer loop
      vertex   -2.264976e+01 -8.455840e+00 9.174800e+00
      vertex   -2.262894e+01 -8.558945e+00 9.574800e+00
      vertex   -2.262894e+01 -8.558945e+00 9.174800e+00
    endloop
  endfacet
  facet normal 9.914525e-01 1.304679e-01 -0.000000e+00
    outer loop
      vertex   -2.262894e+01 -8.558945e+00 9.174800e+00
      vertex   -2.262894e+01 -8.558945e+00 9.574800e+00
      vertex   -2.261515e+01 -8.663772e+00 9.574800e+00
    endloop
  endfacet
  facet normal 9.914525e-01 1.304679e-01 0.000000e+00
    outer loop
      vertex   -2.262894e+01 -8.558945e+00 9.174800e+00
      vertex   -2.261515e+01 -8.663772e+00 9.574800e+00
      vertex   -2.261515e+01 -8.663772e+00 9.174800e+00
    endloop
  endfacet
  facet normal 9.972200e-01 7.451420e-02 -0.000000e+00
    outer loop
      vertex   -2.261515e+01 -8.663772e+00 9.174800e+00
      vertex   -2.261515e+01 -8.663772e+00 9.574800e+00
      vertex   -2.259927e+01 -8.876297e+00 9.574800e+00
    endloop
  endfacet
  facet normal 9.972200e-01 7.451420e-02 0.000000e+00
    outer loop
      vertex   -2.261515e+01 -8.663772e+00 9.174800e+00
      vertex   -2.259927e+01 -8.876297e+00 9.574800e+00
      vertex   -2.259927e+01 -8.876297e+00 9.174800e+00
    endloop
  endfacet
  facet normal 6.272025e-01 7.788562e-01 0.000000e+00
    outer loop
      vertex   -2.334825e+01 -7.435643e+00 9.574800e+00
      vertex   -2.318408e+01 -7.567847e+00 9.574800e+00
      vertex   -2.334825e+01 -7.435643e+00 9.174800e+00
    endloop
  endfacet
  facet normal 6.272025e-01 7.788562e-01 0.000000e+00
    outer loop
      vertex   -2.334825e+01 -7.435643e+00 9.174800e+00
      vertex   -2.318408e+01 -7.567847e+00 9.574800e+00
      vertex   -2.318408e+01 -7.567847e+00 9.174800e+00
    endloop
  endfacet
  facet normal 6.715665e-01 7.409443e-01 -0.000000e+00
    outer loop
      vertex   -2.318408e+01 -7.567847e+00 9.174800e+00
      vertex   -2.318408e+01 -7.567847e+00 9.574800e+00
      vertex   -2.310663e+01 -7.638038e+00 9.574800e+00
    endloop
  endfacet
  facet normal 6.715665e-01 7.409443e-01 0.000000e+00
    outer loop
      vertex   -2.318408e+01 -7.567847e+00 9.174800e+00
      vertex   -2.310663e+01 -7.638038e+00 9.574800e+00
      vertex   -2.310663e+01 -7.638038e+00 9.174800e+00
    endloop
  endfacet
  facet normal 7.224581e-01 6.914147e-01 -0.000000e+00
    outer loop
      vertex   -2.310663e+01 -7.638038e+00 9.174800e+00
      vertex   -2.310663e+01 -7.638038e+00 9.574800e+00
      vertex   -2.303476e+01 -7.713135e+00 9.574800e+00
    endloop
  endfacet
  facet normal 7.224581e-01 6.914147e-01 0.000000e+00
    outer loop
      vertex   -2.310663e+01 -7.638038e+00 9.174800e+00
      vertex   -2.303476e+01 -7.713135e+00 9.574800e+00
      vertex   -2.303476e+01 -7.713135e+00 9.174800e+00
    endloop
  endfacet
  facet normal 7.795003e-01 6.264018e-01 -0.000000e+00
    outer loop
      vertex   -2.303476e+01 -7.713135e+00 9.174800e+00
      vertex   -2.303476e+01 -7.713135e+00 9.574800e+00
      vertex   -2.296964e+01 -7.794175e+00 9.574800e+00
    endloop
  endfacet
  facet normal 7.795003e-01 6.264018e-01 0.000000e+00
    outer loop
      vertex   -2.303476e+01 -7.713135e+00 9.174800e+00
      vertex   -2.296964e+01 -7.794175e+00 9.574800e+00
      vertex   -2.296964e+01 -7.794175e+00 9.174800e+00
    endloop
  endfacet
  facet normal 8.212609e-01 5.705528e-01 -0.000000e+00
    outer loop
      vertex   -2.296964e+01 -7.794175e+00 9.174800e+00
      vertex   -2.296964e+01 -7.794175e+00 9.574800e+00
      vertex   -2.290999e+01 -7.880035e+00 9.574800e+00
    endloop
  endfacet
  facet normal 8.212609e-01 5.705528e-01 0.000000e+00
    outer loop
      vertex   -2.296964e+01 -7.794175e+00 9.174800e+00
      vertex   -2.290999e+01 -7.880035e+00 9.574800e+00
      vertex   -2.290999e+01 -7.880035e+00 9.174800e+00
    endloop
  endfacet
  facet normal 8.525924e-01 5.225764e-01 -0.000000e+00
    outer loop
      vertex   -2.290999e+01 -7.880035e+00 9.174800e+00
      vertex   -2.290999e+01 -7.880035e+00 9.574800e+00
      vertex   -2.279981e+01 -8.059789e+00 9.574800e+00
    endloop
  endfacet
  facet normal 8.525924e-01 5.225764e-01 0.000000e+00
    outer loop
      vertex   -2.290999e+01 -7.880035e+00 9.174800e+00
      vertex   -2.279981e+01 -8.059789e+00 9.574800e+00
      vertex   -2.279981e+01 -8.059789e+00 9.174800e+00
    endloop
  endfacet
  facet normal -0.000000e+00 -1.000000e+00 -0.000000e+00
    outer loop
      vertex   -2.269750e+01 -7.435643e+00 9.574800e+00
      vertex   -2.334825e+01 -7.435643e+00 9.574800e+00
      vertex   -2.269750e+01 -7.435643e+00 9.174800e+00
    endloop
  endfacet
  facet normal 0.000000e+00 -1.000000e+00 0.000000e+00
    outer loop
      vertex   -2.269750e+01 -7.435643e+00 9.174800e+00
      vertex   -2.334825e+01 -7.435643e+00 9.574800e+00
      vertex   -2.334825e+01 -7.435643e+00 9.174800e+00
    endloop
  endfacet
  facet normal 1.000000e+00 0.000000e+00 0.000000e+00
    outer loop
      vertex   -2.269750e+01 -6.367430e+00 9.574800e+00
      vertex   -2.269750e+01 -7.435643e+00 9.574800e+00
      vertex   -2.269750e+01 -6.367430e+00 9.174800e+00
    endloop
  endfacet
  facet normal 1.000000e+00 0.000000e+00 0.000000e+00
    outer loop
      vertex   -2.269750e+01 -6.367430e+00 9.174800e+00
      vertex   -2.269750e+01 -7.435643e+00 9.574800e+00
      vertex   -2.269750e+01 -7.435643e+00 9.174800e+00
    endloop
  endfacet
  facet normal 0.000000e+00 -0.000000e+00 1.000000e+00
    outer loop
      vertex   -2.269750e+01 -7.435643e+00 9.574800e+00
      vertex   -2.269750e+01 -6.367430e+00 9.574800e+00
      vertex   -2.334825e+01 -7.435643e+00 9.574800e+00
    endloop
  endfacet
  facet normal 0.000000e+00 -0.000000e+00 1.000000e+00
    outer loop
      vertex   -2.334825e+01 -7.435643e+00 9.574800e+00
      vertex   -2.269750e+01 -6.367430e+00 9.574800e+00
      vertex   -2.432852e+01 -7.554707e+00 9.574800e+00
    endloop
  endfacet
  facet normal 0.000000e+00 0.000000e+00 1.000000e+00
    outer loop
      vertex   -2.334825e+01 -7.435643e+00 9.574800e+00
      vertex   -2.432852e+01 -7.554707e+00 9.574800e+00
      vertex   -2.403788e+01 -7.603446e+00 9.574800e+00
    endloop
  endfacet
  facet normal 0.000000e+00 -1.547052e-15 1.000000e+00
    outer loop
      vertex   -2.704402e+01 -6.367430e+00 9.574800e+00
      vertex   -2.491517e+01 -7.515651e+00 9.574800e+00
      vertex   -2.269750e+01 -6.367430e+00 9.574800e+00
    endloop
  endfacet
  facet normal -1.170702e-14 2.106390e-14 1.000000e+00
    outer loop
      vertex   -2.269750e+01 -6.367430e+00 9.574800e+00
      vertex   -2.491517e+01 -7.515651e+00 9.574800e+00
      vertex   -2.476783e+01 -7.518096e+00 9.574800e+00
    endloop
  endfacet
  facet normal 1.119761e-14 -2.014734e-14 1.000000e+00
    outer loop
      vertex   -2.269750e+01 -6.367430e+00 9.574800e+00
      vertex   -2.476783e+01 -7.518096e+00 9.574800e+00
      vertex   -2.462087e+01 -7.524584e+00 9.574800e+00
    endloop
  endfacet
  facet normal 0.000000e+00 0.000000e+00 1.000000e+00
    outer loop
      vertex   -2.704402e+01 -7.517498e+00 9.574800e+00
      vertex   -2.521046e+01 -7.517498e+00 9.574800e+00
      vertex   -2.704402e+01 -6.367430e+00 9.574800e+00
    endloop
  endfacet
  facet normal 5.956275e-15 9.496124e-15 1.000000e+00
    outer loop
      vertex   -2.704402e+01 -6.367430e+00 9.574800e+00
      vertex   -2.521046e+01 -7.517498e+00 9.574800e+00
      vertex   -2.491517e+01 -7.515651e+00 9.574800e+00
    endloop
  endfacet
  facet normal -2.148425e-14 3.417516e-14 1.000000e+00
    outer loop
      vertex   -2.462087e+01 -7.524584e+00 9.574800e+00
      vertex   -2.447440e+01 -7.536463e+00 9.574800e+00
      vertex   -2.269750e+01 -6.367430e+00 9.574800e+00
    endloop
  endfacet
  facet normal 1.039131e-14 -1.427508e-14 1.000000e+00
    outer loop
      vertex   -2.269750e+01 -6.367430e+00 9.574800e+00
      vertex   -2.447440e+01 -7.536463e+00 9.574800e+00
      vertex   -2.432852e+01 -7.554707e+00 9.574800e+00
    endloop
  endfacet
  facet normal -0.000000e+00 0.000000e+00 1.000000e+00
    outer loop
      vertex   -2.403788e+01 -7.603446e+00 9.574800e+00
      vertex   -2.392003e+01 -7.660962e+00 9.574800e+00
      vertex   -2.334825e+01 -7.435643e+00 9.574800e+00
    endloop
  endfacet
  facet normal 0.000000e+00 0.000000e+00 1.000000e+00
    outer loop
      vertex   -2.334825e+01 -7.435643e+00 9.574800e+00
      vertex   -2.392003e+01 -7.660962e+00 9.574800e+00
      vertex   -2.386417e+01 -7.693605e+00 9.574800e+00
    endloop
  endfacet
  facet normal 0.000000e+00 0.000000e+00 1.000000e+00
    outer loop
      vertex   -2.334825e+01 -7.435643e+00 9.574800e+00
      vertex   -2.386417e+01 -7.693605e+00 9.574800e+00
      vertex   -2.381198e+01 -7.730907e+00 9.574800e+00
    endloop
  endfacet
  facet normal -0.000000e+00 0.000000e+00 1.000000e+00
    outer loop
      vertex   -2.381198e+01 -7.730907e+00 9.574800e+00
      vertex   -2.376414e+01 -7.773724e+00 9.574800e+00
      vertex   -2.334825e+01 -7.435643e+00 9.574800e+00
    endloop
  endfacet
  facet normal 0.000000e+00 0.000000e+00 1.000000e+00
    outer loop
      vertex   -2.334825e+01 -7.435643e+00 9.574800e+00
      vertex   -2.376414e+01 -7.773724e+00 9.574800e+00
      vertex   -2.371977e+01 -7.820935e+00 9.574800e+00
    endloop
  endfacet
  facet normal 0.000000e+00 0.000000e+00 1.000000e+00
    outer loop
      vertex   -2.334825e+01 -7.435643e+00 9.574800e+00
      vertex   -2.371977e+01 -7.820935e+00 9.574800e+00
      vertex   -2.318408e+01 -7.567847e+00 9.574800e+00
    endloop
  endfacet
  facet normal 0.000000e+00 0.000000e+00 1.000000e+00
    outer loop
      vertex   -2.318408e+01 -7.567847e+00 9.574800e+00
      vertex   -2.371977e+01 -7.820935e+00 9.574800e+00
      vertex   -2.363679e+01 -7.922682e+00 9.574800e+00
    endloop
  endfacet
  facet normal 0.000000e+00 0.000000e+00 1.000000e+00
    outer loop
      vertex   -2.318408e+01 -7.567847e+00 9.574800e+00
      vertex   -2.363679e+01 -7.922682e+00 9.574800e+00
      vertex   -2.310663e+01 -7.638038e+00 9.574800e+00
    endloop
  endfacet
  facet normal 0.000000e+00 0.000000e+00 1.000000e+00
    outer loop
      vertex   -2.310663e+01 -7.638038e+00 9.574800e+00
      vertex   -2.363679e+01 -7.922682e+00 9.574800e+00
      vertex   -2.356794e+01 -8.045921e+00 9.574800e+00
    endloop
  endfacet
  facet normal 1.132846e-14 -1.281234e-14 1.000000e+00
    outer loop
      vertex   -2.310663e+01 -7.638038e+00 9.574800e+00
      vertex   -2.356794e+01 -8.045921e+00 9.574800e+00
      vertex   -2.303476e+01 -7.713135e+00 9.574800e+00
    endloop
  endfacet
  facet normal -6.892492e-15 1.638081e-14 1.000000e+00
    outer loop
      vertex   -2.303476e+01 -7.713135e+00 9.574800e+00
      vertex   -2.356794e+01 -8.045921e+00 9.574800e+00
      vertex   -2.296964e+01 -7.794175e+00 9.574800e+00
    endloop
  endfacet
  facet normal 0.000000e+00 0.000000e+00 1.000000e+00
    outer loop
      vertex   -2.296964e+01 -7.794175e+00 9.574800e+00
      vertex   -2.356794e+01 -8.045921e+00 9.574800e+00
      vertex   -2.353841e+01 -8.109044e+00 9.574800e+00
    endloop
  endfacet
  facet normal 0.000000e+00 0.000000e+00 1.000000e+00
    outer loop
      vertex   -2.296964e+01 -7.794175e+00 9.574800e+00
      vertex   -2.353841e+01 -8.109044e+00 9.574800e+00
      vertex   -2.290999e+01 -7.880035e+00 9.574800e+00
    endloop
  endfacet
  facet normal 0.000000e+00 0.000000e+00 1.000000e+00
    outer loop
      vertex   -2.290999e+01 -7.880035e+00 9.574800e+00
      vertex   -2.353841e+01 -8.109044e+00 9.574800e+00
      vertex   -2.351472e+01 -8.173970e+00 9.574800e+00
    endloop
  endfacet
  facet normal 0.000000e+00 0.000000e+00 1.000000e+00
    outer loop
      vertex   -2.290999e+01 -7.880035e+00 9.574800e+00
      vertex   -2.351472e+01 -8.173970e+00 9.574800e+00
      vertex   -2.279981e+01 -8.059789e+00 9.574800e+00
    endloop
  endfacet
  facet normal 0.000000e+00 0.000000e+00 1.000000e+00
    outer loop
      vertex   -2.279981e+01 -8.059789e+00 9.574800e+00
      vertex   -2.351472e+01 -8.173970e+00 9.574800e+00
      vertex   -2.349813e+01 -8.241078e+00 9.574800e+00
    endloop
  endfacet
  facet normal 0.000000e+00 0.000000e+00 1.000000e+00
    outer loop
      vertex   -2.279981e+01 -8.059789e+00 9.574800e+00
      vertex   -2.349813e+01 -8.241078e+00 9.574800e+00
      vertex   -2.348727e+01 -8.309953e+00 9.574800e+00
    endloop
  endfacet
  facet normal 0.000000e+00 0.000000e+00 1.000000e+00
    outer loop
      vertex   -2.279981e+01 -8.059789e+00 9.574800e+00
      vertex   -2.348727e+01 -8.309953e+00 9.574800e+00
      vertex   -2.271549e+01 -8.255535e+00 9.574800e+00
    endloop
  endfacet
  facet normal 0.000000e+00 0.000000e+00 1.000000e+00
    outer loop
      vertex   -2.271549e+01 -8.255535e+00 9.574800e+00
      vertex   -2.348727e+01 -8.309953e+00 9.574800e+00
      vertex   -2.347512e+01 -8.450649e+00 9.574800e+00
    endloop
  endfacet
  facet normal 0.000000e+00 0.000000e+00 1.000000e+00
    outer loop
      vertex   -2.271549e+01 -8.255535e+00 9.574800e+00
      vertex   -2.347512e+01 -8.450649e+00 9.574800e+00
      vertex   -2.267914e+01 -8.354833e+00 9.574800e+00
    endloop
  endfacet
  facet normal 2.045362e-15 -1.699153e-14 1.000000e+00
    outer loop
      vertex   -2.267914e+01 -8.354833e+00 9.574800e+00
      vertex   -2.347512e+01 -8.450649e+00 9.574800e+00
      vertex   -2.264976e+01 -8.455840e+00 9.574800e+00
    endloop
  endfacet
  facet normal 2.151355e-15 -1.383984e-16 1.000000e+00
    outer loop
      vertex   -2.264976e+01 -8.455840e+00 9.574800e+00
      vertex   -2.347512e+01 -8.450649e+00 9.574800e+00
      vertex   -2.348240e+01 -8.563793e+00 9.574800e+00
    endloop
  endfacet
  facet normal -9.774853e-17 1.720888e-14 1.000000e+00
    outer loop
      vertex   -2.264976e+01 -8.455840e+00 9.574800e+00
      vertex   -2.348240e+01 -8.563793e+00 9.574800e+00
      vertex   -2.262894e+01 -8.558945e+00 9.574800e+00
    endloop
  endfacet
  facet normal 3.640705e-16 -6.409555e-14 1.000000e+00
    outer loop
      vertex   -2.262894e+01 -8.558945e+00 9.574800e+00
      vertex   -2.348240e+01 -8.563793e+00 9.574800e+00
      vertex   -2.348979e+01 -8.619263e+00 9.574800e+00
    endloop
  endfacet
  facet normal -4.089308e-15 -5.381231e-16 1.000000e+00
    outer loop
      vertex   -2.262894e+01 -8.558945e+00 9.574800e+00
      vertex   -2.348979e+01 -8.619263e+00 9.574800e+00
      vertex   -2.261515e+01 -8.663772e+00 9.574800e+00
    endloop
  endfacet
  facet normal -7.151108e-16 6.576736e-14 1.000000e+00
    outer loop
      vertex   -2.261515e+01 -8.663772e+00 9.574800e+00
      vertex   -2.348979e+01 -8.619263e+00 9.574800e+00
      vertex   -2.350167e+01 -8.673412e+00 9.574800e+00
    endloop
  endfacet
  facet normal 0.000000e+00 0.000000e+00 1.000000e+00
    outer loop
      vertex   -2.261515e+01 -8.663772e+00 9.574800e+00
      vertex   -2.350167e+01 -8.673412e+00 9.574800e+00
      vertex   -2.259927e+01 -8.876297e+00 9.574800e+00
    endloop
  endfacet
  facet normal 0.000000e+00 0.000000e+00 1.000000e+00
    outer loop
      vertex   -2.259927e+01 -8.876297e+00 9.574800e+00
      vertex   -2.350167e+01 -8.673412e+00 9.574800e+00
      vertex   -2.351932e+01 -8.725868e+00 9.574800e+00
    endloop
  endfacet
  facet normal 0.000000e+00 0.000000e+00 1.000000e+00
    outer loop
      vertex   -2.259927e+01 -8.876297e+00 9.574800e+00
      vertex   -2.351932e+01 -8.725868e+00 9.574800e+00
      vertex   -2.354202e+01 -8.776838e+00 9.574800e+00
    endloop
  endfacet
  facet normal 0.000000e+00 0.000000e+00 1.000000e+00
    outer loop
      vertex   -2.259927e+01 -8.876297e+00 9.574800e+00
      vertex   -2.354202e+01 -8.776838e+00 9.574800e+00
      vertex   -2.261284e+01 -9.081320e+00 9.574800e+00
    endloop
  endfacet
  facet normal 0.000000e+00 0.000000e+00 1.000000e+00
    outer loop
      vertex   -2.261284e+01 -9.081320e+00 9.574800e+00
      vertex   -2.354202e+01 -8.776838e+00 9.574800e+00
      vertex   -2.359586e+01 -8.876297e+00 9.574800e+00
    endloop
  endfacet
  facet normal 0.000000e+00 0.000000e+00 1.000000e+00
    outer loop
      vertex   -2.261284e+01 -9.081320e+00 9.574800e+00
      vertex   -2.359586e+01 -8.876297e+00 9.574800e+00
      vertex   -2.262540e+01 -9.182397e+00 9.574800e+00
    endloop
  endfacet
  facet normal 0.000000e+00 0.000000e+00 1.000000e+00
    outer loop
      vertex   -2.262540e+01 -9.182397e+00 9.574800e+00
      vertex   -2.359586e+01 -8.876297e+00 9.574800e+00
      vertex   -2.264490e+01 -9.281752e+00 9.574800e+00
    endloop
  endfacet
  facet normal 0.000000e+00 0.000000e+00 1.000000e+00
    outer loop
      vertex   -2.264490e+01 -9.281752e+00 9.574800e+00
      vertex   -2.359586e+01 -8.876297e+00 9.574800e+00
      vertex   -2.267307e+01 -9.378954e+00 9.574800e+00
    endloop
  endfacet
  facet normal 0.000000e+00 0.000000e+00 1.000000e+00
    outer loop
      vertex   -2.267307e+01 -9.378954e+00 9.574800e+00
      vertex   -2.359586e+01 -8.876297e+00 9.574800e+00
      vertex   -2.366426e+01 -8.953075e+00 9.574800e+00
    endloop
  endfacet
  facet normal 0.000000e+00 0.000000e+00 1.000000e+00
    outer loop
      vertex   -2.267307e+01 -9.378954e+00 9.574800e+00
      vertex   -2.366426e+01 -8.953075e+00 9.574800e+00
      vertex   -2.270854e+01 -9.474345e+00 9.574800e+00
    endloop
  endfacet
  facet normal 0.000000e+00 0.000000e+00 1.000000e+00
    outer loop
      vertex   -2.270854e+01 -9.474345e+00 9.574800e+00
      vertex   -2.366426e+01 -8.953075e+00 9.574800e+00
      vertex   -2.370077e+01 -8.988201e+00 9.574800e+00
    endloop
  endfacet
  facet normal 0.000000e+00 0.000000e+00 1.000000e+00
    outer loop
      vertex   -2.270854e+01 -9.474345e+00 9.574800e+00
      vertex   -2.370077e+01 -8.988201e+00 9.574800e+00
      vertex   -2.279163e+01 -9.662109e+00 9.574800e+00
    endloop
  endfacet
  facet normal 0.000000e+00 0.000000e+00 1.000000e+00
    outer loop
      vertex   -2.279163e+01 -9.662109e+00 9.574800e+00
      vertex   -2.370077e+01 -8.988201e+00 9.574800e+00
      vertex   -2.374007e+01 -9.019414e+00 9.574800e+00
    endloop
  endfacet
  facet normal 0.000000e+00 0.000000e+00 1.000000e+00
    outer loop
      vertex   -2.279163e+01 -9.662109e+00 9.574800e+00
      vertex   -2.374007e+01 -9.019414e+00 9.574800e+00
      vertex   -2.289792e+01 -9.818952e+00 9.574800e+00
    endloop
  endfacet
  facet normal 0.000000e+00 0.000000e+00 1.000000e+00
    outer loop
      vertex   -2.289792e+01 -9.818952e+00 9.574800e+00
      vertex   -2.374007e+01 -9.019414e+00 9.574800e+00
      vertex   -2.378271e+01 -9.045902e+00 9.574800e+00
    endloop
  endfacet
  facet normal 0.000000e+00 0.000000e+00 1.000000e+00
    outer loop
      vertex   -2.289792e+01 -9.818952e+00 9.574800e+00
      vertex   -2.378271e+01 -9.045902e+00 9.574800e+00
      vertex   -2.295593e+01 -9.892135e+00 9.574800e+00
    endloop
  endfacet
  facet normal 0.000000e+00 0.000000e+00 1.000000e+00
    outer loop
      vertex   -2.295593e+01 -9.892135e+00 9.574800e+00
      vertex   -2.378271e+01 -9.045902e+00 9.574800e+00
      vertex   -2.301978e+01 -9.959030e+00 9.574800e+00
    endloop
  endfacet
  facet normal 0.000000e+00 0.000000e+00 1.000000e+00
    outer loop
      vertex   -2.301978e+01 -9.959030e+00 9.574800e+00
      vertex   -2.378271e+01 -9.045902e+00 9.574800e+00
      vertex   -2.382806e+01 -9.068570e+00 9.574800e+00
    endloop
  endfacet
  facet normal 0.000000e+00 0.000000e+00 1.000000e+00
    outer loop
      vertex   -2.301978e+01 -9.959030e+00 9.574800e+00
      vertex   -2.382806e+01 -9.068570e+00 9.574800e+00
      vertex   -2.309084e+01 -1.001816e+01 9.574800e+00
    endloop
  endfacet
  facet normal 0.000000e+00 0.000000e+00 1.000000e+00
    outer loop
      vertex   -2.309084e+01 -1.001816e+01 9.574800e+00
      vertex   -2.382806e+01 -9.068570e+00 9.574800e+00
      vertex   -2.316787e+01 -1.007085e+01 9.574800e+00
    endloop
  endfacet
  facet normal 0.000000e+00 0.000000e+00 1.000000e+00
    outer loop
      vertex   -2.316787e+01 -1.007085e+01 9.574800e+00
      vertex   -2.382806e+01 -9.068570e+00 9.574800e+00
      vertex   -2.392328e+01 -9.107539e+00 9.574800e+00
    endloop
  endfacet
  facet normal 0.000000e+00 0.000000e+00 1.000000e+00
    outer loop
      vertex   -2.316787e+01 -1.007085e+01 9.574800e+00
      vertex   -2.392328e+01 -9.107539e+00 9.574800e+00
      vertex   -2.333187e+01 -1.016552e+01 9.574800e+00
    endloop
  endfacet
  facet normal 0.000000e+00 0.000000e+00 1.000000e+00
    outer loop
      vertex   -2.333187e+01 -1.016552e+01 9.574800e+00
      vertex   -2.392328e+01 -9.107539e+00 9.574800e+00
      vertex   -2.356627e+01 -1.023914e+01 9.574800e+00
    endloop
  endfacet
  facet normal 0.000000e+00 0.000000e+00 1.000000e+00
    outer loop
      vertex   -2.356627e+01 -1.023914e+01 9.574800e+00
      vertex   -2.392328e+01 -9.107539e+00 9.574800e+00
      vertex   -2.368460e+01 -1.026942e+01 9.574800e+00
    endloop
  endfacet
  facet normal 0.000000e+00 0.000000e+00 1.000000e+00
    outer loop
      vertex   -2.368460e+01 -1.026942e+01 9.574800e+00
      vertex   -2.392328e+01 -9.107539e+00 9.574800e+00
      vertex   -2.380429e+01 -1.029195e+01 9.574800e+00
    endloop
  endfacet
  facet normal 0.000000e+00 0.000000e+00 1.000000e+00
    outer loop
      vertex   -2.380429e+01 -1.029195e+01 9.574800e+00
      vertex   -2.392328e+01 -9.107539e+00 9.574800e+00
      vertex   -2.392538e+01 -1.030640e+01 9.574800e+00
    endloop
  endfacet
  facet normal 0.000000e+00 -0.000000e+00 1.000000e+00
    outer loop
      vertex   -2.392538e+01 -1.030640e+01 9.574800e+00
      vertex   -2.392328e+01 -9.107539e+00 9.574800e+00
      vertex   -2.420262e+01 -9.144463e+00 9.574800e+00
    endloop
  endfacet
  facet normal 0.000000e+00 0.000000e+00 1.000000e+00
    outer loop
      vertex   -2.392538e+01 -1.030640e+01 9.574800e+00
      vertex   -2.420262e+01 -9.144463e+00 9.574800e+00
      vertex   -2.404755e+01 -1.031469e+01 9.574800e+00
    endloop
  endfacet
  facet normal 0.000000e+00 0.000000e+00 1.000000e+00
    outer loop
      vertex   -2.404755e+01 -1.031469e+01 9.574800e+00
      vertex   -2.420262e+01 -9.144463e+00 9.574800e+00
      vertex   -2.429368e+01 -1.032104e+01 9.574800e+00
    endloop
  endfacet
  facet normal 0.000000e+00 -0.000000e+00 1.000000e+00
    outer loop
      vertex   -2.429368e+01 -1.032104e+01 9.574800e+00
      vertex   -2.420262e+01 -9.144463e+00 9.574800e+00
      vertex   -2.434264e+01 -9.158061e+00 9.574800e+00
    endloop
  endfacet
  facet normal 0.000000e+00 0.000000e+00 1.000000e+00
    outer loop
      vertex   -2.429368e+01 -1.032104e+01 9.574800e+00
      vertex   -2.434264e+01 -9.158061e+00 9.574800e+00
      vertex   -2.448302e+01 -9.166766e+00 9.574800e+00
    endloop
  endfacet
  facet normal 0.000000e+00 0.000000e+00 1.000000e+00
    outer loop
      vertex   -2.448302e+01 -9.166766e+00 9.574800e+00
      vertex   -2.476459e+01 -9.172952e+00 9.574800e+00
      vertex   -2.429368e+01 -1.032104e+01 9.574800e+00
    endloop
  endfacet
  facet normal 0.000000e+00 0.000000e+00 1.000000e+00
    outer loop
      vertex   -2.429368e+01 -1.032104e+01 9.574800e+00
      vertex   -2.476459e+01 -9.172952e+00 9.574800e+00
      vertex   -2.504674e+01 -9.170977e+00 9.574800e+00
    endloop
  endfacet
  facet normal 0.000000e+00 0.000000e+00 1.000000e+00
    outer loop
      vertex   -2.429368e+01 -1.032104e+01 9.574800e+00
      vertex   -2.504674e+01 -9.170977e+00 9.574800e+00
      vertex   -2.704402e+01 -1.032104e+01 9.574800e+00
    endloop
  endfacet
  facet normal 0.000000e+00 0.000000e+00 1.000000e+00
    outer loop
      vertex   -2.704402e+01 -1.032104e+01 9.574800e+00
      vertex   -2.504674e+01 -9.170977e+00 9.574800e+00
      vertex   -2.704402e+01 -9.170977e+00 9.574800e+00
    endloop
  endfacet
  facet normal 0.000000e+00 0.000000e+00 -1.000000e+00
    outer loop
      vertex   -2.269750e+01 -7.435643e+00 9.174800e+00
      vertex   -2.334825e+01 -7.435643e+00 9.174800e+00
      vertex   -2.269750e+01 -6.367430e+00 9.174800e+00
    endloop
  endfacet
  facet normal 0.000000e+00 0.000000e+00 -1.000000e+00
    outer loop
      vertex   -2.269750e+01 -6.367430e+00 9.174800e+00
      vertex   -2.334825e+01 -7.435643e+00 9.174800e+00
      vertex   -2.432852e+01 -7.554707e+00 9.174800e+00
    endloop
  endfacet
  facet normal 0.000000e+00 0.000000e+00 -1.000000e+00
    outer loop
      vertex   -2.269750e+01 -6.367430e+00 9.174800e+00
      vertex   -2.432852e+01 -7.554707e+00 9.174800e+00
      vertex   -2.447440e+01 -7.536463e+00 9.174800e+00
    endloop
  endfacet
  facet normal -0.000000e+00 0.000000e+00 -1.000000e+00
    outer loop
      vertex   -2.318408e+01 -7.567847e+00 9.174800e+00
      vertex   -2.371977e+01 -7.820935e+00 9.174800e+00
      vertex   -2.334825e+01 -7.435643e+00 9.174800e+00
    endloop
  endfacet
  facet normal -1.975915e-14 1.905286e-14 -1.000000e+00
    outer loop
      vertex   -2.334825e+01 -7.435643e+00 9.174800e+00
      vertex   -2.371977e+01 -7.820935e+00 9.174800e+00
      vertex   -2.376414e+01 -7.773724e+00 9.174800e+00
    endloop
  endfacet
  facet normal 1.543476e-14 -2.424161e-14 -1.000000e+00
    outer loop
      vertex   -2.334825e+01 -7.435643e+00 9.174800e+00
      vertex   -2.376414e+01 -7.773724e+00 9.174800e+00
      vertex   -2.381198e+01 -7.730907e+00 9.174800e+00
    endloop
  endfacet
  facet normal 0.000000e+00 0.000000e+00 -1.000000e+00
    outer loop
      vertex   -2.371977e+01 -7.820935e+00 9.174800e+00
      vertex   -2.318408e+01 -7.567847e+00 9.174800e+00
      vertex   -2.363679e+01 -7.922682e+00 9.174800e+00
    endloop
  endfacet
  facet normal 0.000000e+00 0.000000e+00 -1.000000e+00
    outer loop
      vertex   -2.363679e+01 -7.922682e+00 9.174800e+00
      vertex   -2.318408e+01 -7.567847e+00 9.174800e+00
      vertex   -2.310663e+01 -7.638038e+00 9.174800e+00
    endloop
  endfacet
  facet normal 0.000000e+00 0.000000e+00 -1.000000e+00
    outer loop
      vertex   -2.363679e+01 -7.922682e+00 9.174800e+00
      vertex   -2.310663e+01 -7.638038e+00 9.174800e+00
      vertex   -2.356794e+01 -8.045921e+00 9.174800e+00
    endloop
  endfacet
  facet normal 0.000000e+00 0.000000e+00 -1.000000e+00
    outer loop
      vertex   -2.356794e+01 -8.045921e+00 9.174800e+00
      vertex   -2.310663e+01 -7.638038e+00 9.174800e+00
      vertex   -2.303476e+01 -7.713135e+00 9.174800e+00
    endloop
  endfacet
  facet normal 9.111256e-15 -1.459782e-14 -1.000000e+00
    outer loop
      vertex   -2.356794e+01 -8.045921e+00 9.174800e+00
      vertex   -2.303476e+01 -7.713135e+00 9.174800e+00
      vertex   -2.296964e+01 -7.794175e+00 9.174800e+00
    endloop
  endfacet
  facet normal 2.480548e-15 1.160822e-15 -1.000000e+00
    outer loop
      vertex   -2.356794e+01 -8.045921e+00 9.174800e+00
      vertex   -2.296964e+01 -7.794175e+00 9.174800e+00
      vertex   -2.353841e+01 -8.109044e+00 9.174800e+00
    endloop
  endfacet
  facet normal -6.016344e-15 1.650922e-14 -1.000000e+00
    outer loop
      vertex   -2.353841e+01 -8.109044e+00 9.174800e+00
      vertex   -2.296964e+01 -7.794175e+00 9.174800e+00
      vertex   -2.290999e+01 -7.880035e+00 9.174800e+00
    endloop
  endfacet
  facet normal 8.800658e-15 -2.414956e-14 -1.000000e+00
    outer loop
      vertex   -2.353841e+01 -8.109044e+00 9.174800e+00
      vertex   -2.290999e+01 -7.880035e+00 9.174800e+00
      vertex   -2.351472e+01 -8.173970e+00 9.174800e+00
    endloop
  endfacet
  facet normal -2.263183e-15 -1.387165e-15 -1.000000e+00
    outer loop
      vertex   -2.351472e+01 -8.173970e+00 9.174800e+00
      vertex   -2.290999e+01 -7.880035e+00 9.174800e+00
      vertex   -2.279981e+01 -8.059789e+00 9.174800e+00
    endloop
  endfacet
  facet normal -6.457317e-15 2.487319e-14 -1.000000e+00
    outer loop
      vertex   -2.351472e+01 -8.173970e+00 9.174800e+00
      vertex   -2.279981e+01 -8.059789e+00 9.174800e+00
      vertex   -2.349813e+01 -8.241078e+00 9.174800e+00
    endloop
  endfacet
  facet normal 0.000000e+00 0.000000e+00 -1.000000e+00
    outer loop
      vertex   -2.349813e+01 -8.241078e+00 9.174800e+00
      vertex   -2.279981e+01 -8.059789e+00 9.174800e+00
      vertex   -2.348727e+01 -8.309953e+00 9.174800e+00
    endloop
  endfacet
  facet normal 0.000000e+00 0.000000e+00 -1.000000e+00
    outer loop
      vertex   -2.348727e+01 -8.309953e+00 9.174800e+00
      vertex   -2.279981e+01 -8.059789e+00 9.174800e+00
      vertex   -2.271549e+01 -8.255535e+00 9.174800e+00
    endloop
  endfacet
  facet normal 0.000000e+00 0.000000e+00 -1.000000e+00
    outer loop
      vertex   -2.348727e+01 -8.309953e+00 9.174800e+00
      vertex   -2.271549e+01 -8.255535e+00 9.174800e+00
      vertex   -2.347512e+01 -8.450649e+00 9.174800e+00
    endloop
  endfacet
  facet normal 0.000000e+00 0.000000e+00 -1.000000e+00
    outer loop
      vertex   -2.347512e+01 -8.450649e+00 9.174800e+00
      vertex   -2.271549e+01 -8.255535e+00 9.174800e+00
      vertex   -2.267914e+01 -8.354833e+00 9.174800e+00
    endloop
  endfacet
  facet normal 0.000000e+00 0.000000e+00 -1.000000e+00
    outer loop
      vertex   -2.347512e+01 -8.450649e+00 9.174800e+00
      vertex   -2.267914e+01 -8.354833e+00 9.174800e+00
      vertex   -2.264976e+01 -8.455840e+00 9.174800e+00
    endloop
  endfacet
  facet normal 0.000000e+00 -0.000000e+00 -1.000000e+00
    outer loop
      vertex   -2.347512e+01 -8.450649e+00 9.174800e+00
      vertex   -2.264976e+01 -8.455840e+00 9.174800e+00
      vertex   -2.348240e+01 -8.563793e+00 9.174800e+00
    endloop
  endfacet
  facet normal 0.000000e+00 0.000000e+00 -1.000000e+00
    outer loop
      vertex   -2.348240e+01 -8.563793e+00 9.174800e+00
      vertex   -2.264976e+01 -8.455840e+00 9.174800e+00
      vertex   -2.262894e+01 -8.558945e+00 9.174800e+00
    endloop
  endfacet
  facet normal 0.000000e+00 -0.000000e+00 -1.000000e+00
    outer loop
      vertex   -2.348240e+01 -8.563793e+00 9.174800e+00
      vertex   -2.262894e+01 -8.558945e+00 9.174800e+00
      vertex   -2.348979e+01 -8.619263e+00 9.174800e+00
    endloop
  endfacet
  facet normal 0.000000e+00 0.000000e+00 -1.000000e+00
    outer loop
      vertex   -2.348979e+01 -8.619263e+00 9.174800e+00
      vertex   -2.262894e+01 -8.558945e+00 9.174800e+00
      vertex   -2.261515e+01 -8.663772e+00 9.174800e+00
    endloop
  endfacet
  facet normal 0.000000e+00 -0.000000e+00 -1.000000e+00
    outer loop
      vertex   -2.348979e+01 -8.619263e+00 9.174800e+00
      vertex   -2.261515e+01 -8.663772e+00 9.174800e+00
      vertex   -2.350167e+01 -8.673412e+00 9.174800e+00
    endloop
  endfacet
  facet normal 0.000000e+00 0.000000e+00 -1.000000e+00
    outer loop
      vertex   -2.350167e+01 -8.673412e+00 9.174800e+00
      vertex   -2.261515e+01 -8.663772e+00 9.174800e+00
      vertex   -2.259927e+01 -8.876297e+00 9.174800e+00
    endloop
  endfacet
  facet normal 0.000000e+00 -0.000000e+00 -1.000000e+00
    outer loop
      vertex   -2.350167e+01 -8.673412e+00 9.174800e+00
      vertex   -2.259927e+01 -8.876297e+00 9.174800e+00
      vertex   -2.351932e+01 -8.725868e+00 9.174800e+00
    endloop
  endfacet
  facet normal 0.000000e+00 -0.000000e+00 -1.000000e+00
    outer loop
      vertex   -2.351932e+01 -8.725868e+00 9.174800e+00
      vertex   -2.259927e+01 -8.876297e+00 9.174800e+00
      vertex   -2.354202e+01 -8.776838e+00 9.174800e+00
    endloop
  endfacet
  facet normal 0.000000e+00 0.000000e+00 -1.000000e+00
    outer loop
      vertex   -2.354202e+01 -8.776838e+00 9.174800e+00
      vertex   -2.259927e+01 -8.876297e+00 9.174800e+00
      vertex   -2.261284e+01 -9.081320e+00 9.174800e+00
    endloop
  endfacet
  facet normal 0.000000e+00 -0.000000e+00 -1.000000e+00
    outer loop
      vertex   -2.354202e+01 -8.776838e+00 9.174800e+00
      vertex   -2.261284e+01 -9.081320e+00 9.174800e+00
      vertex   -2.359586e+01 -8.876297e+00 9.174800e+00
    endloop
  endfacet
  facet normal 0.000000e+00 0.000000e+00 -1.000000e+00
    outer loop
      vertex   -2.359586e+01 -8.876297e+00 9.174800e+00
      vertex   -2.261284e+01 -9.081320e+00 9.174800e+00
      vertex   -2.262540e+01 -9.182397e+00 9.174800e+00
    endloop
  endfacet
  facet normal 0.000000e+00 0.000000e+00 -1.000000e+00
    outer loop
      vertex   -2.359586e+01 -8.876297e+00 9.174800e+00
      vertex   -2.262540e+01 -9.182397e+00 9.174800e+00
      vertex   -2.264490e+01 -9.281752e+00 9.174800e+00
    endloop
  endfacet
  facet normal -0.000000e+00 0.000000e+00 -1.000000e+00
    outer loop
      vertex   -2.264490e+01 -9.281752e+00 9.174800e+00
      vertex   -2.267307e+01 -9.378954e+00 9.174800e+00
      vertex   -2.359586e+01 -8.876297e+00 9.174800e+00
    endloop
  endfacet
  facet normal 0.000000e+00 -0.000000e+00 -1.000000e+00
    outer loop
      vertex   -2.359586e+01 -8.876297e+00 9.174800e+00
      vertex   -2.267307e+01 -9.378954e+00 9.174800e+00
      vertex   -2.366426e+01 -8.953075e+00 9.174800e+00
    endloop
  endfacet
  facet normal 0.000000e+00 0.000000e+00 -1.000000e+00
    outer loop
      vertex   -2.366426e+01 -8.953075e+00 9.174800e+00
      vertex   -2.267307e+01 -9.378954e+00 9.174800e+00
      vertex   -2.270854e+01 -9.474345e+00 9.174800e+00
    endloop
  endfacet
  facet normal 0.000000e+00 -0.000000e+00 -1.000000e+00
    outer loop
      vertex   -2.366426e+01 -8.953075e+00 9.174800e+00
      vertex   -2.270854e+01 -9.474345e+00 9.174800e+00
      vertex   -2.370077e+01 -8.988201e+00 9.174800e+00
    endloop
  endfacet
  facet normal 0.000000e+00 0.000000e+00 -1.000000e+00
    outer loop
      vertex   -2.370077e+01 -8.988201e+00 9.174800e+00
      vertex   -2.270854e+01 -9.474345e+00 9.174800e+00
      vertex   -2.279163e+01 -9.662109e+00 9.174800e+00
    endloop
  endfacet
  facet normal 0.000000e+00 -0.000000e+00 -1.000000e+00
    outer loop
      vertex   -2.370077e+01 -8.988201e+00 9.174800e+00
      vertex   -2.279163e+01 -9.662109e+00 9.174800e+00
      vertex   -2.374007e+01 -9.019414e+00 9.174800e+00
    endloop
  endfacet
  facet normal 0.000000e+00 0.000000e+00 -1.000000e+00
    outer loop
      vertex   -2.374007e+01 -9.019414e+00 9.174800e+00
      vertex   -2.279163e+01 -9.662109e+00 9.174800e+00
      vertex   -2.289792e+01 -9.818952e+00 9.174800e+00
    endloop
  endfacet
  facet normal 0.000000e+00 -0.000000e+00 -1.000000e+00
    outer loop
      vertex   -2.374007e+01 -9.019414e+00 9.174800e+00
      vertex   -2.289792e+01 -9.818952e+00 9.174800e+00
      vertex   -2.378271e+01 -9.045902e+00 9.174800e+00
    endloop
  endfacet
  facet normal 0.000000e+00 0.000000e+00 -1.000000e+00
    outer loop
      vertex   -2.378271e+01 -9.045902e+00 9.174800e+00
      vertex   -2.289792e+01 -9.818952e+00 9.174800e+00
      vertex   -2.295593e+01 -9.892135e+00 9.174800e+00
    endloop
  endfacet
  facet normal -1.374850e-14 -1.343237e-14 -1.000000e+00
    outer loop
      vertex   -2.378271e+01 -9.045902e+00 9.174800e+00
      vertex   -2.295593e+01 -9.892135e+00 9.174800e+00
      vertex   -2.301978e+01 -9.959030e+00 9.174800e+00
    endloop
  endfacet
  facet normal 6.859010e-16 -1.372277e-15 -1.000000e+00
    outer loop
      vertex   -2.378271e+01 -9.045902e+00 9.174800e+00
      vertex   -2.301978e+01 -9.959030e+00 9.174800e+00
      vertex   -2.382806e+01 -9.068570e+00 9.174800e+00
    endloop
  endfacet
  facet normal 1.518755e-14 1.179102e-14 -1.000000e+00
    outer loop
      vertex   -2.382806e+01 -9.068570e+00 9.174800e+00
      vertex   -2.301978e+01 -9.959030e+00 9.174800e+00
      vertex   -2.309084e+01 -1.001816e+01 9.174800e+00
    endloop
  endfacet
  facet normal 0.000000e+00 0.000000e+00 -1.000000e+00
    outer loop
      vertex   -2.382806e+01 -9.068570e+00 9.174800e+00
      vertex   -2.309084e+01 -1.001816e+01 9.174800e+00
      vertex   -2.316787e+01 -1.007085e+01 9.174800e+00
    endloop
  endfacet
  facet normal 0.000000e+00 -0.000000e+00 -1.000000e+00
    outer loop
      vertex   -2.382806e+01 -9.068570e+00 9.174800e+00
      vertex   -2.316787e+01 -1.007085e+01 9.174800e+00
      vertex   -2.392328e+01 -9.107539e+00 9.174800e+00
    endloop
  endfacet
  facet normal 0.000000e+00 0.000000e+00 -1.000000e+00
    outer loop
      vertex   -2.392328e+01 -9.107539e+00 9.174800e+00
      vertex   -2.316787e+01 -1.007085e+01 9.174800e+00
      vertex   -2.333187e+01 -1.016552e+01 9.174800e+00
    endloop
  endfacet
  facet normal 0.000000e+00 0.000000e+00 -1.000000e+00
    outer loop
      vertex   -2.392328e+01 -9.107539e+00 9.174800e+00
      vertex   -2.333187e+01 -1.016552e+01 9.174800e+00
      vertex   -2.356627e+01 -1.023914e+01 9.174800e+00
    endloop
  endfacet
  facet normal -0.000000e+00 0.000000e+00 -1.000000e+00
    outer loop
      vertex   -2.356627e+01 -1.023914e+01 9.174800e+00
      vertex   -2.368460e+01 -1.026942e+01 9.174800e+00
      vertex   -2.392328e+01 -9.107539e+00 9.174800e+00
    endloop
  endfacet
  facet normal 0.000000e+00 0.000000e+00 -1.000000e+00
    outer loop
      vertex   -2.392328e+01 -9.107539e+00 9.174800e+00
      vertex   -2.368460e+01 -1.026942e+01 9.174800e+00
      vertex   -2.380429e+01 -1.029195e+01 9.174800e+00
    endloop
  endfacet
  facet normal 0.000000e+00 -0.000000e+00 -1.000000e+00
    outer loop
      vertex   -2.392328e+01 -9.107539e+00 9.174800e+00
      vertex   -2.380429e+01 -1.029195e+01 9.174800e+00
      vertex   -2.392538e+01 -1.030640e+01 9.174800e+00
    endloop
  endfacet
  facet normal 0.000000e+00 0.000000e+00 -1.000000e+00
    outer loop
      vertex   -2.392328e+01 -9.107539e+00 9.174800e+00
      vertex   -2.392538e+01 -1.030640e+01 9.174800e+00
      vertex   -2.420262e+01 -9.144463e+00 9.174800e+00
    endloop
  endfacet
  facet normal 0.000000e+00 0.000000e+00 -1.000000e+00
    outer loop
      vertex   -2.420262e+01 -9.144463e+00 9.174800e+00
      vertex   -2.392538e+01 -1.030640e+01 9.174800e+00
      vertex   -2.404755e+01 -1.031469e+01 9.174800e+00
    endloop
  endfacet
  facet normal 0.000000e+00 -0.000000e+00 -1.000000e+00
    outer loop
      vertex   -2.420262e+01 -9.144463e+00 9.174800e+00
      vertex   -2.404755e+01 -1.031469e+01 9.174800e+00
      vertex   -2.429368e+01 -1.032104e+01 9.174800e+00
    endloop
  endfacet
  facet normal 0.000000e+00 0.000000e+00 -1.000000e+00
    outer loop
      vertex   -2.704402e+01 -1.032104e+01 9.174800e+00
      vertex   -2.504674e+01 -9.170977e+00 9.174800e+00
      vertex   -2.429368e+01 -1.032104e+01 9.174800e+00
    endloop
  endfacet
  facet normal 0.000000e+00 0.000000e+00 -1.000000e+00
    outer loop
      vertex   -2.429368e+01 -1.032104e+01 9.174800e+00
      vertex   -2.504674e+01 -9.170977e+00 9.174800e+00
      vertex   -2.476459e+01 -9.172952e+00 9.174800e+00
    endloop
  endfacet
  facet normal 0.000000e+00 0.000000e+00 -1.000000e+00
    outer loop
      vertex   -2.429368e+01 -1.032104e+01 9.174800e+00
      vertex   -2.476459e+01 -9.172952e+00 9.174800e+00
      vertex   -2.448302e+01 -9.166766e+00 9.174800e+00
    endloop
  endfacet
  facet normal 0.000000e+00 0.000000e+00 -1.000000e+00
    outer loop
      vertex   -2.704402e+01 -1.032104e+01 9.174800e+00
      vertex   -2.704402e+01 -9.170977e+00 9.174800e+00
      vertex   -2.504674e+01 -9.170977e+00 9.174800e+00
    endloop
  endfacet
  facet normal 1.252677e-14 2.054845e-15 -1.000000e+00
    outer loop
      vertex   -2.448302e+01 -9.166766e+00 9.174800e+00
      vertex   -2.434264e+01 -9.158061e+00 9.174800e+00
      vertex   -2.429368e+01 -1.032104e+01 9.174800e+00
    endloop
  endfacet
  facet normal -1.278229e-14 9.892214e-16 -1.000000e+00
    outer loop
      vertex   -2.429368e+01 -1.032104e+01 9.174800e+00
      vertex   -2.434264e+01 -9.158061e+00 9.174800e+00
      vertex   -2.420262e+01 -9.144463e+00 9.174800e+00
    endloop
  endfacet
  facet normal 0.000000e+00 0.000000e+00 -1.000000e+00
    outer loop
      vertex   -2.381198e+01 -7.730907e+00 9.174800e+00
      vertex   -2.386417e+01 -7.693605e+00 9.174800e+00
      vertex   -2.334825e+01 -7.435643e+00 9.174800e+00
    endloop
  endfacet
  facet normal 0.000000e+00 0.000000e+00 -1.000000e+00
    outer loop
      vertex   -2.334825e+01 -7.435643e+00 9.174800e+00
      vertex   -2.386417e+01 -7.693605e+00 9.174800e+00
      vertex   -2.392003e+01 -7.660962e+00 9.174800e+00
    endloop
  endfacet
  facet normal 0.000000e+00 0.000000e+00 -1.000000e+00
    outer loop
      vertex   -2.334825e+01 -7.435643e+00 9.174800e+00
      vertex   -2.392003e+01 -7.660962e+00 9.174800e+00
      vertex   -2.403788e+01 -7.603446e+00 9.174800e+00
    endloop
  endfacet
  facet normal 0.000000e+00 0.000000e+00 -1.000000e+00
    outer loop
      vertex   -2.403788e+01 -7.603446e+00 9.174800e+00
      vertex   -2.432852e+01 -7.554707e+00 9.174800e+00
      vertex   -2.334825e+01 -7.435643e+00 9.174800e+00
    endloop
  endfacet
  facet normal 0.000000e+00 0.000000e+00 -1.000000e+00
    outer loop
      vertex   -2.447440e+01 -7.536463e+00 9.174800e+00
      vertex   -2.462087e+01 -7.524584e+00 9.174800e+00
      vertex   -2.269750e+01 -6.367430e+00 9.174800e+00
    endloop
  endfacet
  facet normal 0.000000e+00 0.000000e+00 -1.000000e+00
    outer loop
      vertex   -2.269750e+01 -6.367430e+00 9.174800e+00
      vertex   -2.462087e+01 -7.524584e+00 9.174800e+00
      vertex   -2.476783e+01 -7.518096e+00 9.174800e+00
    endloop
  endfacet
  facet normal 0.000000e+00 0.000000e+00 -1.000000e+00
    outer loop
      vertex   -2.269750e+01 -6.367430e+00 9.174800e+00
      vertex   -2.476783e+01 -7.518096e+00 9.174800e+00
      vertex   -2.491517e+01 -7.515651e+00 9.174800e+00
    endloop
  endfacet
  facet normal -0.000000e+00 0.000000e+00 -1.000000e+00
    outer loop
      vertex   -2.269750e+01 -6.367430e+00 9.174800e+00
      vertex   -2.491517e+01 -7.515651e+00 9.174800e+00
      vertex   -2.704402e+01 -6.367430e+00 9.174800e+00
    endloop
  endfacet
  facet normal 0.000000e+00 0.000000e+00 -1.000000e+00
    outer loop
      vertex   -2.704402e+01 -6.367430e+00 9.174800e+00
      vertex   -2.491517e+01 -7.515651e+00 9.174800e+00
      vertex   -2.521046e+01 -7.517498e+00 9.174800e+00
    endloop
  endfacet
  facet normal 0.000000e+00 0.000000e+00 -1.000000e+00
    outer loop
      vertex   -2.704402e+01 -6.367430e+00 9.174800e+00
      vertex   -2.521046e+01 -7.517498e+00 9.174800e+00
      vertex   -2.704402e+01 -7.517498e+00 9.174800e+00
    endloop
  endfacet
endsolid
