solid ASCII
  facet normal -1.000000e+00 0.000000e+00 0.000000e+00
    outer loop
      vertex   -7.568656e+00 -1.047705e+01 9.574800e+00
      vertex   -7.568656e+00 -9.543903e+00 9.574800e+00
      vertex   -7.568656e+00 -1.047705e+01 9.174800e+00
    endloop
  endfacet
  facet normal -1.000000e+00 0.000000e+00 0.000000e+00
    outer loop
      vertex   -7.568656e+00 -1.047705e+01 9.174800e+00
      vertex   -7.568656e+00 -9.543903e+00 9.574800e+00
      vertex   -7.568656e+00 -9.543903e+00 9.174800e+00
    endloop
  endfacet
  facet normal -7.533715e-01 -6.575951e-01 -0.000000e+00
    outer loop
      vertex   -6.608902e+00 -1.120147e+01 9.574800e+00
      vertex   -6.710004e+00 -1.108565e+01 9.574800e+00
      vertex   -6.608902e+00 -1.120147e+01 9.174800e+00
    endloop
  endfacet
  facet normal -7.533715e-01 -6.575951e-01 0.000000e+00
    outer loop
      vertex   -6.608902e+00 -1.120147e+01 9.174800e+00
      vertex   -6.710004e+00 -1.108565e+01 9.574800e+00
      vertex   -6.710004e+00 -1.108565e+01 9.174800e+00
    endloop
  endfacet
  facet normal -7.366178e-01 -6.763093e-01 0.000000e+00
    outer loop
      vertex   -6.710004e+00 -1.108565e+01 9.174800e+00
      vertex   -6.710004e+00 -1.108565e+01 9.574800e+00
      vertex   -6.813457e+00 -1.097297e+01 9.574800e+00
    endloop
  endfacet
  facet normal -7.366178e-01 -6.763093e-01 0.000000e+00
    outer loop
      vertex   -6.710004e+00 -1.108565e+01 9.174800e+00
      vertex   -6.813457e+00 -1.097297e+01 9.574800e+00
      vertex   -6.813457e+00 -1.097297e+01 9.174800e+00
    endloop
  endfacet
  facet normal -7.012332e-01 -7.129320e-01 0.000000e+00
    outer loop
      vertex   -6.813457e+00 -1.097297e+01 9.174800e+00
      vertex   -6.813457e+00 -1.097297e+01 9.574800e+00
      vertex   -6.921611e+00 -1.086659e+01 9.574800e+00
    endloop
  endfacet
  facet normal -7.012332e-01 -7.129320e-01 0.000000e+00
    outer loop
      vertex   -6.813457e+00 -1.097297e+01 9.174800e+00
      vertex   -6.921611e+00 -1.086659e+01 9.574800e+00
      vertex   -6.921611e+00 -1.086659e+01 9.174800e+00
    endloop
  endfacet
  facet normal -6.610606e-01 -7.503325e-01 0.000000e+00
    outer loop
      vertex   -6.921611e+00 -1.086659e+01 9.174800e+00
      vertex   -6.921611e+00 -1.086659e+01 9.574800e+00
      vertex   -6.978186e+00 -1.081675e+01 9.574800e+00
    endloop
  endfacet
  facet normal -6.610606e-01 -7.503325e-01 0.000000e+00
    outer loop
      vertex   -6.921611e+00 -1.086659e+01 9.174800e+00
      vertex   -6.978186e+00 -1.081675e+01 9.574800e+00
      vertex   -6.978186e+00 -1.081675e+01 9.174800e+00
    endloop
  endfacet
  facet normal -6.261763e-01 -7.796815e-01 0.000000e+00
    outer loop
      vertex   -6.978186e+00 -1.081675e+01 9.174800e+00
      vertex   -6.978186e+00 -1.081675e+01 9.574800e+00
      vertex   -7.036818e+00 -1.076966e+01 9.574800e+00
    endloop
  endfacet
  facet normal -6.261763e-01 -7.796815e-01 0.000000e+00
    outer loop
      vertex   -6.978186e+00 -1.081675e+01 9.174800e+00
      vertex   -7.036818e+00 -1.076966e+01 9.574800e+00
      vertex   -7.036818e+00 -1.076966e+01 9.174800e+00
    endloop
  endfacet
  facet normal -5.852267e-01 -8.108697e-01 0.000000e+00
    outer loop
      vertex   -7.036818e+00 -1.076966e+01 9.174800e+00
      vertex   -7.036818e+00 -1.076966e+01 9.574800e+00
      vertex   -7.097765e+00 -1.072567e+01 9.574800e+00
    endloop
  endfacet
  facet normal -5.852267e-01 -8.108697e-01 0.000000e+00
    outer loop
      vertex   -7.036818e+00 -1.076966e+01 9.174800e+00
      vertex   -7.097765e+00 -1.072567e+01 9.574800e+00
      vertex   -7.097765e+00 -1.072567e+01 9.174800e+00
    endloop
  endfacet
  facet normal -5.447239e-01 -8.386155e-01 0.000000e+00
    outer loop
      vertex   -7.097765e+00 -1.072567e+01 9.174800e+00
      vertex   -7.097765e+00 -1.072567e+01 9.574800e+00
      vertex   -7.160924e+00 -1.068465e+01 9.574800e+00
    endloop
  endfacet
  facet normal -5.447239e-01 -8.386155e-01 0.000000e+00
    outer loop
      vertex   -7.097765e+00 -1.072567e+01 9.174800e+00
      vertex   -7.160924e+00 -1.068465e+01 9.574800e+00
      vertex   -7.160924e+00 -1.068465e+01 9.174800e+00
    endloop
  endfacet
  facet normal -4.941109e-01 -8.693989e-01 0.000000e+00
    outer loop
      vertex   -7.160924e+00 -1.068465e+01 9.174800e+00
      vertex   -7.160924e+00 -1.068465e+01 9.574800e+00
      vertex   -7.292617e+00 -1.060980e+01 9.574800e+00
    endloop
  endfacet
  facet normal -4.941109e-01 -8.693989e-01 0.000000e+00
    outer loop
      vertex   -7.160924e+00 -1.068465e+01 9.174800e+00
      vertex   -7.292617e+00 -1.060980e+01 9.574800e+00
      vertex   -7.292617e+00 -1.060980e+01 9.174800e+00
    endloop
  endfacet
  facet normal -4.455888e-01 -8.952377e-01 0.000000e+00
    outer loop
      vertex   -7.292617e+00 -1.060980e+01 9.174800e+00
      vertex   -7.292617e+00 -1.060980e+01 9.574800e+00
      vertex   -7.429372e+00 -1.054173e+01 9.574800e+00
    endloop
  endfacet
  facet normal -4.455888e-01 -8.952377e-01 0.000000e+00
    outer loop
      vertex   -7.292617e+00 -1.060980e+01 9.174800e+00
      vertex   -7.429372e+00 -1.054173e+01 9.574800e+00
      vertex   -7.429372e+00 -1.054173e+01 9.174800e+00
    endloop
  endfacet
  facet normal -4.211625e-01 -9.069852e-01 0.000000e+00
    outer loop
      vertex   -7.429372e+00 -1.054173e+01 9.174800e+00
      vertex   -7.429372e+00 -1.054173e+01 9.574800e+00
      vertex   -7.568656e+00 -1.047705e+01 9.574800e+00
    endloop
  endfacet
  facet normal -4.211625e-01 -9.069852e-01 0.000000e+00
    outer loop
      vertex   -7.429372e+00 -1.054173e+01 9.174800e+00
      vertex   -7.568656e+00 -1.047705e+01 9.574800e+00
      vertex   -7.568656e+00 -1.047705e+01 9.174800e+00
    endloop
  endfacet
  facet normal -9.212885e-01 -3.888797e-01 -0.000000e+00
    outer loop
      vertex   -6.050239e+00 -1.217965e+01 9.574800e+00
      vertex   -6.160442e+00 -1.191857e+01 9.574800e+00
      vertex   -6.050239e+00 -1.217965e+01 9.174800e+00
    endloop
  endfacet
  facet normal -9.212885e-01 -3.888797e-01 0.000000e+00
    outer loop
      vertex   -6.050239e+00 -1.217965e+01 9.174800e+00
      vertex   -6.160442e+00 -1.191857e+01 9.574800e+00
      vertex   -6.160442e+00 -1.191857e+01 9.174800e+00
    endloop
  endfacet
  facet normal -9.035292e-01 -4.285264e-01 0.000000e+00
    outer loop
      vertex   -6.160442e+00 -1.191857e+01 9.174800e+00
      vertex   -6.160442e+00 -1.191857e+01 9.574800e+00
      vertex   -6.220922e+00 -1.179105e+01 9.574800e+00
    endloop
  endfacet
  facet normal -9.035292e-01 -4.285264e-01 0.000000e+00
    outer loop
      vertex   -6.160442e+00 -1.191857e+01 9.174800e+00
      vertex   -6.220922e+00 -1.179105e+01 9.574800e+00
      vertex   -6.220922e+00 -1.179105e+01 9.174800e+00
    endloop
  endfacet
  facet normal -8.799230e-01 -4.751164e-01 0.000000e+00
    outer loop
      vertex   -6.220922e+00 -1.179105e+01 9.174800e+00
      vertex   -6.220922e+00 -1.179105e+01 9.574800e+00
      vertex   -6.287830e+00 -1.166713e+01 9.574800e+00
    endloop
  endfacet
  facet normal -8.799230e-01 -4.751164e-01 0.000000e+00
    outer loop
      vertex   -6.220922e+00 -1.179105e+01 9.174800e+00
      vertex   -6.287830e+00 -1.166713e+01 9.574800e+00
      vertex   -6.287830e+00 -1.166713e+01 9.174800e+00
    endloop
  endfacet
  facet normal -8.512590e-01 -5.247458e-01 0.000000e+00
    outer loop
      vertex   -6.287830e+00 -1.166713e+01 9.174800e+00
      vertex   -6.287830e+00 -1.166713e+01 9.574800e+00
      vertex   -6.361778e+00 -1.154717e+01 9.574800e+00
    endloop
  endfacet
  facet normal -8.512590e-01 -5.247458e-01 0.000000e+00
    outer loop
      vertex   -6.287830e+00 -1.166713e+01 9.174800e+00
      vertex   -6.361778e+00 -1.154717e+01 9.574800e+00
      vertex   -6.361778e+00 -1.154717e+01 9.174800e+00
    endloop
  endfacet
  facet normal -8.273907e-01 -5.616268e-01 0.000000e+00
    outer loop
      vertex   -6.361778e+00 -1.154717e+01 9.174800e+00
      vertex   -6.361778e+00 -1.154717e+01 9.574800e+00
      vertex   -6.441143e+00 -1.143025e+01 9.574800e+00
    endloop
  endfacet
  facet normal -8.273907e-01 -5.616268e-01 0.000000e+00
    outer loop
      vertex   -6.361778e+00 -1.154717e+01 9.174800e+00
      vertex   -6.441143e+00 -1.143025e+01 9.574800e+00
      vertex   -6.441143e+00 -1.143025e+01 9.174800e+00
    endloop
  endfacet
  facet normal -8.064217e-01 -5.913408e-01 0.000000e+00
    outer loop
      vertex   -6.441143e+00 -1.143025e+01 9.174800e+00
      vertex   -6.441143e+00 -1.143025e+01 9.574800e+00
      vertex   -6.608902e+00 -1.120147e+01 9.574800e+00
    endloop
  endfacet
  facet normal -8.064217e-01 -5.913408e-01 0.000000e+00
    outer loop
      vertex   -6.441143e+00 -1.143025e+01 9.174800e+00
      vertex   -6.608902e+00 -1.120147e+01 9.574800e+00
      vertex   -6.608902e+00 -1.120147e+01 9.174800e+00
    endloop
  endfacet
  facet normal -0.000000e+00 -1.000000e+00 -0.000000e+00
    outer loop
      vertex   -5.006582e+00 -1.217965e+01 9.574800e+00
      vertex   -6.050239e+00 -1.217965e+01 9.574800e+00
      vertex   -5.006582e+00 -1.217965e+01 9.174800e+00
    endloop
  endfacet
  facet normal 0.000000e+00 -1.000000e+00 0.000000e+00
    outer loop
      vertex   -5.006582e+00 -1.217965e+01 9.174800e+00
      vertex   -6.050239e+00 -1.217965e+01 9.574800e+00
      vertex   -6.050239e+00 -1.217965e+01 9.174800e+00
    endloop
  endfacet
  facet normal 7.704143e-01 6.375435e-01 0.000000e+00
    outer loop
      vertex   -5.878342e+00 -1.069397e+01 9.574800e+00
      vertex   -5.739304e+00 -1.086199e+01 9.574800e+00
      vertex   -5.878342e+00 -1.069397e+01 9.174800e+00
    endloop
  endfacet
  facet normal 7.704143e-01 6.375435e-01 0.000000e+00
    outer loop
      vertex   -5.878342e+00 -1.069397e+01 9.174800e+00
      vertex   -5.739304e+00 -1.086199e+01 9.574800e+00
      vertex   -5.739304e+00 -1.086199e+01 9.174800e+00
    endloop
  endfacet
  facet normal 7.832478e-01 6.217097e-01 -0.000000e+00
    outer loop
      vertex   -5.739304e+00 -1.086199e+01 9.174800e+00
      vertex   -5.739304e+00 -1.086199e+01 9.574800e+00
      vertex   -5.604133e+00 -1.103228e+01 9.574800e+00
    endloop
  endfacet
  facet normal 7.832478e-01 6.217097e-01 0.000000e+00
    outer loop
      vertex   -5.739304e+00 -1.086199e+01 9.174800e+00
      vertex   -5.604133e+00 -1.103228e+01 9.574800e+00
      vertex   -5.604133e+00 -1.103228e+01 9.174800e+00
    endloop
  endfacet
  facet normal 8.081304e-01 5.890036e-01 -0.000000e+00
    outer loop
      vertex   -5.604133e+00 -1.103228e+01 9.174800e+00
      vertex   -5.604133e+00 -1.103228e+01 9.574800e+00
      vertex   -5.476698e+00 -1.120712e+01 9.574800e+00
    endloop
  endfacet
  facet normal 8.081304e-01 5.890036e-01 0.000000e+00
    outer loop
      vertex   -5.604133e+00 -1.103228e+01 9.174800e+00
      vertex   -5.476698e+00 -1.120712e+01 9.574800e+00
      vertex   -5.476698e+00 -1.120712e+01 9.174800e+00
    endloop
  endfacet
  facet normal 8.332728e-01 5.528620e-01 -0.000000e+00
    outer loop
      vertex   -5.476698e+00 -1.120712e+01 9.174800e+00
      vertex   -5.476698e+00 -1.120712e+01 9.574800e+00
      vertex   -5.417090e+00 -1.129696e+01 9.574800e+00
    endloop
  endfacet
  facet normal 8.332728e-01 5.528620e-01 0.000000e+00
    outer loop
      vertex   -5.476698e+00 -1.120712e+01 9.174800e+00
      vertex   -5.417090e+00 -1.129696e+01 9.574800e+00
      vertex   -5.417090e+00 -1.129696e+01 9.174800e+00
    endloop
  endfacet
  facet normal 8.528533e-01 5.221506e-01 -0.000000e+00
    outer loop
      vertex   -5.417090e+00 -1.129696e+01 9.174800e+00
      vertex   -5.417090e+00 -1.129696e+01 9.574800e+00
      vertex   -5.360867e+00 -1.138880e+01 9.574800e+00
    endloop
  endfacet
  facet normal 8.528533e-01 5.221506e-01 0.000000e+00
    outer loop
      vertex   -5.417090e+00 -1.129696e+01 9.174800e+00
      vertex   -5.360867e+00 -1.138880e+01 9.574800e+00
      vertex   -5.360867e+00 -1.138880e+01 9.174800e+00
    endloop
  endfacet
  facet normal 8.727908e-01 4.880945e-01 -0.000000e+00
    outer loop
      vertex   -5.360867e+00 -1.138880e+01 9.174800e+00
      vertex   -5.360867e+00 -1.138880e+01 9.574800e+00
      vertex   -5.308306e+00 -1.148278e+01 9.574800e+00
    endloop
  endfacet
  facet normal 8.727908e-01 4.880945e-01 0.000000e+00
    outer loop
      vertex   -5.360867e+00 -1.138880e+01 9.174800e+00
      vertex   -5.308306e+00 -1.148278e+01 9.574800e+00
      vertex   -5.308306e+00 -1.148278e+01 9.174800e+00
    endloop
  endfacet
  facet normal 8.896163e-01 4.567088e-01 -0.000000e+00
    outer loop
      vertex   -5.308306e+00 -1.148278e+01 9.174800e+00
      vertex   -5.308306e+00 -1.148278e+01 9.574800e+00
      vertex   -5.259056e+00 -1.157872e+01 9.574800e+00
    endloop
  endfacet
  facet normal 8.896163e-01 4.567088e-01 0.000000e+00
    outer loop
      vertex   -5.308306e+00 -1.148278e+01 9.174800e+00
      vertex   -5.259056e+00 -1.157872e+01 9.574800e+00
      vertex   -5.259056e+00 -1.157872e+01 9.174800e+00
    endloop
  endfacet
  facet normal 9.084432e-01 4.180082e-01 -0.000000e+00
    outer loop
      vertex   -5.259056e+00 -1.157872e+01 9.174800e+00
      vertex   -5.259056e+00 -1.157872e+01 9.574800e+00
      vertex   -5.168593e+00 -1.177532e+01 9.574800e+00
    endloop
  endfacet
  facet normal 9.084432e-01 4.180082e-01 0.000000e+00
    outer loop
      vertex   -5.259056e+00 -1.157872e+01 9.174800e+00
      vertex   -5.168593e+00 -1.177532e+01 9.574800e+00
      vertex   -5.168593e+00 -1.177532e+01 9.174800e+00
    endloop
  endfacet
  facet normal 9.244983e-01 3.811861e-01 -0.000000e+00
    outer loop
      vertex   -5.168593e+00 -1.177532e+01 9.174800e+00
      vertex   -5.168593e+00 -1.177532e+01 9.574800e+00
      vertex   -5.085696e+00 -1.197637e+01 9.574800e+00
    endloop
  endfacet
  facet normal 9.244983e-01 3.811861e-01 0.000000e+00
    outer loop
      vertex   -5.168593e+00 -1.177532e+01 9.174800e+00
      vertex   -5.085696e+00 -1.197637e+01 9.574800e+00
      vertex   -5.085696e+00 -1.197637e+01 9.174800e+00
    endloop
  endfacet
  facet normal 9.319092e-01 3.626917e-01 -0.000000e+00
    outer loop
      vertex   -5.085696e+00 -1.197637e+01 9.174800e+00
      vertex   -5.085696e+00 -1.197637e+01 9.574800e+00
      vertex   -5.006582e+00 -1.217965e+01 9.574800e+00
    endloop
  endfacet
  facet normal 9.319092e-01 3.626917e-01 0.000000e+00
    outer loop
      vertex   -5.085696e+00 -1.197637e+01 9.174800e+00
      vertex   -5.006582e+00 -1.217965e+01 9.574800e+00
      vertex   -5.006582e+00 -1.217965e+01 9.174800e+00
    endloop
  endfacet
  facet normal -0.000000e+00 -1.000000e+00 -0.000000e+00
    outer loop
      vertex   -1.544100e+00 -1.069397e+01 9.574800e+00
      vertex   -5.878342e+00 -1.069397e+01 9.574800e+00
      vertex   -1.544100e+00 -1.069397e+01 9.174800e+00
    endloop
  endfacet
  facet normal 0.000000e+00 -1.000000e+00 0.000000e+00
    outer loop
      vertex   -1.544100e+00 -1.069397e+01 9.174800e+00
      vertex   -5.878342e+00 -1.069397e+01 9.574800e+00
      vertex   -5.878342e+00 -1.069397e+01 9.174800e+00
    endloop
  endfacet
  facet normal 1.000000e+00 0.000000e+00 0.000000e+00
    outer loop
      vertex   -1.544100e+00 -9.543903e+00 9.574800e+00
      vertex   -1.544100e+00 -1.069397e+01 9.574800e+00
      vertex   -1.544100e+00 -9.543903e+00 9.174800e+00
    endloop
  endfacet
  facet normal 1.000000e+00 0.000000e+00 0.000000e+00
    outer loop
      vertex   -1.544100e+00 -9.543903e+00 9.174800e+00
      vertex   -1.544100e+00 -1.069397e+01 9.574800e+00
      vertex   -1.544100e+00 -1.069397e+01 9.174800e+00
    endloop
  endfacet
  facet normal -0.000000e+00 1.000000e+00 0.000000e+00
    outer loop
      vertex   -7.568656e+00 -9.543903e+00 9.574800e+00
      vertex   -1.544100e+00 -9.543903e+00 9.574800e+00
      vertex   -7.568656e+00 -9.543903e+00 9.174800e+00
    endloop
  endfacet
  facet normal 0.000000e+00 1.000000e+00 0.000000e+00
    outer loop
      vertex   -7.568656e+00 -9.543903e+00 9.174800e+00
      vertex   -1.544100e+00 -9.543903e+00 9.574800e+00
      vertex   -1.544100e+00 -9.543903e+00 9.174800e+00
    endloop
  endfacet
  facet normal 0.000000e+00 -0.000000e+00 1.000000e+00
    outer loop
      vertex   -1.544100e+00 -1.069397e+01 9.574800e+00
      vertex   -1.544100e+00 -9.543903e+00 9.574800e+00
      vertex   -5.878342e+00 -1.069397e+01 9.574800e+00
    endloop
  endfacet
  facet normal 0.000000e+00 -0.000000e+00 1.000000e+00
    outer loop
      vertex   -5.878342e+00 -1.069397e+01 9.574800e+00
      vertex   -1.544100e+00 -9.543903e+00 9.574800e+00
      vertex   -7.568656e+00 -9.543903e+00 9.574800e+00
    endloop
  endfacet
  facet normal 0.000000e+00 0.000000e+00 1.000000e+00
    outer loop
      vertex   -5.878342e+00 -1.069397e+01 9.574800e+00
      vertex   -7.568656e+00 -9.543903e+00 9.574800e+00
      vertex   -7.568656e+00 -1.047705e+01 9.574800e+00
    endloop
  endfacet
  facet normal 0.000000e+00 0.000000e+00 1.000000e+00
    outer loop
      vertex   -7.568656e+00 -1.047705e+01 9.574800e+00
      vertex   -7.429372e+00 -1.054173e+01 9.574800e+00
      vertex   -5.878342e+00 -1.069397e+01 9.574800e+00
    endloop
  endfacet
  facet normal 0.000000e+00 0.000000e+00 1.000000e+00
    outer loop
      vertex   -5.878342e+00 -1.069397e+01 9.574800e+00
      vertex   -7.429372e+00 -1.054173e+01 9.574800e+00
      vertex   -7.292617e+00 -1.060980e+01 9.574800e+00
    endloop
  endfacet
  facet normal 0.000000e+00 0.000000e+00 1.000000e+00
    outer loop
      vertex   -5.878342e+00 -1.069397e+01 9.574800e+00
      vertex   -7.292617e+00 -1.060980e+01 9.574800e+00
      vertex   -7.160924e+00 -1.068465e+01 9.574800e+00
    endloop
  endfacet
  facet normal 0.000000e+00 0.000000e+00 1.000000e+00
    outer loop
      vertex   -7.160924e+00 -1.068465e+01 9.574800e+00
      vertex   -7.097765e+00 -1.072567e+01 9.574800e+00
      vertex   -5.878342e+00 -1.069397e+01 9.574800e+00
    endloop
  endfacet
  facet normal 0.000000e+00 0.000000e+00 1.000000e+00
    outer loop
      vertex   -5.878342e+00 -1.069397e+01 9.574800e+00
      vertex   -7.097765e+00 -1.072567e+01 9.574800e+00
      vertex   -7.036818e+00 -1.076966e+01 9.574800e+00
    endloop
  endfacet
  facet normal 2.279179e-15 -3.488599e-14 1.000000e+00
    outer loop
      vertex   -5.878342e+00 -1.069397e+01 9.574800e+00
      vertex   -7.036818e+00 -1.076966e+01 9.574800e+00
      vertex   -6.978186e+00 -1.081675e+01 9.574800e+00
    endloop
  endfacet
  facet normal -4.964367e-15 3.000363e-14 1.000000e+00
    outer loop
      vertex   -6.978186e+00 -1.081675e+01 9.574800e+00
      vertex   -6.921611e+00 -1.086659e+01 9.574800e+00
      vertex   -5.878342e+00 -1.069397e+01 9.574800e+00
    endloop
  endfacet
  facet normal 0.000000e+00 0.000000e+00 1.000000e+00
    outer loop
      vertex   -5.878342e+00 -1.069397e+01 9.574800e+00
      vertex   -6.921611e+00 -1.086659e+01 9.574800e+00
      vertex   -6.813457e+00 -1.097297e+01 9.574800e+00
    endloop
  endfacet
  facet normal -2.529785e-15 8.479056e-15 1.000000e+00
    outer loop
      vertex   -5.878342e+00 -1.069397e+01 9.574800e+00
      vertex   -6.813457e+00 -1.097297e+01 9.574800e+00
      vertex   -5.739304e+00 -1.086199e+01 9.574800e+00
    endloop
  endfacet
  facet normal -1.510445e-15 -1.386782e-15 1.000000e+00
    outer loop
      vertex   -5.739304e+00 -1.086199e+01 9.574800e+00
      vertex   -6.813457e+00 -1.097297e+01 9.574800e+00
      vertex   -6.710004e+00 -1.108565e+01 9.574800e+00
    endloop
  endfacet
  facet normal 4.848230e-16 -1.004640e-14 1.000000e+00
    outer loop
      vertex   -5.739304e+00 -1.086199e+01 9.574800e+00
      vertex   -6.710004e+00 -1.108565e+01 9.574800e+00
      vertex   -5.604133e+00 -1.103228e+01 9.574800e+00
    endloop
  endfacet
  facet normal 0.000000e+00 0.000000e+00 1.000000e+00
    outer loop
      vertex   -5.604133e+00 -1.103228e+01 9.574800e+00
      vertex   -6.710004e+00 -1.108565e+01 9.574800e+00
      vertex   -6.608902e+00 -1.120147e+01 9.574800e+00
    endloop
  endfacet
  facet normal 0.000000e+00 0.000000e+00 1.000000e+00
    outer loop
      vertex   -5.604133e+00 -1.103228e+01 9.574800e+00
      vertex   -6.608902e+00 -1.120147e+01 9.574800e+00
      vertex   -5.476698e+00 -1.120712e+01 9.574800e+00
    endloop
  endfacet
  facet normal 0.000000e+00 0.000000e+00 1.000000e+00
    outer loop
      vertex   -5.476698e+00 -1.120712e+01 9.574800e+00
      vertex   -6.608902e+00 -1.120147e+01 9.574800e+00
      vertex   -6.441143e+00 -1.143025e+01 9.574800e+00
    endloop
  endfacet
  facet normal 0.000000e+00 0.000000e+00 1.000000e+00
    outer loop
      vertex   -5.476698e+00 -1.120712e+01 9.574800e+00
      vertex   -6.441143e+00 -1.143025e+01 9.574800e+00
      vertex   -5.417090e+00 -1.129696e+01 9.574800e+00
    endloop
  endfacet
  facet normal 0.000000e+00 0.000000e+00 1.000000e+00
    outer loop
      vertex   -5.417090e+00 -1.129696e+01 9.574800e+00
      vertex   -6.441143e+00 -1.143025e+01 9.574800e+00
      vertex   -5.360867e+00 -1.138880e+01 9.574800e+00
    endloop
  endfacet
  facet normal 0.000000e+00 0.000000e+00 1.000000e+00
    outer loop
      vertex   -5.360867e+00 -1.138880e+01 9.574800e+00
      vertex   -6.441143e+00 -1.143025e+01 9.574800e+00
      vertex   -6.361778e+00 -1.154717e+01 9.574800e+00
    endloop
  endfacet
  facet normal 0.000000e+00 0.000000e+00 1.000000e+00
    outer loop
      vertex   -5.360867e+00 -1.138880e+01 9.574800e+00
      vertex   -6.361778e+00 -1.154717e+01 9.574800e+00
      vertex   -5.308306e+00 -1.148278e+01 9.574800e+00
    endloop
  endfacet
  facet normal 0.000000e+00 0.000000e+00 1.000000e+00
    outer loop
      vertex   -5.308306e+00 -1.148278e+01 9.574800e+00
      vertex   -6.361778e+00 -1.154717e+01 9.574800e+00
      vertex   -6.287830e+00 -1.166713e+01 9.574800e+00
    endloop
  endfacet
  facet normal 0.000000e+00 0.000000e+00 1.000000e+00
    outer loop
      vertex   -5.308306e+00 -1.148278e+01 9.574800e+00
      vertex   -6.287830e+00 -1.166713e+01 9.574800e+00
      vertex   -5.259056e+00 -1.157872e+01 9.574800e+00
    endloop
  endfacet
  facet normal 0.000000e+00 0.000000e+00 1.000000e+00
    outer loop
      vertex   -5.259056e+00 -1.157872e+01 9.574800e+00
      vertex   -6.287830e+00 -1.166713e+01 9.574800e+00
      vertex   -6.220922e+00 -1.179105e+01 9.574800e+00
    endloop
  endfacet
  facet normal 0.000000e+00 0.000000e+00 1.000000e+00
    outer loop
      vertex   -5.259056e+00 -1.157872e+01 9.574800e+00
      vertex   -6.220922e+00 -1.179105e+01 9.574800e+00
      vertex   -5.168593e+00 -1.177532e+01 9.574800e+00
    endloop
  endfacet
  facet normal 0.000000e+00 0.000000e+00 1.000000e+00
    outer loop
      vertex   -5.168593e+00 -1.177532e+01 9.574800e+00
      vertex   -6.220922e+00 -1.179105e+01 9.574800e+00
      vertex   -6.160442e+00 -1.191857e+01 9.574800e+00
    endloop
  endfacet
  facet normal 0.000000e+00 0.000000e+00 1.000000e+00
    outer loop
      vertex   -5.168593e+00 -1.177532e+01 9.574800e+00
      vertex   -6.160442e+00 -1.191857e+01 9.574800e+00
      vertex   -5.085696e+00 -1.197637e+01 9.574800e+00
    endloop
  endfacet
  facet normal 0.000000e+00 0.000000e+00 1.000000e+00
    outer loop
      vertex   -5.085696e+00 -1.197637e+01 9.574800e+00
      vertex   -6.160442e+00 -1.191857e+01 9.574800e+00
      vertex   -6.050239e+00 -1.217965e+01 9.574800e+00
    endloop
  endfacet
  facet normal 0.000000e+00 0.000000e+00 1.000000e+00
    outer loop
      vertex   -5.085696e+00 -1.197637e+01 9.574800e+00
      vertex   -6.050239e+00 -1.217965e+01 9.574800e+00
      vertex   -5.006582e+00 -1.217965e+01 9.574800e+00
    endloop
  endfacet
  facet normal 0.000000e+00 0.000000e+00 -1.000000e+00
    outer loop
      vertex   -7.568656e+00 -1.047705e+01 9.174800e+00
      vertex   -7.568656e+00 -9.543903e+00 9.174800e+00
      vertex   -5.878342e+00 -1.069397e+01 9.174800e+00
    endloop
  endfacet
  facet normal 0.000000e+00 0.000000e+00 -1.000000e+00
    outer loop
      vertex   -5.878342e+00 -1.069397e+01 9.174800e+00
      vertex   -7.568656e+00 -9.543903e+00 9.174800e+00
      vertex   -1.544100e+00 -9.543903e+00 9.174800e+00
    endloop
  endfacet
  facet normal 0.000000e+00 0.000000e+00 -1.000000e+00
    outer loop
      vertex   -5.878342e+00 -1.069397e+01 9.174800e+00
      vertex   -1.544100e+00 -9.543903e+00 9.174800e+00
      vertex   -1.544100e+00 -1.069397e+01 9.174800e+00
    endloop
  endfacet
  facet normal -0.000000e+00 0.000000e+00 -1.000000e+00
    outer loop
      vertex   -5.739304e+00 -1.086199e+01 9.174800e+00
      vertex   -6.813457e+00 -1.097297e+01 9.174800e+00
      vertex   -5.878342e+00 -1.069397e+01 9.174800e+00
    endloop
  endfacet
  facet normal 0.000000e+00 0.000000e+00 -1.000000e+00
    outer loop
      vertex   -5.878342e+00 -1.069397e+01 9.174800e+00
      vertex   -6.813457e+00 -1.097297e+01 9.174800e+00
      vertex   -6.921611e+00 -1.086659e+01 9.174800e+00
    endloop
  endfacet
  facet normal 0.000000e+00 0.000000e+00 -1.000000e+00
    outer loop
      vertex   -5.878342e+00 -1.069397e+01 9.174800e+00
      vertex   -6.921611e+00 -1.086659e+01 9.174800e+00
      vertex   -6.978186e+00 -1.081675e+01 9.174800e+00
    endloop
  endfacet
  facet normal 0.000000e+00 0.000000e+00 -1.000000e+00
    outer loop
      vertex   -6.813457e+00 -1.097297e+01 9.174800e+00
      vertex   -5.739304e+00 -1.086199e+01 9.174800e+00
      vertex   -6.710004e+00 -1.108565e+01 9.174800e+00
    endloop
  endfacet
  facet normal 0.000000e+00 0.000000e+00 -1.000000e+00
    outer loop
      vertex   -6.710004e+00 -1.108565e+01 9.174800e+00
      vertex   -5.739304e+00 -1.086199e+01 9.174800e+00
      vertex   -5.604133e+00 -1.103228e+01 9.174800e+00
    endloop
  endfacet
  facet normal 0.000000e+00 0.000000e+00 -1.000000e+00
    outer loop
      vertex   -6.710004e+00 -1.108565e+01 9.174800e+00
      vertex   -5.604133e+00 -1.103228e+01 9.174800e+00
      vertex   -6.608902e+00 -1.120147e+01 9.174800e+00
    endloop
  endfacet
  facet normal 0.000000e+00 0.000000e+00 -1.000000e+00
    outer loop
      vertex   -6.608902e+00 -1.120147e+01 9.174800e+00
      vertex   -5.604133e+00 -1.103228e+01 9.174800e+00
      vertex   -5.476698e+00 -1.120712e+01 9.174800e+00
    endloop
  endfacet
  facet normal 0.000000e+00 0.000000e+00 -1.000000e+00
    outer loop
      vertex   -6.608902e+00 -1.120147e+01 9.174800e+00
      vertex   -5.476698e+00 -1.120712e+01 9.174800e+00
      vertex   -6.441143e+00 -1.143025e+01 9.174800e+00
    endloop
  endfacet
  facet normal 0.000000e+00 0.000000e+00 -1.000000e+00
    outer loop
      vertex   -6.441143e+00 -1.143025e+01 9.174800e+00
      vertex   -5.476698e+00 -1.120712e+01 9.174800e+00
      vertex   -5.417090e+00 -1.129696e+01 9.174800e+00
    endloop
  endfacet
  facet normal 0.000000e+00 0.000000e+00 -1.000000e+00
    outer loop
      vertex   -6.441143e+00 -1.143025e+01 9.174800e+00
      vertex   -5.417090e+00 -1.129696e+01 9.174800e+00
      vertex   -5.360867e+00 -1.138880e+01 9.174800e+00
    endloop
  endfacet
  facet normal 0.000000e+00 0.000000e+00 -1.000000e+00
    outer loop
      vertex   -6.441143e+00 -1.143025e+01 9.174800e+00
      vertex   -5.360867e+00 -1.138880e+01 9.174800e+00
      vertex   -6.361778e+00 -1.154717e+01 9.174800e+00
    endloop
  endfacet
  facet normal 0.000000e+00 0.000000e+00 -1.000000e+00
    outer loop
      vertex   -6.361778e+00 -1.154717e+01 9.174800e+00
      vertex   -5.360867e+00 -1.138880e+01 9.174800e+00
      vertex   -5.308306e+00 -1.148278e+01 9.174800e+00
    endloop
  endfacet
  facet normal 0.000000e+00 0.000000e+00 -1.000000e+00
    outer loop
      vertex   -6.361778e+00 -1.154717e+01 9.174800e+00
      vertex   -5.308306e+00 -1.148278e+01 9.174800e+00
      vertex   -6.287830e+00 -1.166713e+01 9.174800e+00
    endloop
  endfacet
  facet normal 0.000000e+00 0.000000e+00 -1.000000e+00
    outer loop
      vertex   -6.287830e+00 -1.166713e+01 9.174800e+00
      vertex   -5.308306e+00 -1.148278e+01 9.174800e+00
      vertex   -5.259056e+00 -1.157872e+01 9.174800e+00
    endloop
  endfacet
  facet normal 0.000000e+00 0.000000e+00 -1.000000e+00
    outer loop
      vertex   -6.287830e+00 -1.166713e+01 9.174800e+00
      vertex   -5.259056e+00 -1.157872e+01 9.174800e+00
      vertex   -6.220922e+00 -1.179105e+01 9.174800e+00
    endloop
  endfacet
  facet normal 0.000000e+00 0.000000e+00 -1.000000e+00
    outer loop
      vertex   -6.220922e+00 -1.179105e+01 9.174800e+00
      vertex   -5.259056e+00 -1.157872e+01 9.174800e+00
      vertex   -5.168593e+00 -1.177532e+01 9.174800e+00
    endloop
  endfacet
  facet normal 0.000000e+00 0.000000e+00 -1.000000e+00
    outer loop
      vertex   -6.220922e+00 -1.179105e+01 9.174800e+00
      vertex   -5.168593e+00 -1.177532e+01 9.174800e+00
      vertex   -6.160442e+00 -1.191857e+01 9.174800e+00
    endloop
  endfacet
  facet normal 0.000000e+00 0.000000e+00 -1.000000e+00
    outer loop
      vertex   -6.160442e+00 -1.191857e+01 9.174800e+00
      vertex   -5.168593e+00 -1.177532e+01 9.174800e+00
      vertex   -5.085696e+00 -1.197637e+01 9.174800e+00
    endloop
  endfacet
  facet normal 0.000000e+00 0.000000e+00 -1.000000e+00
    outer loop
      vertex   -6.160442e+00 -1.191857e+01 9.174800e+00
      vertex   -5.085696e+00 -1.197637e+01 9.174800e+00
      vertex   -6.050239e+00 -1.217965e+01 9.174800e+00
    endloop
  endfacet
  facet normal 0.000000e+00 0.000000e+00 -1.000000e+00
    outer loop
      vertex   -6.050239e+00 -1.217965e+01 9.174800e+00
      vertex   -5.085696e+00 -1.197637e+01 9.174800e+00
      vertex   -5.006582e+00 -1.217965e+01 9.174800e+00
    endloop
  endfacet
  facet normal 0.000000e+00 0.000000e+00 -1.000000e+00
    outer loop
      vertex   -6.978186e+00 -1.081675e+01 9.174800e+00
      vertex   -7.036818e+00 -1.076966e+01 9.174800e+00
      vertex   -5.878342e+00 -1.069397e+01 9.174800e+00
    endloop
  endfacet
  facet normal 0.000000e+00 0.000000e+00 -1.000000e+00
    outer loop
      vertex   -5.878342e+00 -1.069397e+01 9.174800e+00
      vertex   -7.036818e+00 -1.076966e+01 9.174800e+00
      vertex   -7.097765e+00 -1.072567e+01 9.174800e+00
    endloop
  endfacet
  facet normal -1.082258e-15 4.163359e-14 -1.000000e+00
    outer loop
      vertex   -5.878342e+00 -1.069397e+01 9.174800e+00
      vertex   -7.097765e+00 -1.072567e+01 9.174800e+00
      vertex   -7.160924e+00 -1.068465e+01 9.174800e+00
    endloop
  endfacet
  facet normal -1.577743e-15 -2.650946e-14 -1.000000e+00
    outer loop
      vertex   -7.160924e+00 -1.068465e+01 9.174800e+00
      vertex   -7.292617e+00 -1.060980e+01 9.174800e+00
      vertex   -5.878342e+00 -1.069397e+01 9.174800e+00
    endloop
  endfacet
  facet normal 0.000000e+00 0.000000e+00 -1.000000e+00
    outer loop
      vertex   -5.878342e+00 -1.069397e+01 9.174800e+00
      vertex   -7.292617e+00 -1.060980e+01 9.174800e+00
      vertex   -7.429372e+00 -1.054173e+01 9.174800e+00
    endloop
  endfacet
  facet normal 0.000000e+00 0.000000e+00 -1.000000e+00
    outer loop
      vertex   -5.878342e+00 -1.069397e+01 9.174800e+00
      vertex   -7.429372e+00 -1.054173e+01 9.174800e+00
      vertex   -7.568656e+00 -1.047705e+01 9.174800e+00
    endloop
  endfacet
endsolid
