solid ASCII
  facet normal -0.000000e+00 1.000000e+00 0.000000e+00
    outer loop
      vertex   -2.869750e+01 1.180856e+01 9.574800e+00
      vertex   -2.269750e+01 1.180856e+01 9.574800e+00
      vertex   -2.869750e+01 1.180856e+01 9.174800e+00
    endloop
  endfacet
  facet normal 0.000000e+00 1.000000e+00 0.000000e+00
    outer loop
      vertex   -2.869750e+01 1.180856e+01 9.174800e+00
      vertex   -2.269750e+01 1.180856e+01 9.574800e+00
      vertex   -2.269750e+01 1.180856e+01 9.174800e+00
    endloop
  endfacet
  facet normal -1.000000e+00 0.000000e+00 0.000000e+00
    outer loop
      vertex   -2.869750e+01 1.065849e+01 9.574800e+00
      vertex   -2.869750e+01 1.180856e+01 9.574800e+00
      vertex   -2.869750e+01 1.065849e+01 9.174800e+00
    endloop
  endfacet
  facet normal -1.000000e+00 0.000000e+00 0.000000e+00
    outer loop
      vertex   -2.869750e+01 1.065849e+01 9.174800e+00
      vertex   -2.869750e+01 1.180856e+01 9.574800e+00
      vertex   -2.869750e+01 1.180856e+01 9.174800e+00
    endloop
  endfacet
  facet normal -0.000000e+00 -1.000000e+00 -0.000000e+00
    outer loop
      vertex   -2.269750e+01 1.065849e+01 9.574800e+00
      vertex   -2.869750e+01 1.065849e+01 9.574800e+00
      vertex   -2.269750e+01 1.065849e+01 9.174800e+00
    endloop
  endfacet
  facet normal 0.000000e+00 -1.000000e+00 0.000000e+00
    outer loop
      vertex   -2.269750e+01 1.065849e+01 9.174800e+00
      vertex   -2.869750e+01 1.065849e+01 9.574800e+00
      vertex   -2.869750e+01 1.065849e+01 9.174800e+00
    endloop
  endfacet
  facet normal 1.000000e+00 0.000000e+00 0.000000e+00
    outer loop
      vertex   -2.269750e+01 1.180856e+01 9.574800e+00
      vertex   -2.269750e+01 1.065849e+01 9.574800e+00
      vertex   -2.269750e+01 1.180856e+01 9.174800e+00
    endloop
  endfacet
  facet normal 1.000000e+00 0.000000e+00 0.000000e+00
    outer loop
      vertex   -2.269750e+01 1.180856e+01 9.174800e+00
      vertex   -2.269750e+01 1.065849e+01 9.574800e+00
      vertex   -2.269750e+01 1.065849e+01 9.174800e+00
    endloop
  endfacet
  facet normal 0.000000e+00 0.000000e+00 1.000000e+00
    outer loop
      vertex   -2.269750e+01 1.180856e+01 9.574800e+00
      vertex   -2.869750e+01 1.180856e+01 9.574800e+00
      vertex   -2.269750e+01 1.065849e+01 9.574800e+00
    endloop
  endfacet
  facet normal 0.000000e+00 0.000000e+00 1.000000e+00
    outer loop
      vertex   -2.269750e+01 1.065849e+01 9.574800e+00
      vertex   -2.869750e+01 1.180856e+01 9.574800e+00
      vertex   -2.869750e+01 1.065849e+01 9.574800e+00
    endloop
  endfacet
  facet normal 0.000000e+00 0.000000e+00 -1.000000e+00
    outer loop
      vertex   -2.269750e+01 1.065849e+01 9.174800e+00
      vertex   -2.869750e+01 1.065849e+01 9.174800e+00
      vertex   -2.269750e+01 1.180856e+01 9.174800e+00
    endloop
  endfacet
  facet normal -0.000000e+00 0.000000e+00 -1.000000e+00
    outer loop
      vertex   -2.269750e+01 1.180856e+01 9.174800e+00
      vertex   -2.869750e+01 1.065849e+01 9.174800e+00
      vertex   -2.869750e+01 1.180856e+01 9.174800e+00
    endloop
  endfacet
endsolid
