solid ASCII
  facet normal 5.581352e-01 8.297500e-01 0.000000e+00
    outer loop
      vertex   8.187142e+00 -1.056300e+01 9.574800e+00
      vertex   1.023762e+01 -1.194227e+01 9.574800e+00
      vertex   8.187142e+00 -1.056300e+01 9.174800e+00
    endloop
  endfacet
  facet normal 5.581352e-01 8.297500e-01 0.000000e+00
    outer loop
      vertex   8.187142e+00 -1.056300e+01 9.174800e+00
      vertex   1.023762e+01 -1.194227e+01 9.574800e+00
      vertex   1.023762e+01 -1.194227e+01 9.174800e+00
    endloop
  endfacet
  facet normal -0.000000e+00 -1.000000e+00 -0.000000e+00
    outer loop
      vertex   1.023762e+01 -1.056300e+01 9.574800e+00
      vertex   8.187142e+00 -1.056300e+01 9.574800e+00
      vertex   1.023762e+01 -1.056300e+01 9.174800e+00
    endloop
  endfacet
  facet normal 0.000000e+00 -1.000000e+00 0.000000e+00
    outer loop
      vertex   1.023762e+01 -1.056300e+01 9.174800e+00
      vertex   8.187142e+00 -1.056300e+01 9.574800e+00
      vertex   8.187142e+00 -1.056300e+01 9.174800e+00
    endloop
  endfacet
  facet normal -1.000000e+00 0.000000e+00 0.000000e+00
    outer loop
      vertex   1.023762e+01 -1.194227e+01 9.574800e+00
      vertex   1.023762e+01 -1.056300e+01 9.574800e+00
      vertex   1.023762e+01 -1.194227e+01 9.174800e+00
    endloop
  endfacet
  facet normal -1.000000e+00 0.000000e+00 0.000000e+00
    outer loop
      vertex   1.023762e+01 -1.194227e+01 9.174800e+00
      vertex   1.023762e+01 -1.056300e+01 9.574800e+00
      vertex   1.023762e+01 -1.056300e+01 9.174800e+00
    endloop
  endfacet
  facet normal -0.000000e+00 1.000000e+00 0.000000e+00
    outer loop
      vertex   1.124853e+01 -9.449769e+00 9.574800e+00
      vertex   1.245590e+01 -9.449769e+00 9.574800e+00
      vertex   1.124853e+01 -9.449769e+00 9.174800e+00
    endloop
  endfacet
  facet normal 0.000000e+00 1.000000e+00 0.000000e+00
    outer loop
      vertex   1.124853e+01 -9.449769e+00 9.174800e+00
      vertex   1.245590e+01 -9.449769e+00 9.574800e+00
      vertex   1.245590e+01 -9.449769e+00 9.174800e+00
    endloop
  endfacet
  facet normal 1.000000e+00 0.000000e+00 0.000000e+00
    outer loop
      vertex   1.124853e+01 -8.704885e+00 9.574800e+00
      vertex   1.124853e+01 -9.449769e+00 9.574800e+00
      vertex   1.124853e+01 -8.704885e+00 9.174800e+00
    endloop
  endfacet
  facet normal 1.000000e+00 0.000000e+00 0.000000e+00
    outer loop
      vertex   1.124853e+01 -8.704885e+00 9.174800e+00
      vertex   1.124853e+01 -9.449769e+00 9.574800e+00
      vertex   1.124853e+01 -9.449769e+00 9.174800e+00
    endloop
  endfacet
  facet normal -0.000000e+00 1.000000e+00 0.000000e+00
    outer loop
      vertex   1.023762e+01 -8.704885e+00 9.574800e+00
      vertex   1.124853e+01 -8.704885e+00 9.574800e+00
      vertex   1.023762e+01 -8.704885e+00 9.174800e+00
    endloop
  endfacet
  facet normal 0.000000e+00 1.000000e+00 0.000000e+00
    outer loop
      vertex   1.023762e+01 -8.704885e+00 9.174800e+00
      vertex   1.124853e+01 -8.704885e+00 9.574800e+00
      vertex   1.124853e+01 -8.704885e+00 9.174800e+00
    endloop
  endfacet
  facet normal -1.000000e+00 0.000000e+00 0.000000e+00
    outer loop
      vertex   1.023762e+01 -9.449769e+00 9.574800e+00
      vertex   1.023762e+01 -8.704885e+00 9.574800e+00
      vertex   1.023762e+01 -9.449769e+00 9.174800e+00
    endloop
  endfacet
  facet normal -1.000000e+00 0.000000e+00 0.000000e+00
    outer loop
      vertex   1.023762e+01 -9.449769e+00 9.174800e+00
      vertex   1.023762e+01 -8.704885e+00 9.574800e+00
      vertex   1.023762e+01 -8.704885e+00 9.174800e+00
    endloop
  endfacet
  facet normal -0.000000e+00 1.000000e+00 0.000000e+00
    outer loop
      vertex   6.431344e+00 -9.449769e+00 9.574800e+00
      vertex   1.023762e+01 -9.449769e+00 9.574800e+00
      vertex   6.431344e+00 -9.449769e+00 9.174800e+00
    endloop
  endfacet
  facet normal 0.000000e+00 1.000000e+00 0.000000e+00
    outer loop
      vertex   6.431344e+00 -9.449769e+00 9.174800e+00
      vertex   1.023762e+01 -9.449769e+00 9.574800e+00
      vertex   1.023762e+01 -9.449769e+00 9.174800e+00
    endloop
  endfacet
  facet normal -1.000000e+00 0.000000e+00 0.000000e+00
    outer loop
      vertex   6.431344e+00 -1.041566e+01 9.574800e+00
      vertex   6.431344e+00 -9.449769e+00 9.574800e+00
      vertex   6.431344e+00 -1.041566e+01 9.174800e+00
    endloop
  endfacet
  facet normal -1.000000e+00 0.000000e+00 0.000000e+00
    outer loop
      vertex   6.431344e+00 -1.041566e+01 9.174800e+00
      vertex   6.431344e+00 -9.449769e+00 9.574800e+00
      vertex   6.431344e+00 -9.449769e+00 9.174800e+00
    endloop
  endfacet
  facet normal -5.640797e-01 -8.257204e-01 -0.000000e+00
    outer loop
      vertex   1.024171e+01 -1.301866e+01 9.574800e+00
      vertex   6.431344e+00 -1.041566e+01 9.574800e+00
      vertex   1.024171e+01 -1.301866e+01 9.174800e+00
    endloop
  endfacet
  facet normal -5.640797e-01 -8.257204e-01 0.000000e+00
    outer loop
      vertex   1.024171e+01 -1.301866e+01 9.174800e+00
      vertex   6.431344e+00 -1.041566e+01 9.574800e+00
      vertex   6.431344e+00 -1.041566e+01 9.174800e+00
    endloop
  endfacet
  facet normal -0.000000e+00 -1.000000e+00 -0.000000e+00
    outer loop
      vertex   1.124853e+01 -1.301866e+01 9.574800e+00
      vertex   1.024171e+01 -1.301866e+01 9.574800e+00
      vertex   1.124853e+01 -1.301866e+01 9.174800e+00
    endloop
  endfacet
  facet normal 0.000000e+00 -1.000000e+00 0.000000e+00
    outer loop
      vertex   1.124853e+01 -1.301866e+01 9.174800e+00
      vertex   1.024171e+01 -1.301866e+01 9.574800e+00
      vertex   1.024171e+01 -1.301866e+01 9.174800e+00
    endloop
  endfacet
  facet normal 1.000000e+00 0.000000e+00 0.000000e+00
    outer loop
      vertex   1.124853e+01 -1.056300e+01 9.574800e+00
      vertex   1.124853e+01 -1.301866e+01 9.574800e+00
      vertex   1.124853e+01 -1.056300e+01 9.174800e+00
    endloop
  endfacet
  facet normal 1.000000e+00 0.000000e+00 0.000000e+00
    outer loop
      vertex   1.124853e+01 -1.056300e+01 9.174800e+00
      vertex   1.124853e+01 -1.301866e+01 9.574800e+00
      vertex   1.124853e+01 -1.301866e+01 9.174800e+00
    endloop
  endfacet
  facet normal -0.000000e+00 -1.000000e+00 -0.000000e+00
    outer loop
      vertex   1.245590e+01 -1.056300e+01 9.574800e+00
      vertex   1.124853e+01 -1.056300e+01 9.574800e+00
      vertex   1.245590e+01 -1.056300e+01 9.174800e+00
    endloop
  endfacet
  facet normal 0.000000e+00 -1.000000e+00 0.000000e+00
    outer loop
      vertex   1.245590e+01 -1.056300e+01 9.174800e+00
      vertex   1.124853e+01 -1.056300e+01 9.574800e+00
      vertex   1.124853e+01 -1.056300e+01 9.174800e+00
    endloop
  endfacet
  facet normal 1.000000e+00 0.000000e+00 0.000000e+00
    outer loop
      vertex   1.245590e+01 -9.449769e+00 9.574800e+00
      vertex   1.245590e+01 -1.056300e+01 9.574800e+00
      vertex   1.245590e+01 -9.449769e+00 9.174800e+00
    endloop
  endfacet
  facet normal 1.000000e+00 0.000000e+00 0.000000e+00
    outer loop
      vertex   1.245590e+01 -9.449769e+00 9.174800e+00
      vertex   1.245590e+01 -1.056300e+01 9.574800e+00
      vertex   1.245590e+01 -1.056300e+01 9.174800e+00
    endloop
  endfacet
  facet normal 0.000000e+00 -0.000000e+00 1.000000e+00
    outer loop
      vertex   1.245590e+01 -1.056300e+01 9.574800e+00
      vertex   1.245590e+01 -9.449769e+00 9.574800e+00
      vertex   1.124853e+01 -1.056300e+01 9.574800e+00
    endloop
  endfacet
  facet normal 0.000000e+00 0.000000e+00 1.000000e+00
    outer loop
      vertex   1.124853e+01 -1.056300e+01 9.574800e+00
      vertex   1.245590e+01 -9.449769e+00 9.574800e+00
      vertex   1.124853e+01 -9.449769e+00 9.574800e+00
    endloop
  endfacet
  facet normal 0.000000e+00 -0.000000e+00 1.000000e+00
    outer loop
      vertex   1.124853e+01 -1.056300e+01 9.574800e+00
      vertex   1.124853e+01 -9.449769e+00 9.574800e+00
      vertex   1.023762e+01 -1.056300e+01 9.574800e+00
    endloop
  endfacet
  facet normal 0.000000e+00 0.000000e+00 1.000000e+00
    outer loop
      vertex   1.023762e+01 -1.056300e+01 9.574800e+00
      vertex   1.124853e+01 -9.449769e+00 9.574800e+00
      vertex   1.023762e+01 -9.449769e+00 9.574800e+00
    endloop
  endfacet
  facet normal 0.000000e+00 -0.000000e+00 1.000000e+00
    outer loop
      vertex   1.023762e+01 -1.056300e+01 9.574800e+00
      vertex   1.023762e+01 -9.449769e+00 9.574800e+00
      vertex   8.187142e+00 -1.056300e+01 9.574800e+00
    endloop
  endfacet
  facet normal 0.000000e+00 -0.000000e+00 1.000000e+00
    outer loop
      vertex   8.187142e+00 -1.056300e+01 9.574800e+00
      vertex   1.023762e+01 -9.449769e+00 9.574800e+00
      vertex   6.431344e+00 -9.449769e+00 9.574800e+00
    endloop
  endfacet
  facet normal 0.000000e+00 0.000000e+00 1.000000e+00
    outer loop
      vertex   8.187142e+00 -1.056300e+01 9.574800e+00
      vertex   6.431344e+00 -9.449769e+00 9.574800e+00
      vertex   6.431344e+00 -1.041566e+01 9.574800e+00
    endloop
  endfacet
  facet normal 0.000000e+00 0.000000e+00 1.000000e+00
    outer loop
      vertex   1.124853e+01 -8.704885e+00 9.574800e+00
      vertex   1.023762e+01 -8.704885e+00 9.574800e+00
      vertex   1.124853e+01 -9.449769e+00 9.574800e+00
    endloop
  endfacet
  facet normal 0.000000e+00 0.000000e+00 1.000000e+00
    outer loop
      vertex   1.124853e+01 -9.449769e+00 9.574800e+00
      vertex   1.023762e+01 -8.704885e+00 9.574800e+00
      vertex   1.023762e+01 -9.449769e+00 9.574800e+00
    endloop
  endfacet
  facet normal 0.000000e+00 0.000000e+00 1.000000e+00
    outer loop
      vertex   6.431344e+00 -1.041566e+01 9.574800e+00
      vertex   1.024171e+01 -1.301866e+01 9.574800e+00
      vertex   8.187142e+00 -1.056300e+01 9.574800e+00
    endloop
  endfacet
  facet normal 0.000000e+00 0.000000e+00 1.000000e+00
    outer loop
      vertex   8.187142e+00 -1.056300e+01 9.574800e+00
      vertex   1.024171e+01 -1.301866e+01 9.574800e+00
      vertex   1.023762e+01 -1.194227e+01 9.574800e+00
    endloop
  endfacet
  facet normal 0.000000e+00 0.000000e+00 1.000000e+00
    outer loop
      vertex   1.023762e+01 -1.194227e+01 9.574800e+00
      vertex   1.024171e+01 -1.301866e+01 9.574800e+00
      vertex   1.124853e+01 -1.301866e+01 9.574800e+00
    endloop
  endfacet
  facet normal -0.000000e+00 0.000000e+00 1.000000e+00
    outer loop
      vertex   1.023762e+01 -1.194227e+01 9.574800e+00
      vertex   1.124853e+01 -1.301866e+01 9.574800e+00
      vertex   1.124853e+01 -1.056300e+01 9.574800e+00
    endloop
  endfacet
  facet normal -0.000000e+00 0.000000e+00 1.000000e+00
    outer loop
      vertex   1.023762e+01 -1.056300e+01 9.574800e+00
      vertex   1.023762e+01 -1.194227e+01 9.574800e+00
      vertex   1.124853e+01 -1.056300e+01 9.574800e+00
    endloop
  endfacet
  facet normal -0.000000e+00 -0.000000e+00 -1.000000e+00
    outer loop
      vertex   1.245590e+01 -9.449769e+00 9.174800e+00
      vertex   1.245590e+01 -1.056300e+01 9.174800e+00
      vertex   1.124853e+01 -9.449769e+00 9.174800e+00
    endloop
  endfacet
  facet normal 0.000000e+00 0.000000e+00 -1.000000e+00
    outer loop
      vertex   1.124853e+01 -9.449769e+00 9.174800e+00
      vertex   1.245590e+01 -1.056300e+01 9.174800e+00
      vertex   1.124853e+01 -1.056300e+01 9.174800e+00
    endloop
  endfacet
  facet normal -0.000000e+00 -0.000000e+00 -1.000000e+00
    outer loop
      vertex   1.124853e+01 -9.449769e+00 9.174800e+00
      vertex   1.124853e+01 -1.056300e+01 9.174800e+00
      vertex   1.023762e+01 -9.449769e+00 9.174800e+00
    endloop
  endfacet
  facet normal 0.000000e+00 0.000000e+00 -1.000000e+00
    outer loop
      vertex   1.023762e+01 -9.449769e+00 9.174800e+00
      vertex   1.124853e+01 -1.056300e+01 9.174800e+00
      vertex   1.023762e+01 -1.056300e+01 9.174800e+00
    endloop
  endfacet
  facet normal 0.000000e+00 -0.000000e+00 -1.000000e+00
    outer loop
      vertex   1.023762e+01 -9.449769e+00 9.174800e+00
      vertex   1.023762e+01 -1.056300e+01 9.174800e+00
      vertex   8.187142e+00 -1.056300e+01 9.174800e+00
    endloop
  endfacet
  facet normal 0.000000e+00 0.000000e+00 -1.000000e+00
    outer loop
      vertex   1.023762e+01 -1.056300e+01 9.174800e+00
      vertex   1.124853e+01 -1.056300e+01 9.174800e+00
      vertex   1.023762e+01 -1.194227e+01 9.174800e+00
    endloop
  endfacet
  facet normal 0.000000e+00 0.000000e+00 -1.000000e+00
    outer loop
      vertex   1.023762e+01 -1.194227e+01 9.174800e+00
      vertex   1.124853e+01 -1.056300e+01 9.174800e+00
      vertex   1.124853e+01 -1.301866e+01 9.174800e+00
    endloop
  endfacet
  facet normal 0.000000e+00 0.000000e+00 -1.000000e+00
    outer loop
      vertex   1.023762e+01 -1.194227e+01 9.174800e+00
      vertex   1.124853e+01 -1.301866e+01 9.174800e+00
      vertex   1.024171e+01 -1.301866e+01 9.174800e+00
    endloop
  endfacet
  facet normal -0.000000e+00 -0.000000e+00 -1.000000e+00
    outer loop
      vertex   1.023762e+01 -1.194227e+01 9.174800e+00
      vertex   1.024171e+01 -1.301866e+01 9.174800e+00
      vertex   8.187142e+00 -1.056300e+01 9.174800e+00
    endloop
  endfacet
  facet normal -0.000000e+00 -0.000000e+00 -1.000000e+00
    outer loop
      vertex   8.187142e+00 -1.056300e+01 9.174800e+00
      vertex   1.024171e+01 -1.301866e+01 9.174800e+00
      vertex   6.431344e+00 -1.041566e+01 9.174800e+00
    endloop
  endfacet
  facet normal 0.000000e+00 0.000000e+00 -1.000000e+00
    outer loop
      vertex   8.187142e+00 -1.056300e+01 9.174800e+00
      vertex   6.431344e+00 -1.041566e+01 9.174800e+00
      vertex   6.431344e+00 -9.449769e+00 9.174800e+00
    endloop
  endfacet
  facet normal 0.000000e+00 0.000000e+00 -1.000000e+00
    outer loop
      vertex   6.431344e+00 -9.449769e+00 9.174800e+00
      vertex   1.023762e+01 -9.449769e+00 9.174800e+00
      vertex   8.187142e+00 -1.056300e+01 9.174800e+00
    endloop
  endfacet
  facet normal 0.000000e+00 0.000000e+00 -1.000000e+00
    outer loop
      vertex   1.023762e+01 -8.704885e+00 9.174800e+00
      vertex   1.124853e+01 -8.704885e+00 9.174800e+00
      vertex   1.023762e+01 -9.449769e+00 9.174800e+00
    endloop
  endfacet
  facet normal 0.000000e+00 0.000000e+00 -1.000000e+00
    outer loop
      vertex   1.023762e+01 -9.449769e+00 9.174800e+00
      vertex   1.124853e+01 -8.704885e+00 9.174800e+00
      vertex   1.124853e+01 -9.449769e+00 9.174800e+00
    endloop
  endfacet
endsolid
