<?xml version="1.0" encoding="UTF-8" standalone="no"?>
<!-- Created with Inkscape (http://www.inkscape.org/) -->

<svg
   width="248.90114mm"
   height="34.777283mm"
   viewBox="0 0 248.90114 34.777283"
   version="1.1"
   id="svg5"
   xml:space="preserve"
   inkscape:version="1.2.1 (9c6d41e410, 2022-07-14)"
   sodipodi:docname="quan-click.svg"
   xmlns:inkscape="http://www.inkscape.org/namespaces/inkscape"
   xmlns:sodipodi="http://sodipodi.sourceforge.net/DTD/sodipodi-0.dtd"
   xmlns="http://www.w3.org/2000/svg"
   xmlns:svg="http://www.w3.org/2000/svg"><sodipodi:namedview
     id="namedview7"
     pagecolor="#ffffff"
     bordercolor="#000000"
     borderopacity="0.25"
     inkscape:showpageshadow="2"
     inkscape:pageopacity="0.0"
     inkscape:pagecheckerboard="0"
     inkscape:deskcolor="#d1d1d1"
     inkscape:document-units="mm"
     showgrid="false"
     showguides="true"
     inkscape:zoom="0.914906"
     inkscape:cx="737.78071"
     inkscape:cy="439.9359"
     inkscape:window-width="2466"
     inkscape:window-height="1204"
     inkscape:window-x="1175"
     inkscape:window-y="663"
     inkscape:window-maximized="0"
     inkscape:current-layer="layer1"><sodipodi:guide
       position="97.670086,105.98594"
       orientation="0,-1"
       id="guide382"
       inkscape:locked="false" /><sodipodi:guide
       position="221.9997,72.040677"
       orientation="0,-1"
       id="guide384"
       inkscape:locked="false" /></sodipodi:namedview><defs
     id="defs2" /><g
     inkscape:label="Layer 1"
     inkscape:groupmode="layer"
     id="layer1"
     transform="translate(154.31367,-319.66339)"><g
       id="g994"><g
         id="g335"
         transform="matrix(0.71372889,0,0,0.71372889,-170.6108,192.69914)"><path
           style="fill:#085ae3;fill-opacity:1;stroke-width:0.0936884"
           d="m 91.885059,226.2715 c -3.075185,-0.5033 -5.822356,-1.99327 -9.035495,-4.90055 -0.696433,-0.63014 -4.484919,-4.64847 -4.985936,-5.28844 -0.174298,-0.22263 -0.268425,-0.25764 -0.692726,-0.25764 -1.482875,0 -3.993354,-0.53904 -5.620698,-1.20685 -2.065656,-0.84769 -3.757698,-1.99303 -5.398352,-3.65415 -1.364685,-1.38171 -2.161558,-2.50121 -3.041995,-4.27362 -1.315781,-2.64879 -1.926922,-4.97497 -2.107311,-8.02107 -0.284323,-4.80111 0.849133,-9.60028 3.062064,-12.96512 2.716724,-4.13087 6.597817,-6.65599 11.596611,-7.54499 1.385905,-0.24647 4.588036,-0.35256 5.996056,-0.19864 5.262146,0.57521 9.330209,3.00166 12.275741,7.32203 0.617532,0.90577 1.598204,2.88518 1.956697,3.94944 0.378471,1.12357 0.780458,2.91719 0.952132,4.24829 0.21256,1.64812 0.21394,4.74889 0.0028,6.32397 -0.902028,6.72949 -4.203996,11.61291 -9.571907,14.15631 -0.518489,0.24567 -1.056026,0.47511 -1.194526,0.50987 -0.1385,0.0348 -0.251819,0.0943 -0.251819,0.13223 0,0.14359 1.954527,1.963 2.712574,2.52506 1.03546,0.76774 2.625635,1.54096 3.760889,1.82872 0.936008,0.23725 2.572928,0.42781 3.679702,0.42836 0.811434,3.7e-4 2.432418,-0.23738 3.158244,-0.46328 l 0.554467,-0.17257 v 3.49408 3.49409 l -0.679241,0.1484 c -1.527918,0.33383 -2.529794,0.4441 -4.379931,0.48207 -1.39526,0.0286 -2.146946,0.002 -2.748059,-0.096 z M 80.859683,208.59881 c 4.010421,-0.70797 6.756863,-4.16342 7.303645,-9.18914 0.127571,-1.17256 0.126999,-3.66789 -0.0011,-4.83233 -0.345709,-3.14233 -1.374843,-5.54051 -3.125699,-7.28376 -1.19381,-1.18862 -2.305136,-1.77292 -4.014961,-2.11094 -1.746452,-0.34527 -3.818663,-0.1612 -5.346714,0.47493 -2.343175,0.97547 -4.188886,3.08024 -5.156875,5.88067 -0.624456,1.80658 -0.757066,2.75394 -0.757066,5.40842 0,2.06162 0.02543,2.46825 0.212248,3.39435 0.278218,1.37915 0.516915,2.13554 1.001482,3.17355 1.655574,3.54643 4.702856,5.42324 8.479725,5.22264 0.488838,-0.026 1.121234,-0.0882 1.405326,-0.13839 z m -40.472136,16.542 c -4.437507,-0.69565 -8.128437,-3.12289 -10.461982,-6.88004 -0.756452,-1.21794 -6.681729,-12.69539 -6.931357,-13.42626 -0.232966,-0.68209 -0.209307,-1.82304 0.05206,-2.51063 0.300478,-0.79048 0.731898,-1.37631 1.346993,-1.82912 1.291506,-0.95075 2.975034,-1.0259 4.36379,-0.19477 0.687802,0.41163 1.17761,0.98611 1.840059,2.15815 l 0.56213,0.99455 0.04684,-8.40588 c 0.04605,-8.26335 0.05017,-8.41396 0.243092,-8.88312 0.430778,-1.04762 1.12964,-1.78157 2.152508,-2.26059 0.496809,-0.23266 0.659653,-0.26019 1.539312,-0.26019 0.912926,0 1.029405,0.0216 1.618357,0.30061 1.101604,0.52181 1.943591,1.56793 2.217195,2.75474 0.05664,0.24569 0.0957,2.20573 0.09707,4.87102 l 0.0023,4.45989 0.488859,-0.1268 c 1.244214,-0.32275 2.651859,0.0542 3.550193,0.95063 l 0.39863,0.3978 0.645375,-0.30928 c 1.444208,-0.69212 3.099271,-0.43981 4.264482,0.6501 l 0.449497,0.42046 0.55883,-0.27531 c 1.541422,-0.75938 3.225113,-0.48252 4.43402,0.7291 0.600352,0.6017 1.005734,1.3576 1.133034,2.11273 0.07625,0.45228 0.245106,9.86688 0.233129,12.99775 -0.0056,1.45628 -0.119775,2.30714 -0.47533,3.54136 -1.154191,4.00651 -4.81904,7.08518 -9.450441,7.93887 -1.185904,0.21859 -3.778347,0.26299 -4.91864,0.0842 z m 4.731263,-2.67403 c 3.4205,-0.69501 6.157958,-2.93048 7.104843,-5.80199 0.447702,-1.35769 0.453784,-1.49094 0.391155,-8.56921 -0.0344,-3.88729 -0.09816,-6.83178 -0.153433,-7.08475 -0.140955,-0.64515 -0.585903,-1.03946 -1.226392,-1.08682 -0.630473,-0.0466 -1.041475,0.19107 -1.294611,0.7487 -0.157751,0.34751 -0.180125,0.62494 -0.18193,2.25585 -0.0023,2.08073 -0.06229,2.34513 -0.608642,2.6828 -0.568689,0.35147 -1.440274,0.15673 -1.753067,-0.39169 -0.08925,-0.15647 -0.13597,-0.88558 -0.169934,-2.65171 -0.04417,-2.29689 -0.0585,-2.4546 -0.251172,-2.7638 -0.403095,-0.6469 -1.247044,-0.85553 -1.885686,-0.46616 -0.579842,0.35352 -0.669402,0.73231 -0.671736,2.84105 -0.0023,2.08073 -0.06229,2.34514 -0.608643,2.6828 -0.568688,0.35147 -1.440273,0.15674 -1.753067,-0.39168 -0.08925,-0.15648 -0.13597,-0.88558 -0.169934,-2.65171 -0.04523,-2.35187 -0.05443,-2.4481 -0.266687,-2.7895 -0.576367,-0.92705 -1.835759,-0.86338 -2.333165,0.11795 -0.197773,0.39019 -0.210799,0.53198 -0.210799,2.29469 0,1.64067 -0.0217,1.91925 -0.171194,2.198 -0.33319,0.62127 -1.159096,0.83906 -1.764053,0.46518 -0.627228,-0.38765 -0.594339,0.0952 -0.594339,-8.72632 v -7.99515 l -0.210799,-0.41727 c -0.355492,-0.70369 -1.113884,-1.03302 -1.69255,-0.73499 -0.310395,0.15986 -0.633768,0.47659 -0.753288,0.7378 -0.07761,0.16962 -0.120091,3.25471 -0.154014,11.18496 l -0.04684,10.95075 -0.778021,0.28248 -0.77802,0.28248 -0.373435,-0.36465 c -0.376491,-0.36763 -1.303957,-1.87804 -2.899921,-4.72261 -0.993036,-1.76993 -1.258545,-2.09674 -1.817882,-2.23759 -0.901502,-0.227 -1.644142,0.36421 -1.644142,1.30889 0,0.40229 0.218874,0.87848 1.783362,3.87989 0.349171,0.66987 1.527168,2.94628 2.617771,5.05868 2.10075,4.06897 2.591183,4.89094 3.633783,6.09023 1.931127,2.22137 4.689124,3.62628 7.823256,3.98512 0.982086,0.11244 2.782386,0.0189 3.863231,-0.2007 z m 56.44725,-0.59901 v -3.41963 h 29.13709 29.13708 v 3.41963 3.41963 h -29.13708 -29.13709 z m 5.34591,-8.10555 c -0.8535,-0.11984 -1.81859,-0.42818 -2.5821,-0.82496 -0.80995,-0.42091 -1.91591,-1.50157 -2.41488,-2.35962 -1.41891,-2.44005 -1.27619,-6.35162 0.31683,-8.68306 1.10082,-1.61108 2.84534,-2.74612 4.81501,-3.13278 1.26511,-0.24836 3.63292,-0.12875 4.89522,0.24728 l 0.49186,0.14652 v 1.5832 1.58319 l -0.61359,-0.27822 c -0.92279,-0.41841 -1.87063,-0.58387 -3.03772,-0.53029 -1.96792,0.0904 -3.27942,0.97211 -4.00539,2.69291 -0.24358,0.57737 -0.25734,0.68798 -0.25656,2.06227 7.5e-4,1.28534 0.025,1.51248 0.21111,1.97717 0.46938,1.17185 1.31488,2.03161 2.40496,2.44552 0.49065,0.18629 0.73419,0.21447 1.83072,0.21176 1.34901,-0.003 1.9386,-0.12224 2.83096,-0.571 0.24305,-0.12223 0.48547,-0.22223 0.53871,-0.22223 0.1493,0 0.1298,2.85528 -0.0203,2.97408 -0.17254,0.13656 -1.25188,0.4681 -1.89471,0.58199 -0.79686,0.14118 -2.79914,0.1961 -3.51012,0.0963 z m 31.23457,-0.006 c -2.96806,-0.34678 -5.16537,-2.36677 -5.77294,-5.30705 -0.27286,-1.32049 -0.20715,-3.27875 0.15006,-4.47208 0.46002,-1.53676 1.31187,-2.82479 2.45343,-3.70972 0.99766,-0.77336 1.77341,-1.14099 3.0806,-1.4599 1.26313,-0.30816 4.24388,-0.16934 5.34388,0.24887 l 0.23057,0.0877 v 1.5901 1.5901 l -0.59376,-0.27786 c -1.50462,-0.7041 -3.55667,-0.74838 -4.93385,-0.10647 -0.60709,0.28297 -1.56996,1.20399 -1.86662,1.78548 -0.31858,0.62448 -0.56946,1.74491 -0.56765,2.53517 0.007,2.90231 1.72484,4.69685 4.49168,4.69122 1.15607,-0.002 1.96003,-0.19657 3.35309,-0.81004 0.091,-0.0401 0.11711,0.28218 0.11711,1.44243 0,1.72168 0.10805,1.54159 -1.13119,1.88546 -1.22099,0.33881 -2.93957,0.45193 -4.35441,0.28662 z m -22.90197,-7.5341 v -7.35454 h 1.63954 1.63955 v 5.99606 5.99606 h 2.71696 2.71696 v 1.35848 1.35848 h -4.3565 -4.35651 z m 9.74359,6.0911 v -1.26615 h 0.60897 0.60898 v -4.82495 -4.82495 h -0.60898 -0.60897 v -1.26615 -1.26614 l 2.88091,0.0248 2.88092,0.0248 0.0261,1.23703 0.0261,1.23703 -0.63508,0.0278 -0.63509,0.0278 -0.0243,4.80153 -0.0243,4.80153 h 0.65939 0.6594 l -0.0262,1.24137 -0.0261,1.24137 -2.88092,0.0248 -2.88091,0.0248 z m 21.45464,-6.0911 v -7.35886 l 1.66296,0.0256 1.66297,0.0256 v 3.45035 c 0,1.89769 0.0321,3.39436 0.0714,3.32594 0.2785,-0.48526 1.39017,-2.21119 2.7861,-4.32558 l 1.63954,-2.48339 1.99457,-0.007 1.99456,-0.007 -0.50484,0.68265 c -2.0524,2.77525 -4.5617,6.26086 -4.5617,6.33654 0,0.0503 1.22263,1.77931 2.71696,3.84224 1.49433,2.06293 2.71696,3.77338 2.71696,3.801 0,0.0276 -0.93214,0.0389 -2.07143,0.025 l -2.07144,-0.0252 -2.14622,-3.1854 c -1.18043,-1.75197 -2.21925,-3.34911 -2.3085,-3.54919 -0.15833,-0.35498 -0.1634,-0.27782 -0.20911,3.1854 l -0.0469,3.54919 -1.66297,0.0256 -1.66296,0.0256 z m -40.33286,-9.54782 c -2.27243,-0.44314 -3.58286,-1.69979 -4.18628,-4.01448 -0.19108,-0.73296 -0.20321,-1.02682 -0.23971,-5.80777 l -0.0384,-5.03575 h 1.68962 1.68963 l 0.0296,4.94206 c 0.0343,5.72548 0.0184,5.60565 0.85252,6.43468 0.56088,0.55748 0.96481,0.70906 1.88946,0.70906 0.92086,0 1.32936,-0.15213 1.87832,-0.69949 0.8301,-0.8277 0.82471,-0.78711 0.86241,-6.49109 l 0.0324,-4.89522 h 1.64007 1.64008 l -0.0324,5.08259 c -0.0312,4.88444 -0.0404,5.11109 -0.23676,5.81341 -0.57601,2.05995 -1.80289,3.31378 -3.74035,3.82253 -0.94763,0.24884 -2.81184,0.31854 -3.73011,0.13947 z m 9.74191,-0.50026 c 0.13447,-0.34403 4.09766,-11.22287 4.84726,-13.30557 l 0.38,-1.05582 1.9729,0.0252 1.97289,0.0252 1.66637,4.68442 c 1.63892,4.60729 3.43168,9.63082 3.519,9.8607 0.0346,0.0912 -0.35726,0.11711 -1.77054,0.11711 h -1.81503 l -0.51551,-1.61612 -0.51553,-1.61612 -2.59403,-0.0249 c -2.39958,-0.023 -2.60036,-0.0125 -2.67843,0.14053 -0.0464,0.091 -0.28785,0.82945 -0.53651,1.64102 l -0.45213,1.47559 h -1.80902 -1.80902 z m 8.94893,-5.50516 c 0,-0.0263 -0.36046,-1.16704 -0.80102,-2.53498 -0.44056,-1.36795 -0.85521,-2.76933 -0.92144,-3.11418 l -0.12043,-0.62699 -0.0673,0.37475 c -0.037,0.20612 -0.36681,1.32335 -0.7329,2.48275 -0.36609,1.15939 -0.7611,2.41364 -0.87779,2.78722 l -0.21217,0.67925 h 1.86651 c 1.02659,0 1.86652,-0.0215 1.86652,-0.0478 z m 7.49507,-1.49804 v -7.35454 l 1.8035,3.8e-4 1.8035,3.9e-4 0.62023,0.95992 c 0.34112,0.52796 1.77455,2.73631 3.1854,4.90745 1.41085,2.17113 2.60734,4.01892 2.65887,4.10619 0.063,0.10669 0.0833,-1.50119 0.062,-4.90782 l -0.0317,-5.06651 h 1.60101 1.60099 v 7.35454 7.35453 h -1.68944 -1.68944 l -1.89519,-2.88091 c -3.69303,-5.61385 -4.35962,-6.63864 -4.79743,-7.37551 -0.063,-0.10599 -0.0835,1.54916 -0.0627,5.04937 l 0.031,5.20705 h -1.60027 -1.60025 z m -104.819513,0.13782 c -0.517805,-0.3157 -0.608672,-0.68272 -0.55603,-2.24586 0.03563,-1.05785 0.09231,-1.50397 0.255978,-2.01456 0.903612,-2.81898 3.000548,-4.86099 5.826149,-5.67353 0.989134,-0.28444 2.619361,-0.3471 3.641584,-0.13997 3.228285,0.65413 5.724668,2.99993 6.517164,6.12404 0.284527,1.12164 0.319987,2.92616 0.06794,3.45732 -0.209505,0.4415 -0.624849,0.68155 -1.17998,0.68199 -0.377825,2.8e-4 -0.500152,-0.0489 -0.796351,-0.32021 l -0.349956,-0.32056 -0.06369,-1.34241 c -0.0366,-0.77141 -0.124918,-1.53356 -0.207631,-1.7918 -0.449137,-1.40222 -1.683832,-2.84048 -2.982703,-3.47445 -2.839914,-1.38615 -6.207485,-0.23442 -7.637892,2.6122 -0.428263,0.85228 -0.502111,1.19542 -0.571491,2.65554 l -0.06386,1.34391 -0.348157,0.31906 c -0.294385,0.26979 -0.417102,0.31901 -0.794553,0.31872 -0.282313,-1.9e-4 -0.56039,-0.0699 -0.756521,-0.18943 z"
           id="path324" /><path
           style="fill:#4e4e4e;stroke-width:0.0936884"
           d="m 91.885059,226.2715 c -3.075185,-0.5033 -5.822356,-1.99327 -9.035495,-4.90055 -0.696433,-0.63014 -4.484919,-4.64847 -4.985936,-5.28844 -0.174298,-0.22263 -0.268425,-0.25764 -0.692726,-0.25764 -1.482875,0 -3.993354,-0.53904 -5.620698,-1.20685 -2.065656,-0.84769 -3.757698,-1.99303 -5.398352,-3.65415 -1.364685,-1.38171 -2.161558,-2.50121 -3.041995,-4.27362 -1.315781,-2.64879 -1.926922,-4.97497 -2.107311,-8.02107 -0.284323,-4.80111 0.849133,-9.60028 3.062064,-12.96512 2.716724,-4.13087 6.597817,-6.65599 11.596611,-7.54499 1.385905,-0.24647 4.588036,-0.35256 5.996056,-0.19864 5.262146,0.57521 9.330209,3.00166 12.275741,7.32203 0.617532,0.90577 1.598204,2.88518 1.956697,3.94944 0.378471,1.12357 0.780458,2.91719 0.952132,4.24829 0.21256,1.64812 0.21394,4.74889 0.0028,6.32397 -0.902028,6.72949 -4.203996,11.61291 -9.571907,14.15631 -0.518489,0.24567 -1.056026,0.47511 -1.194526,0.50987 -0.1385,0.0348 -0.251819,0.0943 -0.251819,0.13223 0,0.14359 1.954527,1.963 2.712574,2.52506 1.03546,0.76774 2.625635,1.54096 3.760889,1.82872 0.936008,0.23725 2.572928,0.42781 3.679702,0.42836 0.811434,3.7e-4 2.432418,-0.23738 3.158244,-0.46328 l 0.554467,-0.17257 v 3.49408 3.49409 l -0.679241,0.1484 c -1.527918,0.33383 -2.529794,0.4441 -4.379931,0.48207 -1.39526,0.0286 -2.146946,0.002 -2.748059,-0.096 z M 80.859683,208.59881 c 4.010421,-0.70797 6.756863,-4.16342 7.303645,-9.18914 0.127571,-1.17256 0.126999,-3.66789 -0.0011,-4.83233 -0.345709,-3.14233 -1.374843,-5.54051 -3.125699,-7.28376 -1.19381,-1.18862 -2.305136,-1.77292 -4.014961,-2.11094 -1.746452,-0.34527 -3.818663,-0.1612 -5.346714,0.47493 -2.343175,0.97547 -4.188886,3.08024 -5.156875,5.88067 -0.624456,1.80658 -0.757066,2.75394 -0.757066,5.40842 0,2.06162 0.02543,2.46825 0.212248,3.39435 0.278218,1.37915 0.516915,2.13554 1.001482,3.17355 1.655574,3.54643 4.702856,5.42324 8.479725,5.22264 0.488838,-0.026 1.121234,-0.0882 1.405326,-0.13839 z m -40.472136,16.542 c -4.437507,-0.69565 -8.128437,-3.12289 -10.461982,-6.88004 -0.756452,-1.21794 -6.681729,-12.69539 -6.931357,-13.42626 -0.232966,-0.68209 -0.209307,-1.82304 0.05206,-2.51063 0.300478,-0.79048 0.731898,-1.37631 1.346993,-1.82912 1.291506,-0.95075 2.975034,-1.0259 4.36379,-0.19477 0.687802,0.41163 1.17761,0.98611 1.840059,2.15815 l 0.56213,0.99455 0.04684,-8.40588 c 0.04605,-8.26335 0.05017,-8.41396 0.243092,-8.88312 0.430778,-1.04762 1.12964,-1.78157 2.152508,-2.26059 0.496809,-0.23266 0.659653,-0.26019 1.539312,-0.26019 0.912926,0 1.029405,0.0216 1.618357,0.30061 1.101604,0.52181 1.943591,1.56793 2.217195,2.75474 0.05664,0.24569 0.0957,2.20573 0.09707,4.87102 l 0.0023,4.45989 0.488859,-0.1268 c 1.244214,-0.32275 2.651859,0.0542 3.550193,0.95063 l 0.39863,0.3978 0.645375,-0.30928 c 1.444208,-0.69212 3.099271,-0.43981 4.264482,0.6501 l 0.449497,0.42046 0.55883,-0.27531 c 1.541422,-0.75938 3.225113,-0.48252 4.43402,0.7291 0.600352,0.6017 1.005734,1.3576 1.133034,2.11273 0.07625,0.45228 0.245106,9.86688 0.233129,12.99775 -0.0056,1.45628 -0.119775,2.30714 -0.47533,3.54136 -1.154191,4.00651 -4.81904,7.08518 -9.450441,7.93887 -1.185904,0.21859 -3.778347,0.26299 -4.91864,0.0842 z m 4.731263,-2.67403 c 3.4205,-0.69501 6.157958,-2.93048 7.104843,-5.80199 0.447702,-1.35769 0.453784,-1.49094 0.391155,-8.56921 -0.0344,-3.88729 -0.09816,-6.83178 -0.153433,-7.08475 -0.140955,-0.64515 -0.585903,-1.03946 -1.226392,-1.08682 -0.630473,-0.0466 -1.041475,0.19107 -1.294611,0.7487 -0.157751,0.34751 -0.180125,0.62494 -0.18193,2.25585 -0.0023,2.08073 -0.06229,2.34513 -0.608642,2.6828 -0.568689,0.35147 -1.440274,0.15673 -1.753067,-0.39169 -0.08925,-0.15647 -0.13597,-0.88558 -0.169934,-2.65171 -0.04417,-2.29689 -0.0585,-2.4546 -0.251172,-2.7638 -0.403095,-0.6469 -1.247044,-0.85553 -1.885686,-0.46616 -0.579842,0.35352 -0.669402,0.73231 -0.671736,2.84105 -0.0023,2.08073 -0.06229,2.34514 -0.608643,2.6828 -0.568688,0.35147 -1.440273,0.15674 -1.753067,-0.39168 -0.08925,-0.15648 -0.13597,-0.88558 -0.169934,-2.65171 -0.04523,-2.35187 -0.05443,-2.4481 -0.266687,-2.7895 -0.576367,-0.92705 -1.835759,-0.86338 -2.333165,0.11795 -0.197773,0.39019 -0.210799,0.53198 -0.210799,2.29469 0,1.64067 -0.0217,1.91925 -0.171194,2.198 -0.33319,0.62127 -1.159096,0.83906 -1.764053,0.46518 -0.627228,-0.38765 -0.594339,0.0952 -0.594339,-8.72632 v -7.99515 l -0.210799,-0.41727 c -0.355492,-0.70369 -1.113884,-1.03302 -1.69255,-0.73499 -0.310395,0.15986 -0.633768,0.47659 -0.753288,0.7378 -0.07761,0.16962 -0.120091,3.25471 -0.154014,11.18496 l -0.04684,10.95075 -0.778021,0.28248 -0.77802,0.28248 -0.373435,-0.36465 c -0.376491,-0.36763 -1.303957,-1.87804 -2.899921,-4.72261 -0.993036,-1.76993 -1.258545,-2.09674 -1.817882,-2.23759 -0.901502,-0.227 -1.644142,0.36421 -1.644142,1.30889 0,0.40229 0.218874,0.87848 1.783362,3.87989 0.349171,0.66987 1.527168,2.94628 2.617771,5.05868 2.10075,4.06897 2.591183,4.89094 3.633783,6.09023 1.931127,2.22137 4.689124,3.62628 7.823256,3.98512 0.982086,0.11244 2.782386,0.0189 3.863231,-0.2007 z m 61.79316,-8.70456 c -0.8535,-0.11984 -1.81859,-0.42818 -2.5821,-0.82496 -0.80995,-0.42091 -1.91591,-1.50157 -2.41488,-2.35962 -1.41891,-2.44005 -1.27619,-6.35162 0.31683,-8.68306 1.10082,-1.61108 2.84534,-2.74612 4.81501,-3.13278 1.26511,-0.24836 3.63292,-0.12875 4.89522,0.24728 l 0.49186,0.14652 v 1.5832 1.58319 l -0.61359,-0.27822 c -0.92279,-0.41841 -1.87063,-0.58387 -3.03772,-0.53029 -1.96792,0.0904 -3.27942,0.97211 -4.00539,2.69291 -0.24358,0.57737 -0.25734,0.68798 -0.25656,2.06227 7.5e-4,1.28534 0.025,1.51248 0.21111,1.97717 0.46938,1.17185 1.31488,2.03161 2.40496,2.44552 0.49065,0.18629 0.73419,0.21447 1.83072,0.21176 1.34901,-0.003 1.9386,-0.12224 2.83096,-0.571 0.24305,-0.12223 0.48547,-0.22223 0.53871,-0.22223 0.1493,0 0.1298,2.85528 -0.0203,2.97408 -0.17254,0.13656 -1.25188,0.4681 -1.89471,0.58199 -0.79686,0.14118 -2.79914,0.1961 -3.51012,0.0963 z m 31.23457,-0.006 c -2.96806,-0.34678 -5.16537,-2.36677 -5.77294,-5.30705 -0.27286,-1.32049 -0.20715,-3.27875 0.15006,-4.47208 0.46002,-1.53676 1.31187,-2.82479 2.45343,-3.70972 0.99766,-0.77336 1.77341,-1.14099 3.0806,-1.4599 1.26313,-0.30816 4.24388,-0.16934 5.34388,0.24887 l 0.23057,0.0877 v 1.5901 1.5901 l -0.59376,-0.27786 c -1.50462,-0.7041 -3.55667,-0.74838 -4.93385,-0.10647 -0.60709,0.28297 -1.56996,1.20399 -1.86662,1.78548 -0.31858,0.62448 -0.56946,1.74491 -0.56765,2.53517 0.007,2.90231 1.72484,4.69685 4.49168,4.69122 1.15607,-0.002 1.96003,-0.19657 3.35309,-0.81004 0.091,-0.0401 0.11711,0.28218 0.11711,1.44243 0,1.72168 0.10805,1.54159 -1.13119,1.88546 -1.22099,0.33881 -2.93957,0.45193 -4.35441,0.28662 z m -22.90197,-7.5341 v -7.35454 h 1.63954 1.63955 v 5.99606 5.99606 h 2.71696 2.71696 v 1.35848 1.35848 h -4.3565 -4.35651 z m 9.74359,6.0911 v -1.26615 h 0.60897 0.60898 v -4.82495 -4.82495 h -0.60898 -0.60897 v -1.26615 -1.26614 l 2.88091,0.0248 2.88092,0.0248 0.0261,1.23703 0.0261,1.23703 -0.63508,0.0278 -0.63509,0.0278 -0.0243,4.80153 -0.0243,4.80153 h 0.65939 0.6594 l -0.0262,1.24137 -0.0261,1.24137 -2.88092,0.0248 -2.88091,0.0248 z m 21.45464,-6.0911 v -7.35886 l 1.66296,0.0256 1.66297,0.0256 v 3.45035 c 0,1.89769 0.0321,3.39436 0.0714,3.32594 0.2785,-0.48526 1.39017,-2.21119 2.7861,-4.32558 l 1.63954,-2.48339 1.99457,-0.007 1.99456,-0.007 -0.50484,0.68265 c -2.0524,2.77525 -4.5617,6.26086 -4.5617,6.33654 0,0.0503 1.22263,1.77931 2.71696,3.84224 1.49433,2.06293 2.71696,3.77338 2.71696,3.801 0,0.0276 -0.93214,0.0389 -2.07143,0.025 l -2.07144,-0.0252 -2.14622,-3.1854 c -1.18043,-1.75197 -2.21925,-3.34911 -2.3085,-3.54919 -0.15833,-0.35498 -0.1634,-0.27782 -0.20911,3.1854 l -0.0469,3.54919 -1.66297,0.0256 -1.66296,0.0256 z"
           id="path322" /><path
           style="fill:#b10000;stroke-width:0.0936884"
           d="m 92.384597,226.31495 c -2.673035,-0.32845 -4.990387,-1.34844 -7.634573,-3.36035 -1.169932,-0.89018 -3.467577,-3.12924 -5.513056,-5.37248 l -1.566055,-1.71747 -1.247732,-0.10862 c -3.637402,-0.31666 -6.967355,-1.75934 -9.667051,-4.18819 -3.110787,-2.79869 -5.177696,-7.14999 -5.672304,-11.94144 -0.140207,-1.35825 -0.05827,-4.76503 0.146701,-6.09936 1.186026,-7.72095 5.903023,-13.2031 12.932288,-15.03006 1.699487,-0.44171 2.822984,-0.56281 5.245941,-0.56543 2.281134,-0.002 3.259012,0.0945 4.778108,0.47388 5.477339,1.36784 9.849614,5.44405 11.701123,10.90878 0.835394,2.46566 1.126518,4.61899 1.061784,7.8536 -0.07549,3.77214 -0.598071,6.18166 -1.953483,9.00716 -0.898788,1.87361 -1.784395,3.12265 -3.260021,4.59784 -1.633173,1.63269 -3.179456,2.67304 -5.207194,3.50343 -0.360699,0.14771 -0.671165,0.28032 -0.689921,0.29469 -0.164371,0.12591 1.984346,2.10031 3.101567,2.84995 2.026198,1.35955 4.151945,1.96415 6.905836,1.96415 1.072802,0 2.948369,-0.27132 3.516471,-0.50868 l 0.329264,-0.13758 v 3.49289 3.4929 l -0.960306,0.19978 c -0.528168,0.10988 -1.297584,0.24462 -1.709813,0.29944 -1.053857,0.14013 -3.799836,0.19411 -4.637574,0.0912 z M 80.207565,208.70118 c 3.859471,-0.47186 6.530271,-3.01554 7.620165,-7.25748 0.666726,-2.59494 0.633844,-6.44014 -0.07893,-9.22996 -0.815213,-3.19077 -2.727216,-5.61858 -5.216813,-6.62418 -1.930797,-0.77988 -4.850095,-0.77401 -6.788342,0.0137 -2.921097,1.18707 -4.909864,3.88803 -5.765463,7.83014 -0.19266,0.88766 -0.213509,1.23076 -0.213509,3.51331 0,2.27225 0.02137,2.62751 0.21011,3.49209 0.409736,1.87697 1.028651,3.44637 1.802952,4.57177 0.461011,0.67006 1.559271,1.79021 2.21165,2.25574 1.705773,1.21721 3.88522,1.72015 6.21818,1.43492 z"
           id="path320" /></g><g
         id="g380"
         transform="matrix(0.82710684,0,0,0.82710684,-114.70058,176.17536)"><path
           style="fill:#085ae3;stroke-width:0.145074"
           d="m 164.75492,215.34062 c -3.188,-0.59091 -6.09276,-2.58672 -9.98809,-6.86262 l -1.71886,-1.8868 -0.96501,-0.10049 c -6.63217,-0.69061 -11.35385,-4.9566 -12.96036,-11.70955 -0.43743,-1.83874 -0.47106,-6.20829 -0.0623,-8.09585 0.90861,-4.19587 2.60229,-7.07978 5.54031,-9.43372 1.68272,-1.3482 3.7971,-2.29875 6.32933,-2.84543 1.79535,-0.3876 5.53225,-0.35877 7.32163,0.0565 2.8061,0.65121 5.0033,1.88708 7.01111,3.94358 2.00263,2.05121 3.28847,4.52692 3.93187,7.57034 0.45544,2.15434 0.45661,6.07628 0.002,8.22391 -1.08469,5.1293 -3.77488,8.72239 -8.03435,10.73087 -0.61931,0.29202 -1.10413,0.59851 -1.07739,0.68107 0.0267,0.0826 0.59471,0.62182 1.26217,1.19833 2.24717,1.94095 4.1491,2.65119 7.0996,2.65119 1.0317,0 2.01179,-0.0846 2.52267,-0.21761 0.4595,-0.11969 0.86492,-0.21762 0.90092,-0.21762 0.036,0 0.0655,1.3318 0.0655,2.95955 v 2.95955 l -0.6891,0.15775 c -2.00581,0.45915 -4.75274,0.55946 -6.49206,0.23707 z m -8.90621,-15.02136 c 3.22948,-0.61246 5.5529,-3.48001 6.09322,-7.52022 0.23137,-1.73005 0.0851,-4.85184 -0.29659,-6.33134 -0.92447,-3.58313 -3.09195,-5.74551 -6.19956,-6.18499 -4.09643,-0.57931 -7.53927,1.84332 -8.78112,6.17902 -0.29615,1.03391 -0.33414,1.47999 -0.33414,3.92296 0,2.44658 0.0375,2.88613 0.33413,3.91046 0.91536,3.1616 2.94144,5.32332 5.59183,5.96621 0.9327,0.22624 2.56579,0.25256 3.59223,0.0579 z m 17.53812,11.46385 v -2.90148 h 39.75028 39.75028 v 2.90148 2.90148 h -39.75028 -39.75028 z m 30.75569,-4.64641 c -0.8268,-0.14519 -1.41683,-0.53829 -1.79157,-1.19363 -0.46962,-0.82124 -0.58075,-1.55661 -0.38078,-2.51984 0.35274,-1.69915 1.8184,-2.60153 3.51195,-2.16223 0.94078,0.24403 1.51673,0.81981 1.80215,1.8016 0.6947,2.38968 -0.90689,4.46656 -3.14175,4.0741 z m 1.51038,-1.6029 c 0.50793,-0.60365 0.54414,-2.05664 0.0664,-2.66401 -0.94262,-1.19835 -2.44721,-0.42651 -2.44721,1.25539 0,1.21633 0.4778,1.85497 1.3878,1.85497 0.51138,0 0.68197,-0.0767 0.99303,-0.44635 z m 15.68089,1.60141 c -1.51481,-0.22125 -2.37356,-1.26357 -2.38594,-2.89595 -0.005,-0.71293 0.4942,-1.94177 0.95621,-2.35192 0.70104,-0.62233 2.18454,-0.90333 3.35196,-0.63491 0.44209,0.10165 0.47149,0.14733 0.47149,0.73262 v 0.62421 l -0.54403,-0.19415 c -0.73423,-0.26202 -1.27279,-0.25331 -1.87042,0.0303 -0.64587,0.30649 -0.92225,0.86032 -0.92225,1.84807 0,0.96371 0.45873,1.62351 1.22926,1.76807 0.81698,0.15326 1.09193,-0.0158 1.09193,-0.67146 0,-0.56889 -0.002,-0.57052 -0.5803,-0.57052 -0.56648,0 -0.5803,-0.0121 -0.5803,-0.50776 v -0.50776 h 1.23313 1.23313 v 1.44564 c 0,1.32611 -0.0255,1.45929 -0.3087,1.61084 -0.43144,0.2309 -1.68356,0.37571 -2.37517,0.27469 z m -46.061,-2.37261 v -2.39482 l -0.83418,-0.0435 -0.83418,-0.0435 v -0.50777 -0.50776 l 2.28492,-0.0399 2.28492,-0.0399 v 0.58398 0.58398 h -0.79431 -0.79432 l -0.0399,2.35745 -0.0398,2.35746 -0.61657,0.0446 -0.61656,0.0446 z m 3.917,-0.59587 v -2.97402 h 1.66835 1.66835 v 0.58029 0.5803 h -1.01552 -1.01552 v 0.65284 0.65283 h 0.94299 0.94297 v 0.50776 0.50776 h -0.94297 -0.94299 v 0.64647 0.64648 l 1.05179,0.0426 1.05179,0.0426 0.045,0.54403 0.045,0.54402 h -1.74965 -1.74964 z m 5.68394,2.73004 c -1.59461,-0.7858 -1.92909,-3.3997 -0.62513,-4.88532 0.43601,-0.49676 1.33465,-0.84927 2.18308,-0.85638 1.28122,-0.0107 1.46255,0.092 1.46255,0.82835 v 0.62609 l -0.59057,-0.20347 c -1.18757,-0.40915 -2.28241,0.24866 -2.41815,1.45287 -0.1547,1.37253 0.39934,2.12124 1.56972,2.12124 0.3821,0 0.8622,-0.0637 1.06687,-0.14148 0.36043,-0.13704 0.37213,-0.12351 0.37213,0.43012 0,0.41664 -0.0761,0.61231 -0.28061,0.72177 -0.44271,0.23693 -2.19014,0.17711 -2.73989,-0.0938 z m 4.32617,-2.7217 v -2.98236 h 0.65283 0.65283 v 1.16059 1.16059 h 1.16059 1.16059 v -1.16059 -1.16059 h 0.65284 0.65283 v 2.97402 2.97401 h -0.64696 -0.64697 l -0.0421,-1.19686 -0.0421,-1.19686 -1.11836,-0.0423 -1.11836,-0.0423 -0.0422,1.20286 -0.0422,1.20286 -0.61656,0.0446 -0.61656,0.0446 z m 6.38325,-0.008 v -2.97402 h 0.63035 c 0.75356,0 0.72148,-0.0337 2.13583,2.24512 l 1.07828,1.73736 0.0404,-1.99124 0.0404,-1.99124 h 0.5762 0.5762 v 2.97402 2.97401 h -0.64091 -0.6409 l -1.18322,-1.88401 c -0.65078,-1.03621 -1.24369,-1.92139 -1.3176,-1.96706 -0.0799,-0.0494 -0.13437,0.71406 -0.13437,1.88401 v 1.96706 h -0.58029 -0.5803 z m 13.05666,0 v -2.97402 h 0.65284 0.65283 v 2.39372 2.39372 h 1.01552 1.01552 v 0.5803 0.58029 h -1.66836 -1.66835 z m 5.3938,2.73004 c -1.42003,-0.69977 -1.89774,-2.89931 -0.97256,-4.47801 0.98865,-1.68701 3.7218,-1.68691 4.66814,1.4e-4 0.91015,1.62256 0.34212,3.7637 -1.20957,4.55934 -0.46982,0.2409 -1.92883,0.19307 -2.48601,-0.0815 z m 2.39912,-1.4821 c 0.23753,-0.35349 0.33107,-0.70234 0.33069,-1.23313 -0.001,-1.73076 -1.41015,-2.53483 -2.39361,-1.36605 -0.30302,0.36012 -0.36226,0.58108 -0.36226,1.35124 0,0.78263 0.0572,0.98874 0.38162,1.37425 0.33989,0.40393 0.45437,0.44878 1.04697,0.41008 0.57257,-0.0374 0.71155,-0.11219 0.99659,-0.53639 z m 10.00283,1.62936 c -0.0532,-0.0532 -0.0967,-0.57763 -0.0967,-1.16541 0,-0.86336 -0.0725,-1.21174 -0.37723,-1.81314 -0.20748,-0.40944 -0.59546,-1.22331 -0.86219,-1.8086 l -0.48496,-1.06417 h 0.71568 0.71567 l 0.44175,0.97427 c 0.24297,0.53585 0.48077,1.12972 0.52846,1.31971 0.0714,0.28454 0.18092,0.11917 0.62116,-0.938 l 0.53446,-1.28344 0.67942,-0.0442 c 0.37368,-0.0243 0.67941,-0.0114 0.67941,0.0288 0,0.0402 -0.42434,0.93336 -0.94298,1.98486 -0.88368,1.7916 -0.94298,1.97452 -0.94298,2.90892 v 0.9971 h -0.55612 c -0.30586,0 -0.59964,-0.0435 -0.65283,-0.0967 z m 7.61827,-0.14726 c -1.42415,-0.70179 -1.86351,-2.92276 -0.8838,-4.46759 0.52799,-0.83256 1.35677,-1.26502 2.44175,-1.27411 1.28121,-0.0107 1.46254,0.092 1.46254,0.82835 v 0.6261 l -0.59057,-0.20347 c -0.7345,-0.25306 -1.52232,-0.0756 -2.0211,0.45537 -0.25841,0.27507 -0.35935,0.57686 -0.40527,1.21174 -0.0568,0.78577 -0.0282,0.88292 0.40487,1.37622 0.42962,0.48932 0.5279,0.53077 1.25843,0.53077 0.43584,0 0.91869,-0.0676 1.07303,-0.15018 0.25775,-0.13794 0.28061,-0.098 0.28061,0.49084 0,0.54213 -0.0504,0.65452 -0.32641,0.7285 -0.65185,0.17468 -2.20896,0.0865 -2.69408,-0.15254 z m 4.32616,-2.73004 v -2.97402 h 0.65283 0.65284 v 2.39372 2.39372 h 1.01551 1.01552 v 0.5803 0.58029 h -1.66835 -1.66835 z m 5.18183,2.71627 c -0.78334,-0.48536 -0.97469,-1.18423 -0.97469,-3.55998 v -2.13031 h 0.65284 0.65283 v 2.07129 c 0,2.43088 0.10516,2.71615 1.00126,2.71615 0.97416,0 1.09447,-0.28182 1.15218,-2.69884 l 0.0499,-2.0886 h 0.56669 0.56669 v 2.19045 c 0,2.46105 -0.14533,3.0047 -0.93137,3.48402 -0.59478,0.3627 -2.16185,0.37176 -2.73631,0.0158 z m 5.18309,0.0719 c -0.0392,-0.1022 -0.0535,-1.42419 -0.0317,-2.93775 l 0.0396,-2.75194 1.01551,-0.0455 c 2.14791,-0.0962 2.97402,0.29384 2.97402,1.40421 0,0.46286 -0.0864,0.64672 -0.44635,0.94958 -0.2455,0.20657 -0.38297,0.37558 -0.30549,0.37558 0.0775,0 0.34361,0.1894 0.59142,0.42089 0.87845,0.82059 0.41909,2.2742 -0.82815,2.62061 -0.79207,0.21999 -2.92041,0.19475 -3.00884,-0.0357 z m 2.69174,-1.11986 c 0.15958,-0.15958 0.29015,-0.38341 0.29015,-0.4974 0,-0.4561 -0.79339,-0.89925 -1.403,-0.78364 -0.19189,0.0364 -0.27807,0.20482 -0.31129,0.6084 -0.0252,0.30694 -0.011,0.64914 0.0317,0.76043 0.11985,0.31234 1.051,0.25363 1.39242,-0.0878 z m -0.19517,-2.48488 c 0.2953,-0.24508 0.23667,-0.8194 -0.10215,-1.00074 -0.16353,-0.0875 -0.47363,-0.13878 -0.6891,-0.11391 -0.32715,0.0378 -0.39945,0.12528 -0.43827,0.53052 -0.073,0.76206 0.0518,0.9426 0.57892,0.83719 0.25049,-0.0501 0.54326,-0.16398 0.6506,-0.25306 z m -74.05303,-4.40224 c -2.01471,-0.45434 -3.13442,-1.73164 -3.50151,-3.9943 -0.0841,-0.51816 -0.15334,-2.68843 -0.15394,-4.82283 l -10e-4,-3.88074 h 1.4429 1.4429 l 0.0441,4.38849 c 0.049,4.86948 0.08,5.03935 1.03041,5.63576 0.37528,0.23551 0.6557,0.28192 1.46069,0.24176 0.90551,-0.0452 1.03352,-0.0914 1.40552,-0.50775 0.2251,-0.25193 0.47822,-0.70635 0.56249,-1.00981 0.0909,-0.3272 0.15355,-2.22187 0.15403,-4.65536 l 8.2e-4,-4.10359 1.41447,0.0415 1.41448,0.0415 -0.008,4.27969 c -0.007,3.58684 -0.0477,4.40632 -0.25219,5.06196 -0.70227,2.25151 -1.97965,3.20754 -4.55847,3.41172 -0.60816,0.0481 -1.333,-8.3e-4 -1.89739,-0.12804 z m 51.50128,0.001 c -1.48744,-0.33734 -2.48441,-1.13136 -3.103,-2.47132 -0.32484,-0.70365 -0.33618,-0.86759 -0.37902,-5.47654 l -0.0442,-4.75116 h 1.37586 1.37585 l 0.046,4.31595 c 0.0416,3.90885 0.0722,4.36888 0.3245,4.87711 0.42827,0.8628 0.97344,1.13256 2.16845,1.07294 0.90551,-0.0452 1.03352,-0.0914 1.40552,-0.50775 0.2251,-0.25192 0.47822,-0.70634 0.56249,-1.00981 0.0908,-0.32713 0.15355,-2.2203 0.15403,-4.6501 l 8.2e-4,-4.09834 h 1.45074 1.45074 l -0.001,3.80819 c -4.2e-4,2.09451 -0.0676,4.23254 -0.14888,4.75118 -0.20643,1.31729 -0.92872,2.71298 -1.70612,3.29671 -1.15506,0.8673 -3.24816,1.22499 -4.93269,0.84295 z m -42.97161,-0.18411 c 0,-0.0882 1.83668,-5.23041 3.97782,-11.13678 l 0.47332,-1.30567 1.67011,-0.0407 1.6701,-0.0407 0.73589,2.07172 c 0.40475,1.13945 1.16846,3.31211 1.69714,4.82814 0.52868,1.51602 1.18637,3.37016 1.46154,4.12032 0.27516,0.75016 0.50029,1.41931 0.50029,1.48701 0,0.0677 -0.68299,0.12309 -1.51776,0.12309 h -1.51778 l -0.41186,-1.34194 -0.41186,-1.34193 h -2.24124 -2.24125 l -0.42589,1.34193 -0.42589,1.34194 h -1.49634 c -0.82299,0 -1.49634,-0.0479 -1.49634,-0.10646 z m 7.54959,-4.93487 c 0.003,-0.0598 -0.33957,-1.2363 -0.76164,-2.61435 -0.7238,-2.36325 -0.77382,-2.47448 -0.88076,-1.9585 -0.0624,0.30088 -0.4051,1.44064 -0.76164,2.5328 -0.35654,1.09217 -0.64826,2.02246 -0.64826,2.06731 0,0.12442 3.04573,0.0972 3.0523,-0.0273 z m 6.66766,-1.26939 v -6.31073 h 1.504 1.504 l 0.41052,0.61657 c 0.59013,0.88634 3.461,5.33346 4.36917,6.76808 l 0.77168,1.219 v -4.30182 -4.30183 h 1.30566 1.30567 v 6.31073 6.31071 l -1.41447,-0.003 -1.41447,-0.003 -0.57396,-0.9037 c -0.31568,-0.49704 -1.58871,-2.46544 -2.82895,-4.37422 l -2.25498,-3.47053 -0.0384,4.37724 -0.0384,4.37723 h -1.30354 -1.30354 z m 16.82859,1.16059 v -5.15013 h -1.74089 -1.74089 v -1.16059 -1.1606 h 4.93252 4.93252 v 1.1606 1.16059 h -1.74089 -1.74089 v 5.15013 5.15012 h -1.45074 -1.45074 z m 21.7611,-1.16458 v -6.3147 l 2.06145,0.0403 2.06144,0.0403 0.35069,1.01552 c 1.44503,4.18459 2.48998,7.38359 2.48998,7.62281 0,0.15605 0.0653,0.28372 0.14507,0.28372 0.0798,0 0.14507,-0.0945 0.14507,-0.21004 0,-0.17507 1.35259,-4.25313 2.61286,-7.87784 l 0.31526,-0.90671 h 2.01772 2.01772 v 6.31072 6.31072 h -1.37628 -1.37627 l -0.0382,-4.89625 c -0.0376,-4.82247 -0.0418,-4.88313 -0.27526,-4.0258 -0.13039,0.47874 -0.85398,2.66574 -1.60798,4.85998 l -1.37091,3.98953 -1.16856,0.0419 -1.16854,0.0419 -0.16914,-0.4771 c -1.40616,-3.96633 -2.71905,-7.76481 -2.92273,-8.45617 l -0.25646,-0.87044 -0.0103,4.89624 -0.0103,4.89625 h -1.23313 -1.23313 z"
           id="path371" /><path
           style="fill:#b10101;stroke-width:0.145074"
           d="m 164.75492,215.34062 c -3.188,-0.59091 -6.09276,-2.58672 -9.98809,-6.86262 l -1.71886,-1.8868 -0.96501,-0.10049 c -6.63217,-0.69061 -11.35385,-4.9566 -12.96036,-11.70955 -0.43743,-1.83874 -0.47106,-6.20829 -0.0623,-8.09585 0.90861,-4.19587 2.60229,-7.07978 5.54031,-9.43372 1.68272,-1.3482 3.7971,-2.29875 6.32933,-2.84543 1.79535,-0.3876 5.53225,-0.35877 7.32163,0.0565 2.8061,0.65121 5.0033,1.88708 7.01111,3.94358 2.00263,2.05121 3.28847,4.52692 3.93187,7.57034 0.45544,2.15434 0.45661,6.07628 0.002,8.22391 -1.08469,5.1293 -3.77488,8.72239 -8.03435,10.73087 -0.61931,0.29202 -1.10413,0.59851 -1.07739,0.68107 0.0267,0.0826 0.59471,0.62182 1.26217,1.19833 2.24717,1.94095 4.1491,2.65119 7.0996,2.65119 1.0317,0 2.01179,-0.0846 2.52267,-0.21761 0.4595,-0.11969 0.86492,-0.21762 0.90092,-0.21762 0.036,0 0.0655,1.3318 0.0655,2.95955 v 2.95955 l -0.6891,0.15775 c -2.00581,0.45915 -4.75274,0.55946 -6.49206,0.23707 z m -8.90621,-15.02136 c 3.22948,-0.61246 5.5529,-3.48001 6.09322,-7.52022 0.23137,-1.73005 0.0851,-4.85184 -0.29659,-6.33134 -0.92447,-3.58313 -3.09195,-5.74551 -6.19956,-6.18499 -4.09643,-0.57931 -7.53927,1.84332 -8.78112,6.17902 -0.29615,1.03391 -0.33414,1.47999 -0.33414,3.92296 0,2.44658 0.0375,2.88613 0.33413,3.91046 0.91536,3.1616 2.94144,5.32332 5.59183,5.96621 0.9327,0.22624 2.56579,0.25256 3.59223,0.0579 z"
           id="path369" /></g></g></g></svg>
